Fraunces144ptExtraSoft-Light.ufo
<glyph name="exclam" format="2">
  <advance width="459.2"/>
  <unicode hex="0021"/>
  <outline>
    <contour>
      <point x="228.39999999999998" y="1449.8" type="curve" smooth="yes"/>
      <point x="175.2" y="1449.8"/>
      <point x="152.60000000000002" y="1419.4"/>
      <point x="152.60000000000002" y="1377.6" type="curve" smooth="yes"/>
      <point x="152.60000000000002" y="1363.0"/>
      <point x="153.2" y="1337.0"/>
      <point x="155.0" y="1314.4" type="curve" smooth="yes"/>
      <point x="189.2" y="393.4" type="line" smooth="yes"/>
      <point x="192.6" y="358.0"/>
      <point x="204.6" y="345.0"/>
      <point x="228.39999999999998" y="345.0" type="curve" smooth="yes"/>
      <point x="252.0" y="345.0"/>
      <point x="262.6" y="358.79999999999995"/>
      <point x="266.0" y="395.0" type="curve" smooth="yes"/>
      <point x="300.2" y="1314.4" type="line" smooth="yes"/>
      <point x="302.0" y="1337.0"/>
      <point x="303.4" y="1363.0"/>
      <point x="303.4" y="1377.6" type="curve" smooth="yes"/>
      <point x="303.4" y="1419.4"/>
      <point x="281.4" y="1449.8"/>
    </contour>
    <component base="period" xOffset="70.80000000000001"/>
  </outline>
</glyph>
<glyph name="numbersign" format="2">
  <advance width="1086.6"/>
  <unicode hex="0023"/>
  <outline>
    <contour>
      <point x="431.8" y="686.2" type="curve" smooth="yes"/>
      <point x="473.6007685836351" y="860.7167124832379"/>
      <point x="559.8" y="1184.0"/>
      <point x="599.4" y="1329.4" type="curve" smooth="yes"/>
      <point x="610.6" y="1374.6"/>
      <point x="603.6" y="1398.4"/>
      <point x="579.6" y="1405.4" type="curve" smooth="yes"/>
      <point x="555.6" y="1414.2"/>
      <point x="537.0" y="1396.6"/>
      <point x="525.8" y="1354.0" type="curve" smooth="yes"/>
      <point x="490.2" y="1208.8"/>
      <point x="415.99199683386007" y="888.2888293573841"/>
      <point x="372.8" y="714.2" type="curve" smooth="yes"/>
      <point x="329.0868690195615" y="533.7945105679332"/>
      <point x="229.8" y="209.6"/>
      <point x="191.4" y="57.199999999999996" type="curve" smooth="yes"/>
      <point x="182.8" y="20.0"/>
      <point x="190.6" y="-5.800000000000001"/>
      <point x="214.8" y="-11.6" type="curve" smooth="yes"/>
      <point x="241.2" y="-17.8"/>
      <point x="258.0" y="-0.40000000000000036"/>
      <point x="267.8" y="36.599999999999994" type="curve" smooth="yes"/>
      <point x="302.6" y="174.4"/>
      <point x="389.0970308389429" y="507.7954711418925"/>
    </contour>
    <contour>
      <point x="574.0" y="889.6" type="curve" smooth="yes"/>
      <point x="454.4" y="888.4"/>
      <point x="239.4" y="905.8"/>
      <point x="139.2" y="904.8" type="curve" smooth="yes"/>
      <point x="108.2" y="904.6"/>
      <point x="89.2" y="890.8"/>
      <point x="89.2" y="862.4" type="curve" smooth="yes"/>
      <point x="90.0" y="833.0"/>
      <point x="108.0" y="816.8"/>
      <point x="140.2" y="818.0" type="curve" smooth="yes"/>
      <point x="239.4" y="816.8"/>
      <point x="457.4" y="821.8"/>
      <point x="573.0" y="823.8" type="curve" smooth="yes"/>
      <point x="689.7711340206185" y="823.8"/>
      <point x="903.9729615719255" y="814.2824326915472"/>
      <point x="1001.2" y="812.2" type="curve" smooth="yes"/>
      <point x="1038.2" y="813.4"/>
      <point x="1058.6" y="829.2"/>
      <point x="1059.0" y="858.2" type="curve" smooth="yes"/>
      <point x="1058.6" y="886.0"/>
      <point x="1038.0" y="899.2"/>
      <point x="1002.2" y="899.2" type="curve" smooth="yes"/>
      <point x="904.9729615719255" y="896.9175673084528"/>
      <point x="690.9711340206186" y="889.6"/>
    </contour>
    <contour>
      <point x="527.4" y="491.0" type="curve" smooth="yes"/>
      <point x="642.1855670103093" y="491.0"/>
      <point x="852.3864919716308" y="481.24121609155384"/>
      <point x="947.8" y="479.2" type="curve" smooth="yes"/>
      <point x="984.6" y="480.4"/>
      <point x="1005.2" y="495.6"/>
      <point x="1006.4" y="525.4" type="curve" smooth="yes"/>
      <point x="1005.2" y="552.4"/>
      <point x="984.6" y="565.6"/>
      <point x="948.8" y="565.6" type="curve" smooth="yes"/>
      <point x="853.3864919716308" y="563.3587839084462"/>
      <point x="643.3855670103093" y="556.0"/>
      <point x="528.4" y="556.0" type="curve" smooth="yes"/>
      <point x="405.4296085951551" y="554.760978648171"/>
      <point x="181.66788722940632" y="572.2390200769086"/>
      <point x="78.6" y="571.2" type="curve" smooth="yes"/>
      <point x="46.8" y="571.0"/>
      <point x="27.6" y="557.2"/>
      <point x="27.6" y="529.6" type="curve" smooth="yes"/>
      <point x="28.6" y="500.0"/>
      <point x="46.6" y="484.0"/>
      <point x="78.8" y="485.0" type="curve" smooth="yes"/>
      <point x="181.67685519139786" y="483.96088451924044"/>
      <point x="407.73734298467167" y="488.9217861098105"/>
    </contour>
    <contour>
      <point x="581.6" y="36.599999999999994" type="curve" smooth="yes"/>
      <point x="615.8" y="175.2"/>
      <point x="701.9823516061895" y="507.7895873175417"/>
      <point x="745.6" y="686.2" type="curve" smooth="yes"/>
      <point x="788.3234176641674" y="860.7317452705734"/>
      <point x="874.4" y="1184.0"/>
      <point x="912.6" y="1329.4" type="curve" smooth="yes"/>
      <point x="923.8" y="1374.6"/>
      <point x="917.6" y="1398.4"/>
      <point x="894.2" y="1405.4" type="curve" smooth="yes"/>
      <point x="868.8" y="1414.2"/>
      <point x="851.0" y="1396.6"/>
      <point x="839.8" y="1354.0" type="curve" smooth="yes"/>
      <point x="802.8" y="1208.8"/>
      <point x="730.1919968338601" y="888.2888293573841"/>
      <point x="687.0" y="714.2" type="curve" smooth="yes"/>
      <point x="641.4641075407498" y="533.7883247331882"/>
      <point x="543.6" y="209.6"/>
      <point x="505.4" y="57.199999999999996" type="curve" smooth="yes"/>
      <point x="496.8" y="20.0"/>
      <point x="504.6" y="-5.800000000000001"/>
      <point x="529.4" y="-11.6" type="curve" smooth="yes"/>
      <point x="555.0" y="-17.8"/>
      <point x="572.0" y="-0.40000000000000036"/>
    </contour>
  </outline>
</glyph>
<glyph name="dollar" format="2">
  <advance width="987.2"/>
  <unicode hex="0024"/>
  <outline>
    <contour>
      <point x="522.6" y="1392.0" type="curve" smooth="yes"/>
      <point x="268.4" y="1392.0"/>
      <point x="97.80000000000001" y="1224.4"/>
      <point x="97.80000000000001" y="1018.8" type="curve" smooth="yes"/>
      <point x="97.80000000000001" y="856.6"/>
      <point x="192.6" y="716.0"/>
      <point x="475.6" y="631.6" type="curve" smooth="yes"/>
      <point x="718.1693284958385" y="558.7765880211653"/>
      <point x="794.4" y="449.4"/>
      <point x="794.4" y="317.2" type="curve" smooth="yes"/>
      <point x="794.4" y="161.4"/>
      <point x="681.6" y="72.39999999999999"/>
      <point x="506.4" y="72.39999999999999" type="curve" smooth="yes"/>
      <point x="324.79999999999995" y="72.39999999999999"/>
      <point x="217.2" y="161.2"/>
      <point x="217.2" y="279.8" type="curve" smooth="yes"/>
      <point x="217.2" y="329.8" type="line" smooth="yes"/>
      <point x="217.2" y="380.2"/>
      <point x="191.6" y="410.2"/>
      <point x="152.39999999999998" y="410.2" type="curve" smooth="yes"/>
      <point x="112.4" y="410.2"/>
      <point x="83.8" y="368.4"/>
      <point x="83.8" y="308.8" type="curve" smooth="yes"/>
      <point x="83.8" y="144.6"/>
      <point x="264.6" y="5.6000000000000005"/>
      <point x="506.8" y="5.6000000000000005" type="curve" smooth="yes"/>
      <point x="759.0" y="5.6000000000000005"/>
      <point x="912.8" y="153.2"/>
      <point x="912.8" y="362.6" type="curve" smooth="yes"/>
      <point x="912.8" y="510.8"/>
      <point x="811.9881947184224" y="660.0363242901985"/>
      <point x="545.0" y="740.0" type="curve" smooth="yes"/>
      <point x="294.0" y="813.6"/>
      <point x="215.6" y="923.4"/>
      <point x="215.6" y="1056.2" type="curve" smooth="yes"/>
      <point x="215.6" y="1215.593288590604"/>
      <point x="334.0" y="1327.6"/>
      <point x="514.8" y="1327.6" type="curve" smooth="yes"/>
      <point x="672.8" y="1327.6"/>
      <point x="769.0" y="1241.9730769230769"/>
      <point x="769.0" y="1128.2" type="curve" smooth="yes"/>
      <point x="769.0" y="1081.4" type="line" smooth="yes"/>
      <point x="769.0" y="1038.2"/>
      <point x="797.6146341463415" y="1009.2"/>
      <point x="837.8" y="1009.2" type="curve" smooth="yes"/>
      <point x="872.1652173913043" y="1009.2"/>
      <point x="902.8" y="1044.6"/>
      <point x="902.8" y="1105.2" type="curve" smooth="yes"/>
      <point x="902.8" y="1268.0"/>
      <point x="757.4" y="1392.0"/>
    </contour>
    <contour>
      <point x="538.4" y="711.0" type="line"/>
      <point x="538.4" y="1303.8"/>
      <point x="559.8" y="1412.2"/>
      <point x="559.8" y="1480.8" type="curve" smooth="yes"/>
      <point x="559.8" y="1521.05"/>
      <point x="539.0" y="1540.4"/>
      <point x="513.6" y="1540.4" type="curve" smooth="yes"/>
      <point x="485.6" y="1540.4"/>
      <point x="463.4" y="1520.45"/>
      <point x="463.4" y="1481.6" type="curve" smooth="yes"/>
      <point x="463.4" y="1414.0"/>
      <point x="481.7999935013942" y="1303.5979919308206"/>
      <point x="479.8" y="711.0" type="curve"/>
    </contour>
    <contour>
      <point x="481.4" y="673.8" type="line"/>
      <point x="481.4" y="110.6"/>
      <point x="463.2" y="5.399999999999999"/>
      <point x="463.2" y="-64.0" type="curve" smooth="yes"/>
      <point x="463.2" y="-112.72307692307692"/>
      <point x="482.4" y="-134.8"/>
      <point x="511.0" y="-134.8" type="curve" smooth="yes"/>
      <point x="541.4" y="-134.8"/>
      <point x="560.4" y="-112.84210526315789"/>
      <point x="560.4" y="-66.4" type="curve" smooth="yes"/>
      <point x="560.4" y="5.199999999999999"/>
      <point x="538.8" y="110.8"/>
      <point x="539.2" y="673.8" type="curve"/>
    </contour>
  </outline>
</glyph>
<glyph name="ampersand" format="2">
  <advance width="1631.6"/>
  <unicode hex="0026"/>
  <outline>
    <contour>
      <point x="1150.2" y="-36.2" type="curve" smooth="yes"/>
      <point x="948.8" y="-36.2"/>
      <point x="821.8" y="62.6"/>
      <point x="680.8" y="294.8" type="curve" smooth="yes"/>
      <point x="544.8" y="516.4"/>
      <point x="477.2" y="706.2"/>
      <point x="477.2" y="895.6" type="curve" smooth="yes"/>
      <point x="477.2" y="1114.6"/>
      <point x="596.2" y="1261.2"/>
      <point x="782.8" y="1261.2" type="curve" smooth="yes"/>
      <point x="924.6" y="1261.2"/>
      <point x="1022.0" y="1147.6"/>
      <point x="1022.0" y="985.4" type="curve" smooth="yes"/>
      <point x="1022.0" y="805.6"/>
      <point x="886.4" y="670.0"/>
      <point x="617.8" y="624.8" type="curve"/>
      <point x="611.4" y="679.0" type="line"/>
      <point x="811.8" y="728.4"/>
      <point x="912.6" y="827.8"/>
      <point x="912.6" y="998.4" type="curve" smooth="yes"/>
      <point x="912.6" y="1119.0"/>
      <point x="852.0" y="1198.4"/>
      <point x="772.6" y="1198.4" type="curve" smooth="yes"/>
      <point x="658.2" y="1198.4"/>
      <point x="586.8" y="1098.8"/>
      <point x="586.8" y="938.8" type="curve" smooth="yes"/>
      <point x="586.8" y="754.6"/>
      <point x="656.2" y="565.4"/>
      <point x="779.0" y="371.8" type="curve" smooth="yes"/>
      <point x="923.6" y="141.6"/>
      <point x="1041.4" y="48.599999999999994"/>
      <point x="1176.0" y="48.599999999999994" type="curve" smooth="yes"/>
      <point x="1348.6" y="48.599999999999994"/>
      <point x="1497.6" y="180.39999999999998"/>
      <point x="1497.6" y="489.6" type="curve" smooth="yes"/>
      <point x="1497.6" y="830.8"/>
      <point x="1365.8" y="1102.0"/>
      <point x="1171.4" y="1276.2" type="curve" smooth="yes"/>
      <point x="1022.2" y="1409.2"/>
      <point x="835.2" y="1484.4"/>
      <point x="646.2" y="1484.4" type="curve" smooth="yes"/>
      <point x="345.4" y="1484.4"/>
      <point x="204.0" y="1322.4"/>
      <point x="204.0" y="1158.6" type="curve" smooth="yes"/>
      <point x="204.0" y="1073.4"/>
      <point x="260.0" y="1046.0"/>
      <point x="260.0" y="962.6" type="curve" smooth="yes"/>
      <point x="260.0" y="914.4"/>
      <point x="227.6" y="877.8"/>
      <point x="182.39999999999998" y="877.8" type="curve" smooth="yes"/>
      <point x="127.6" y="877.8"/>
      <point x="91.4" y="948.0"/>
      <point x="91.4" y="1043.4" type="curve" smooth="yes"/>
      <point x="91.4" y="1361.0"/>
      <point x="300.2" y="1552.0"/>
      <point x="648.6" y="1552.0" type="curve" smooth="yes"/>
      <point x="864.4" y="1552.0"/>
      <point x="1067.2" y="1471.0"/>
      <point x="1226.0" y="1328.8" type="curve" smooth="yes"/>
      <point x="1435.2" y="1140.4"/>
      <point x="1570.6" y="848.2"/>
      <point x="1570.6" y="490.6" type="curve" smooth="yes"/>
      <point x="1570.6" y="157.4"/>
      <point x="1405.4" y="-36.2"/>
    </contour>
    <contour>
      <point x="890.0" y="181.39999999999998" type="line"/>
      <point x="1025.8" y="297.4"/>
      <point x="1084.8" y="396.2"/>
      <point x="1084.8" y="493.0" type="curve" smooth="yes"/>
      <point x="1084.8" y="542.0"/>
      <point x="1061.2" y="563.4"/>
      <point x="1061.2" y="615.4" type="curve" smooth="yes"/>
      <point x="1061.2" y="661.2"/>
      <point x="1091.6" y="697.4"/>
      <point x="1130.6" y="697.4" type="curve" smooth="yes"/>
      <point x="1172.6" y="697.4"/>
      <point x="1208.0" y="652.0"/>
      <point x="1208.0" y="588.2" type="curve" smooth="yes"/>
      <point x="1208.0" y="433.2"/>
      <point x="1122.0" y="280.6"/>
      <point x="921.8" y="137.2" type="curve"/>
    </contour>
    <contour>
      <point x="541.4" y="615.6" type="line"/>
      <point x="319.6" y="574.4"/>
      <point x="233.0" y="451.0"/>
      <point x="233.0" y="294.4" type="curve" smooth="yes"/>
      <point x="233.0" y="142.0"/>
      <point x="342.6" y="46.39999999999999"/>
      <point x="486.6" y="46.39999999999999" type="curve" smooth="yes"/>
      <point x="595.4" y="46.39999999999999"/>
      <point x="692.4" y="76.8"/>
      <point x="801.0" y="161.6" type="curve"/>
      <point x="835.0" y="111.0" type="line"/>
      <point x="712.2" y="6.0"/>
      <point x="587.6" y="-32.0"/>
      <point x="443.4" y="-32.0" type="curve" smooth="yes"/>
      <point x="230.8" y="-32.0"/>
      <point x="101.80000000000001" y="85.2"/>
      <point x="101.80000000000001" y="279.0" type="curve" smooth="yes"/>
      <point x="101.80000000000001" y="482.2"/>
      <point x="237.4" y="637.2"/>
      <point x="541.4" y="672.8" type="curve"/>
    </contour>
  </outline>
</glyph>
<glyph name="quotesingle" format="2">
  <advance width="239.79999999999998"/>
  <unicode hex="0027"/>
  <outline>
    <contour>
      <point x="117.0" y="956.0" type="curve" smooth="yes"/>
      <point x="137.05599999999998" y="956.0"/>
      <point x="151.79999999999998" y="968.6"/>
      <point x="154.2" y="998.2" type="curve" smooth="yes"/>
      <point x="180.39999999999998" y="1454.6" type="line" smooth="yes"/>
      <point x="188.0059216217336" y="1517.0118024375731"/>
      <point x="168.09714285714284" y="1549.0"/>
      <point x="120.39999999999999" y="1549.0" type="curve" smooth="yes"/>
      <point x="72.90285714285714" y="1549.0"/>
      <point x="51.92595720995487" y="1515.757128126143"/>
      <point x="59.0" y="1454.4" type="curve" smooth="yes"/>
      <point x="79.4" y="998.6" type="line" smooth="yes"/>
      <point x="81.6" y="969.6"/>
      <point x="98.22962962962963" y="956.0"/>
    </contour>
  </outline>
</glyph>
<glyph name="parenleft" format="2">
  <advance width="584.8"/>
  <unicode hex="0028"/>
  <outline>
    <contour>
      <point x="108.8" y="601.2" type="curve" smooth="yes"/>
      <point x="108.8" y="229.0"/>
      <point x="283.8" y="-107.4"/>
      <point x="496.0" y="-231.0" type="curve" smooth="yes"/>
      <point x="523.4" y="-243.4"/>
      <point x="543.4" y="-239.2"/>
      <point x="551.8" y="-220.0" type="curve" smooth="yes"/>
      <point x="560.0" y="-204.0"/>
      <point x="550.0" y="-185.2"/>
      <point x="529.8" y="-167.8" type="curve" smooth="yes"/>
      <point x="352.4" y="-18.200000000000003"/>
      <point x="222.2" y="266.6"/>
      <point x="222.2" y="601.2" type="curve" smooth="yes"/>
      <point x="222.2" y="936.0"/>
      <point x="354.6" y="1221.2"/>
      <point x="529.8" y="1369.4" type="curve" smooth="yes"/>
      <point x="549.8" y="1387.6"/>
      <point x="560.0" y="1405.0"/>
      <point x="551.8" y="1422.4" type="curve" smooth="yes"/>
      <point x="543.4" y="1440.8"/>
      <point x="523.4" y="1446.8"/>
      <point x="496.0" y="1434.4" type="curve" smooth="yes"/>
      <point x="283.0" y="1311.0"/>
      <point x="108.8" y="974.4"/>
    </contour>
  </outline>
</glyph>
<glyph name="asterisk" format="2">
  <advance width="1154.8"/>
  <unicode hex="002A"/>
  <outline>
    <contour>
      <point x="596.2" y="1023.6" type="line"/>
      <point x="596.2" y="1146.6"/>
      <point x="638.6" y="1385.2"/>
      <point x="638.6" y="1466.4" type="curve" smooth="yes"/>
      <point x="638.6" y="1511.0"/>
      <point x="616.2" y="1534.6"/>
      <point x="579.2" y="1534.6" type="curve" smooth="yes"/>
      <point x="538.2" y="1534.6"/>
      <point x="517.2" y="1511.0"/>
      <point x="517.2" y="1466.4" type="curve" smooth="yes"/>
      <point x="517.2" y="1385.2"/>
      <point x="560.4" y="1146.6"/>
      <point x="560.4" y="1023.6" type="curve"/>
    </contour>
    <contour>
      <point x="583.6" y="1040.8" type="line"/>
      <point x="469.4" y="1079.0"/>
      <point x="256.6" y="1193.8"/>
      <point x="180.0" y="1218.8" type="curve" smooth="yes"/>
      <point x="139.6" y="1233.8"/>
      <point x="109.6" y="1218.6"/>
      <point x="97.80000000000001" y="1181.4" type="curve" smooth="yes"/>
      <point x="85.60000000000001" y="1141.8"/>
      <point x="101.0" y="1114.0"/>
      <point x="142.2" y="1099.0" type="curve" smooth="yes"/>
      <point x="218.2" y="1074.2"/>
      <point x="458.2" y="1045.4"/>
      <point x="573.8" y="1006.4" type="curve"/>
    </contour>
    <contour>
      <point x="563.8" y="1034.4" type="line"/>
      <point x="492.8" y="935.0"/>
      <point x="318.2" y="765.2"/>
      <point x="271.4" y="699.4" type="curve" smooth="yes"/>
      <point x="246.20000000000002" y="664.4"/>
      <point x="250.8" y="630.8"/>
      <point x="281.0" y="608.0" type="curve" smooth="yes"/>
      <point x="313.4" y="583.2"/>
      <point x="344.6" y="589.2"/>
      <point x="369.6" y="626.0" type="curve" smooth="yes"/>
      <point x="417.2" y="692.0"/>
      <point x="522.2" y="912.6"/>
      <point x="592.2" y="1012.8" type="curve"/>
    </contour>
    <contour>
      <point x="563.8" y="1012.8" type="line"/>
      <point x="635.2" y="912.6"/>
      <point x="739.6" y="692.0"/>
      <point x="786.2" y="626.0" type="curve" smooth="yes"/>
      <point x="812.2" y="589.2"/>
      <point x="843.6" y="584.2"/>
      <point x="874.8" y="607.2" type="curve" smooth="yes"/>
      <point x="907.2" y="631.6"/>
      <point x="910.4" y="664.4"/>
      <point x="884.4" y="699.4" type="curve" smooth="yes"/>
      <point x="838.4" y="765.2"/>
      <point x="663.8" y="934.2"/>
      <point x="592.2" y="1034.4" type="curve"/>
    </contour>
    <contour>
      <point x="573.8" y="1040.0" type="curve"/>
      <point x="583.6" y="1005.6" type="line"/>
      <point x="698.4" y="1044.6"/>
      <point x="937.6" y="1074.2"/>
      <point x="1013.6" y="1099.0" type="curve" smooth="yes"/>
      <point x="1054.8" y="1114.0"/>
      <point x="1069.6" y="1143.4"/>
      <point x="1058.0" y="1179.8" type="curve" smooth="yes"/>
      <point x="1045.8" y="1220.0"/>
      <point x="1017.0" y="1233.8"/>
      <point x="975.8" y="1218.8" type="curve" smooth="yes"/>
      <point x="900.0" y="1193.8"/>
      <point x="687.2" y="1078.2"/>
    </contour>
  </outline>
</glyph>
<glyph name="comma" format="2">
  <advance width="327.4"/>
  <unicode hex="002C"/>
  <outline>
    <contour>
      <point x="164.8" y="-2.0" type="curve" smooth="yes"/>
      <point x="177.6" y="-2.0" type="line" smooth="yes"/>
      <point x="200.34074074074073" y="-2.0"/>
      <point x="214.0" y="-12.6"/>
      <point x="214.0" y="-35.6" type="curve" smooth="yes"/>
      <point x="214.0" y="-139.8"/>
      <point x="165.0" y="-224.0"/>
      <point x="83.6" y="-256.6" type="curve" smooth="yes"/>
      <point x="55.4" y="-267.2"/>
      <point x="44.0" y="-287.8"/>
      <point x="52.0" y="-307.0" type="curve" smooth="yes"/>
      <point x="60.4" y="-326.8"/>
      <point x="78.0" y="-331.0"/>
      <point x="108.8" y="-319.6" type="curve" smooth="yes"/>
      <point x="224.6" y="-271.4"/>
      <point x="287.6" y="-176.6"/>
      <point x="287.6" y="15.399999999999991" type="curve" smooth="yes"/>
      <point x="287.6" y="135.79999999999998"/>
      <point x="235.15443037974683" y="184.2"/>
      <point x="169.8" y="184.2" type="curve" smooth="yes"/>
      <point x="117.4" y="184.2"/>
      <point x="79.0" y="142.6"/>
      <point x="79.0" y="86.0" type="curve" smooth="yes"/>
      <point x="79.0" y="33.599999999999994"/>
      <point x="105.8" y="-2.0"/>
    </contour>
  </outline>
</glyph>
<glyph name="hyphen" format="2">
  <advance width="498.4"/>
  <unicode hex="002D"/>
  <outline>
    <contour>
      <point x="437.0" y="568.4" type="curve" smooth="yes"/>
      <point x="86.19999999999999" y="568.4" type="line" smooth="yes"/>
      <point x="63.599999999999994" y="568.4"/>
      <point x="53.199999999999996" y="564.8"/>
      <point x="45.8" y="542.2" type="curve" smooth="yes"/>
      <point x="34.8" y="508.6" type="line" smooth="yes"/>
      <point x="28.8" y="489.8"/>
      <point x="34.2" y="476.2"/>
      <point x="60.599999999999994" y="476.2" type="curve" smooth="yes"/>
      <point x="411.4" y="476.2" type="line" smooth="yes"/>
      <point x="434.8" y="476.2"/>
      <point x="446.2" y="480.6"/>
      <point x="452.6" y="501.6" type="curve" smooth="yes"/>
      <point x="462.79999999999995" y="536.0" type="line" smooth="yes"/>
      <point x="468.79999999999995" y="554.8"/>
      <point x="463.4" y="568.4"/>
    </contour>
  </outline>
</glyph>
<glyph name="period" format="2">
  <advance width="316.0"/>
  <unicode hex="002E"/>
  <outline>
    <contour>
      <point x="158.6" y="-12.399999999999999" type="curve" smooth="yes"/>
      <point x="212.0" y="-12.399999999999999"/>
      <point x="251.59999999999997" y="30.799999999999997"/>
      <point x="251.59999999999997" y="82.39999999999999" type="curve" smooth="yes"/>
      <point x="251.59999999999997" y="135.79999999999998"/>
      <point x="212.0" y="177.39999999999998"/>
      <point x="158.6" y="177.39999999999998" type="curve" smooth="yes"/>
      <point x="107.19999999999999" y="177.39999999999998"/>
      <point x="65.2" y="135.79999999999998"/>
      <point x="65.2" y="82.39999999999999" type="curve" smooth="yes"/>
      <point x="65.2" y="30.799999999999997"/>
      <point x="107.19999999999999" y="-12.399999999999999"/>
    </contour>
  </outline>
</glyph>
<glyph name="slash" format="2">
  <advance width="714.0"/>
  <unicode hex="002F"/>
  <outline>
    <contour>
      <point x="399.2" y="593.4" type="curve" smooth="yes"/>
      <point x="455.3910396070497" y="788.0800531947864"/>
      <point x="580.3365530865509" y="1219.2436920119292"/>
      <point x="633.0" y="1404.2" type="curve" smooth="yes"/>
      <point x="643.2089604146626" y="1432.824641140322"/>
      <point x="632.6960074872557" y="1459.6967590524741"/>
      <point x="607.8" y="1469.6" type="curve" smooth="yes"/>
      <point x="579.5352030740786" y="1481.0056369241606"/>
      <point x="558.8747671840165" y="1466.4243015520494"/>
      <point x="545.6" y="1426.8" type="curve" smooth="yes"/>
      <point x="487.35234781696306" y="1216.5479750523323"/>
      <point x="371.8093660061132" y="805.885777845842"/>
      <point x="318.2" y="626.2" type="curve" smooth="yes"/>
      <point x="264.0251413358799" y="441.54059922979354"/>
      <point x="143.47012229654172" y="30.32477333230014"/>
      <point x="81.6" y="-181.4" type="curve" smooth="yes"/>
      <point x="73.10670326694066" y="-212.26648366529676"/>
      <point x="82.92748874581912" y="-240.8646210610367"/>
      <point x="106.8" y="-249.4" type="curve" smooth="yes"/>
      <point x="138.15186273749586" y="-260.7906705854985"/>
      <point x="157.9868925291457" y="-248.01449597566406"/>
      <point x="169.6" y="-212.0" type="curve" smooth="yes"/>
      <point x="222.25660782875775" y="-29.868918305857427"/>
      <point x="342.5743217984835" y="398.37837666503907"/>
    </contour>
  </outline>
</glyph>
<glyph name="zero" format="2">
  <advance width="1133.4"/>
  <unicode hex="0030"/>
  <outline>
    <contour>
      <point x="577.0" y="1417.6" type="curve" smooth="yes"/>
      <point x="275.0" y="1417.6"/>
      <point x="80.2" y="1147.8"/>
      <point x="80.2" y="702.2" type="curve" smooth="yes"/>
      <point x="80.2" y="252.4"/>
      <point x="257.4" y="-19.2"/>
      <point x="565.8" y="-19.2" type="curve" smooth="yes"/>
      <point x="859.0" y="-19.2"/>
      <point x="1053.8" y="254.6"/>
      <point x="1053.8" y="703.4" type="curve" smooth="yes"/>
      <point x="1053.8" y="1148.4"/>
      <point x="881.4" y="1417.6"/>
    </contour>
    <contour>
      <point x="917.8" y="690.6" type="curve" smooth="yes"/>
      <point x="917.8" y="296.36184971098265"/>
      <point x="771.7095607235142" y="60.8"/>
      <point x="571.6" y="60.8" type="curve" smooth="yes"/>
      <point x="350.81259445843824" y="60.8"/>
      <point x="216.2" y="268.53356282271943"/>
      <point x="216.2" y="715.0" type="curve" smooth="yes"/>
      <point x="216.2" y="1101.2381502890173"/>
      <point x="360.79999999999995" y="1337.6"/>
      <point x="571.2" y="1337.6" type="curve" smooth="yes"/>
      <point x="783.8" y="1337.6"/>
      <point x="917.8" y="1127.4664371772806"/>
    </contour>
  </outline>
</glyph>
<glyph name="one" format="2">
  <advance width="686.8"/>
  <unicode hex="0031"/>
  <outline>
    <contour>
      <point x="96.6" y="1252.4" type="line" smooth="yes"/>
      <point x="62.8" y="1252.4"/>
      <point x="45.8" y="1266.2"/>
      <point x="45.8" y="1292.2" type="curve" smooth="yes"/>
      <point x="45.8" y="1317.8"/>
      <point x="64.0" y="1337.2"/>
      <point x="96.6" y="1337.2" type="curve" smooth="yes"/>
      <point x="234.6" y="1337.2" type="line" smooth="yes"/>
      <point x="280.4" y="1337.2"/>
      <point x="303.6" y="1352.0"/>
      <point x="330.4" y="1401.0" type="curve" smooth="yes"/>
      <point x="345.2" y="1426.8"/>
      <point x="360.2" y="1439.4"/>
      <point x="379.4" y="1439.4" type="curve" smooth="yes"/>
      <point x="405.6" y="1439.4"/>
      <point x="422.0" y="1422.6"/>
      <point x="422.0" y="1383.2" type="curve" smooth="yes"/>
      <point x="422.0" y="151.6" type="line" smooth="yes"/>
      <point x="422.0" y="115.0"/>
      <point x="434.8" y="92.6"/>
      <point x="470.0" y="88.79999999999998" type="curve" smooth="yes"/>
      <point x="607.8" y="76.6" type="line" smooth="yes"/>
      <point x="634.6" y="72.39999999999999"/>
      <point x="650.2" y="57.8"/>
      <point x="650.2" y="36.4" type="curve" smooth="yes"/>
      <point x="650.2" y="13.0"/>
      <point x="635.4" y="0.0"/>
      <point x="606.4" y="0.0" type="curve" smooth="yes"/>
      <point x="88.19999999999999" y="0.0" type="line" smooth="yes"/>
      <point x="59.2" y="0.0"/>
      <point x="43.6" y="13.0"/>
      <point x="43.6" y="36.4" type="curve" smooth="yes"/>
      <point x="43.6" y="57.8"/>
      <point x="59.8" y="73.39999999999999"/>
      <point x="86.8" y="76.8" type="curve" smooth="yes"/>
      <point x="236.4" y="88.79999999999998" type="line" smooth="yes"/>
      <point x="271.4" y="92.0"/>
      <point x="291.6" y="115.0"/>
      <point x="291.6" y="152.6" type="curve" smooth="yes"/>
      <point x="291.6" y="1197.0" type="line" smooth="yes"/>
      <point x="291.6" y="1240.8"/>
      <point x="281.2" y="1252.4"/>
      <point x="250.60000000000002" y="1252.4" type="curve" smooth="yes"/>
    </contour>
  </outline>
</glyph>
<glyph name="two" format="2">
  <advance width="1006.4"/>
  <unicode hex="0032"/>
  <outline>
    <contour>
      <point x="172.0" y="164.0" type="line"/>
      <point x="537.0" y="485.0" type="line" smooth="yes"/>
      <point x="816.4392240235132" y="716.589834708844"/>
      <point x="900.2" y="854.2129729729729"/>
      <point x="900.2" y="1040.8" type="curve" smooth="yes"/>
      <point x="900.2" y="1258.2"/>
      <point x="771.827027027027" y="1417.6"/>
      <point x="514.0" y="1417.6" type="curve" smooth="yes"/>
      <point x="242.8" y="1417.6"/>
      <point x="98.4" y="1246.0"/>
      <point x="98.4" y="1057.8" type="curve" smooth="yes"/>
      <point x="98.4" y="993.2"/>
      <point x="126.2" y="957.8"/>
      <point x="170.0" y="957.8" type="curve" smooth="yes"/>
      <point x="213.46666666666664" y="957.8"/>
      <point x="243.2" y="986.8"/>
      <point x="243.2" y="1041.8" type="curve" smooth="yes"/>
      <point x="243.2" y="1105.4" type="line" smooth="yes"/>
      <point x="243.2" y="1234.8"/>
      <point x="327.0" y="1343.0"/>
      <point x="504.4" y="1343.0" type="curve" smooth="yes"/>
      <point x="668.7986754966887" y="1343.0"/>
      <point x="766.0" y="1232.7846153846153"/>
      <point x="766.0" y="1031.0" type="curve" smooth="yes"/>
      <point x="766.0" y="858.4"/>
      <point x="688.1687527468737" y="719.5743383569301"/>
      <point x="452.8" y="509.2" type="curve" smooth="yes"/>
      <point x="133.0" y="213.39999999999998" type="line"/>
    </contour>
    <contour>
      <point x="75.4" y="80.39999999999999" type="curve" smooth="yes"/>
      <point x="75.4" y="19.12676056338028"/>
      <point x="105.4" y="-12.8"/>
      <point x="145.6" y="-12.8" type="curve" smooth="yes"/>
      <point x="190.6" y="-12.8"/>
      <point x="214.44133763506778" y="15.036841296650977"/>
      <point x="223.6" y="71.6" type="curve" smooth="yes"/>
      <point x="232.625598065257" y="146.81712212775363"/>
      <point x="252.39999999999998" y="191.0"/>
      <point x="309.79999999999995" y="191.0" type="curve" smooth="yes"/>
      <point x="358.531843575419" y="191.0"/>
      <point x="399.87390106185694" y="166.20753822152284"/>
      <point x="471.2" y="106.39999999999999" type="curve" smooth="yes"/>
      <point x="558.9268005263148" y="22.763983286789063"/>
      <point x="625.2" y="-14.399999999999999"/>
      <point x="723.2" y="-14.399999999999999" type="curve" smooth="yes"/>
      <point x="849.0" y="-14.399999999999999"/>
      <point x="922.0316304891785" y="62.38886815563011"/>
      <point x="946.2" y="245.6" type="curve" smooth="yes"/>
      <point x="950.2" y="283.6"/>
      <point x="942.0" y="299.79999999999995"/>
      <point x="924.0" y="303.0" type="curve" smooth="yes"/>
      <point x="906.6" y="306.2"/>
      <point x="891.2" y="296.2"/>
      <point x="882.2" y="267.6" type="curve" smooth="yes"/>
      <point x="854.6360873534902" y="165.56806188015088"/>
      <point x="816.0" y="109.59999999999997"/>
      <point x="723.8" y="109.59999999999997" type="curve" smooth="yes"/>
      <point x="579.3815028901734" y="109.59999999999997"/>
      <point x="443.16878612716766" y="273.6"/>
      <point x="294.8" y="273.6" type="curve" smooth="yes"/>
      <point x="151.8" y="273.6"/>
      <point x="75.4" y="182.79999999999998"/>
    </contour>
  </outline>
</glyph>
<glyph name="three" format="2">
  <advance width="935.0"/>
  <unicode hex="0033"/>
  <outline>
    <contour>
      <point x="378.6" y="732.4" type="line"/>
      <point x="827.0" y="1280.6" type="line" smooth="yes"/>
      <point x="858.304740918587" y="1315.7539867154642"/>
      <point x="875.2" y="1338.0"/>
      <point x="875.2" y="1364.0" type="curve" smooth="yes"/>
      <point x="875.2" y="1384.4"/>
      <point x="860.4" y="1400.0"/>
      <point x="833.2" y="1400.0" type="curve" smooth="yes"/>
      <point x="187.2" y="1400.0" type="line" smooth="yes"/>
      <point x="139.2" y="1400.0"/>
      <point x="117.05605416908142" y="1375.1473325946367"/>
      <point x="112.0" y="1330.4" type="curve" smooth="yes"/>
      <point x="89.0" y="1130.0" type="line" smooth="yes"/>
      <point x="84.6" y="1088.6"/>
      <point x="99.8" y="1072.2"/>
      <point x="122.2" y="1071.4" type="curve" smooth="yes"/>
      <point x="144.6" y="1070.6"/>
      <point x="157.0" y="1086.8"/>
      <point x="162.6" y="1113.0" type="curve" smooth="yes"/>
      <point x="189.39999999999998" y="1237.0" type="line" smooth="yes"/>
      <point x="197.27952942625262" y="1274.3417412460126"/>
      <point x="216.2" y="1290.0"/>
      <point x="244.79999999999998" y="1290.0" type="curve" smooth="yes"/>
      <point x="777.8" y="1290.0" type="line"/>
      <point x="772.8" y="1331.4" type="line"/>
      <point x="337.4" y="801.4" type="line" smooth="yes"/>
      <point x="314.2861980615261" y="774.5500601894206"/>
      <point x="296.2" y="754.4"/>
      <point x="296.2" y="728.6" type="curve" smooth="yes"/>
      <point x="296.2" y="703.4"/>
      <point x="313.2" y="685.4"/>
      <point x="346.8" y="685.4" type="curve" smooth="yes"/>
      <point x="399.2" y="685.4" type="line" smooth="yes"/>
      <point x="646.3713527851459" y="685.4"/>
      <point x="735.6" y="577.3078615812874"/>
      <point x="735.6" y="369.8" type="curve" smooth="yes"/>
      <point x="735.6" y="167.38695505549083"/>
      <point x="606.6888888888889" y="59.599999999999994"/>
      <point x="441.4" y="59.599999999999994" type="curve" smooth="yes"/>
      <point x="286.0" y="59.599999999999994"/>
      <point x="201.6" y="145.12521739130432"/>
      <point x="201.6" y="264.6" type="curve" smooth="yes"/>
      <point x="201.6" y="303.6" type="line" smooth="yes"/>
      <point x="201.6" y="355.8"/>
      <point x="180.9333333333333" y="385.2"/>
      <point x="138.6" y="385.2" type="curve" smooth="yes"/>
      <point x="91.57959183673469" y="385.2"/>
      <point x="59.400000000000006" y="350.9647058823529"/>
      <point x="59.400000000000006" y="292.0" type="curve" smooth="yes"/>
      <point x="59.400000000000006" y="113.0"/>
      <point x="188.0" y="-19.2"/>
      <point x="441.0" y="-19.2" type="curve" smooth="yes"/>
      <point x="698.2" y="-19.2"/>
      <point x="868.8" y="146.8858071309684"/>
      <point x="868.8" y="387.2" type="curve" smooth="yes"/>
      <point x="868.8" y="612.5843962900864"/>
      <point x="724.672911392405" y="766.2"/>
      <point x="448.6" y="766.2" type="curve" smooth="yes"/>
      <point x="437.0" y="766.2"/>
      <point x="382.8316742401579" y="764.3683257598422"/>
      <point x="373.4" y="761.6" type="curve"/>
    </contour>
  </outline>
</glyph>
<glyph name="four" format="2">
  <advance width="964.2"/>
  <unicode hex="0034"/>
  <outline>
    <contour>
      <point x="589.8" y="815.2" type="curve" smooth="yes"/>
      <point x="589.8" y="152.6" type="line" smooth="yes"/>
      <point x="589.8" y="115.0"/>
      <point x="573.0" y="93.19999999999999"/>
      <point x="542.6" y="88.79999999999998" type="curve" smooth="yes"/>
      <point x="442.2" y="76.8" type="line" smooth="yes"/>
      <point x="415.4" y="72.0"/>
      <point x="399.8" y="57.8"/>
      <point x="399.8" y="36.4" type="curve" smooth="yes"/>
      <point x="399.8" y="12.799999999999997"/>
      <point x="414.8" y="0.0"/>
      <point x="443.6" y="0.0" type="curve" smooth="yes"/>
      <point x="866.2" y="0.0" type="line" smooth="yes"/>
      <point x="896.2" y="0.0"/>
      <point x="910.8" y="13.0"/>
      <point x="910.8" y="36.4" type="curve" smooth="yes"/>
      <point x="910.8" y="56.8"/>
      <point x="896.2" y="70.0"/>
      <point x="868.4" y="76.6" type="curve" smooth="yes"/>
      <point x="771.0" y="88.79999999999998" type="line" smooth="yes"/>
      <point x="740.4" y="94.19999999999999"/>
      <point x="723.8" y="115.79999999999998"/>
      <point x="723.8" y="152.6" type="curve" smooth="yes"/>
      <point x="723.8" y="935.6" type="line" smooth="yes"/>
      <point x="723.8" y="957.0"/>
      <point x="713.4" y="967.2"/>
      <point x="700.8" y="967.2" type="curve" smooth="yes"/>
      <point x="687.2" y="967.2"/>
      <point x="680.4" y="961.2"/>
      <point x="664.4" y="943.4" type="curve" smooth="yes"/>
      <point x="610.4" y="891.0" type="line" smooth="yes"/>
      <point x="594.6" y="872.6"/>
      <point x="589.8" y="850.8"/>
    </contour>
    <contour>
      <point x="509.0" y="1076.6" type="curve" smooth="yes"/>
      <point x="52.4" y="479.4" type="line" smooth="yes"/>
      <point x="27.2" y="450.4"/>
      <point x="16.4" y="432.8"/>
      <point x="16.4" y="409.2" type="curve" smooth="yes"/>
      <point x="16.4" y="382.0"/>
      <point x="35.0" y="363.2"/>
      <point x="70.0" y="363.2" type="curve" smooth="yes"/>
      <point x="890.8" y="362.4" type="line" smooth="yes"/>
      <point x="920.2" y="362.4"/>
      <point x="933.4" y="377.46122448979594"/>
      <point x="933.4" y="403.0" type="curve" smooth="yes"/>
      <point x="933.4" y="429.1947826086956"/>
      <point x="917.2" y="441.0"/>
      <point x="891.8" y="441.0" type="curve" smooth="yes"/>
      <point x="78.39999999999999" y="441.0" type="line"/>
      <point x="91.0" y="407.4" type="line"/>
      <point x="609.6" y="1070.6" type="line" smooth="yes"/>
      <point x="684.4" y="1159.2"/>
      <point x="709.6" y="1222.6"/>
      <point x="709.6" y="1301.2" type="curve" smooth="yes"/>
      <point x="709.6" y="1374.6"/>
      <point x="668.1754646840149" y="1418.6"/>
      <point x="608.8" y="1418.6" type="curve" smooth="yes"/>
      <point x="549.3486590038315" y="1418.6"/>
      <point x="514.0" y="1375.2"/>
      <point x="514.0" y="1319.2" type="curve" smooth="yes"/>
      <point x="514.0" y="1258.0"/>
      <point x="553.4" y="1239.8"/>
      <point x="553.4" y="1185.4" type="curve" smooth="yes"/>
      <point x="553.4" y="1148.4"/>
      <point x="540.2" y="1111.4"/>
    </contour>
  </outline>
</glyph>
<glyph name="five" format="2">
  <advance width="963.8"/>
  <unicode hex="0035"/>
  <outline>
    <contour>
      <point x="92.6" y="272.6" type="curve" smooth="yes"/>
      <point x="92.6" y="97.371875"/>
      <point x="225.0" y="-19.2"/>
      <point x="469.6" y="-19.2" type="curve" smooth="yes"/>
      <point x="726.0" y="-19.2"/>
      <point x="893.6" y="156.04069264069264"/>
      <point x="893.6" y="427.4" type="curve" smooth="yes"/>
      <point x="893.6" y="674.4063348416289"/>
      <point x="749.4" y="850.4"/>
      <point x="519.0" y="850.4" type="curve" smooth="yes"/>
      <point x="373.8" y="850.4"/>
      <point x="252.2" y="772.6"/>
      <point x="188.8" y="660.0" type="curve"/>
      <point x="217.4" y="653.2" type="line"/>
      <point x="217.4" y="1339.6" type="line"/>
      <point x="186.4" y="1303.0" type="line"/>
      <point x="279.4017986684102" y="1223.0935617645764"/>
      <point x="419.6413793103448" y="1193.6"/>
      <point x="573.6" y="1193.6" type="curve" smooth="yes"/>
      <point x="729.5517730496454" y="1193.6"/>
      <point x="860.2023971050136" y="1254.8195901340764"/>
      <point x="889.2" y="1363.8" type="curve" smooth="yes"/>
      <point x="900.0" y="1404.4"/>
      <point x="892.2" y="1420.2"/>
      <point x="880.2" y="1423.4" type="curve" smooth="yes"/>
      <point x="865.8" y="1429.8"/>
      <point x="848.4" y="1423.4"/>
      <point x="827.8" y="1395.0" type="curve" smooth="yes"/>
      <point x="785.8" y="1334.2"/>
      <point x="700.0" y="1309.2"/>
      <point x="583.2" y="1309.2" type="curve" smooth="yes"/>
      <point x="440.6" y="1309.2"/>
      <point x="353.3066567054676" y="1335.3259286929256"/>
      <point x="256.79999999999995" y="1400.0" type="curve" smooth="yes"/>
      <point x="232.2" y="1414.6"/>
      <point x="215.2" y="1420.8"/>
      <point x="195.0" y="1420.8" type="curve" smooth="yes"/>
      <point x="156.0" y="1420.8"/>
      <point x="138.2" y="1394.0"/>
      <point x="138.2" y="1350.4" type="curve" smooth="yes"/>
      <point x="138.2" y="603.6" type="line" smooth="yes"/>
      <point x="138.2" y="573.6"/>
      <point x="151.0" y="555.6"/>
      <point x="174.2" y="555.6" type="curve" smooth="yes"/>
      <point x="196.0" y="555.6"/>
      <point x="208.39999999999998" y="572.6"/>
      <point x="229.6" y="598.6" type="curve" smooth="yes"/>
      <point x="304.8" y="713.0"/>
      <point x="390.4" y="760.8"/>
      <point x="488.4" y="760.8" type="curve" smooth="yes"/>
      <point x="648.4" y="760.8"/>
      <point x="759.8" y="645.93046875"/>
      <point x="759.8" y="421.4" type="curve" smooth="yes"/>
      <point x="759.8" y="176.98640776699028"/>
      <point x="639.0" y="59.599999999999994"/>
      <point x="480.2" y="59.599999999999994" type="curve" smooth="yes"/>
      <point x="323.0" y="59.599999999999994"/>
      <point x="236.6" y="139.8"/>
      <point x="236.6" y="258.0" type="curve" smooth="yes"/>
      <point x="236.6" y="304.6" type="line" smooth="yes"/>
      <point x="236.6" y="354.22978723404253"/>
      <point x="214.6" y="383.4"/>
      <point x="170.0" y="383.4" type="curve" smooth="yes"/>
      <point x="123.4" y="383.4"/>
      <point x="92.6" y="342.3837320574163"/>
    </contour>
  </outline>
</glyph>
<glyph name="six" format="2">
  <advance width="1045.8"/>
  <unicode hex="0036"/>
  <outline>
    <contour>
      <point x="608.4" y="1418.4" type="curve" smooth="yes"/>
      <point x="299.0" y="1418.4"/>
      <point x="84.2" y="1187.015306122449"/>
      <point x="85.0" y="655.8" type="curve" smooth="yes"/>
      <point x="85.80000000000001" y="226.09971181556196"/>
      <point x="254.2" y="-14.399999999999999"/>
      <point x="546.6" y="-14.399999999999999" type="curve" smooth="yes"/>
      <point x="802.2" y="-14.399999999999999"/>
      <point x="971.0" y="154.6"/>
      <point x="971.0" y="424.2" type="curve" smooth="yes"/>
      <point x="971.0" y="680.0958435207824"/>
      <point x="831.0" y="856.0"/>
      <point x="589.2" y="856.0" type="curve" smooth="yes"/>
      <point x="362.0" y="856.0"/>
      <point x="183.6" y="672.6"/>
      <point x="178.2" y="453.0" type="curve"/>
      <point x="224.2" y="423.2" type="line"/>
      <point x="227.6" y="602.6"/>
      <point x="373.4" y="767.0"/>
      <point x="549.4" y="767.0" type="curve" smooth="yes"/>
      <point x="726.6" y="767.0"/>
      <point x="840.2" y="642.6576576576576"/>
      <point x="840.2" y="407.2" type="curve" smooth="yes"/>
      <point x="840.2" y="196.47727272727272"/>
      <point x="728.4" y="65.8"/>
      <point x="555.0" y="65.8" type="curve" smooth="yes"/>
      <point x="357.0" y="65.8"/>
      <point x="222.2" y="227.4"/>
      <point x="221.0" y="661.4" type="curve" smooth="yes"/>
      <point x="221.39999999999998" y="1172.8"/>
      <point x="406.6" y="1338.2"/>
      <point x="592.6" y="1338.2" type="curve" smooth="yes"/>
      <point x="725.3538461538462" y="1338.2"/>
      <point x="785.0" y="1268.4"/>
      <point x="785.0" y="1157.4" type="curve" smooth="yes"/>
      <point x="785.0" y="1121.6" type="line" smooth="yes"/>
      <point x="785.0" y="1066.4"/>
      <point x="810.339534883721" y="1033.0"/>
      <point x="862.8" y="1033.0" type="curve" smooth="yes"/>
      <point x="914.2" y="1033.0"/>
      <point x="943.6" y="1070.0316326530613"/>
      <point x="943.6" y="1137.2" type="curve" smooth="yes"/>
      <point x="943.6" y="1289.8"/>
      <point x="817.7134328358209" y="1418.4"/>
    </contour>
  </outline>
</glyph>
<glyph name="seven" format="2">
  <advance width="867.6"/>
  <unicode hex="0037"/>
  <outline>
    <contour>
      <point x="748.8" y="1292.6" type="line"/>
      <point x="512.0" y="875.6" type="line" smooth="yes"/>
      <point x="341.8405358818123" y="596.0472174340848"/>
      <point x="261.6" y="413.6"/>
      <point x="261.6" y="213.6" type="curve" smooth="yes"/>
      <point x="261.6" y="67.2"/>
      <point x="303.6" y="-10.399999999999999"/>
      <point x="373.0" y="-10.399999999999999" type="curve" smooth="yes"/>
      <point x="436.59999999999997" y="-10.399999999999999"/>
      <point x="469.2" y="27.799999999999997"/>
      <point x="469.2" y="89.19999999999999" type="curve" smooth="yes"/>
      <point x="469.2" y="156.79999999999998"/>
      <point x="398.2" y="217.2"/>
      <point x="398.2" y="311.2" type="curve" smooth="yes"/>
      <point x="398.2" y="456.79999999999995"/>
      <point x="462.4" y="622.0"/>
      <point x="608.0" y="876.0" type="curve" smooth="yes"/>
      <point x="828.0" y="1273.2" type="line" smooth="yes"/>
      <point x="850.0" y="1305.2"/>
      <point x="860.2" y="1325.6"/>
      <point x="860.2" y="1347.4" type="curve" smooth="yes"/>
      <point x="860.2" y="1380.6"/>
      <point x="839.2" y="1400.0"/>
      <point x="799.4" y="1400.0" type="curve" smooth="yes"/>
      <point x="128.8" y="1400.0" type="line" smooth="yes"/>
      <point x="82.8" y="1400.0"/>
      <point x="62.2" y="1375.0"/>
      <point x="57.4" y="1330.4" type="curve" smooth="yes"/>
      <point x="34.8" y="1124.6" type="line" smooth="yes"/>
      <point x="29.799999999999997" y="1081.8"/>
      <point x="44.599999999999994" y="1065.0"/>
      <point x="67.6" y="1064.2" type="curve" smooth="yes"/>
      <point x="89.8" y="1063.4"/>
      <point x="103.4" y="1078.6"/>
      <point x="109.0" y="1105.4" type="curve" smooth="yes"/>
      <point x="135.6" y="1227.8" type="line" smooth="yes"/>
      <point x="143.6" y="1263.8"/>
      <point x="155.79999999999998" y="1280.6"/>
      <point x="190.6" y="1280.6" type="curve" smooth="yes"/>
      <point x="769.4" y="1280.6" type="line"/>
    </contour>
  </outline>
</glyph>
<glyph name="eight" format="2">
  <advance width="1005.0"/>
  <unicode hex="0038"/>
  <outline>
    <contour>
      <point x="495.2" y="-19.2" type="curve" smooth="yes"/>
      <point x="765.0" y="-19.2"/>
      <point x="929.8" y="110.8"/>
      <point x="929.8" y="326.4" type="curve" smooth="yes"/>
      <point x="929.8" y="481.27696476964763"/>
      <point x="823.5341094183201" y="603.6232414051744"/>
      <point x="548.4" y="699.2" type="curve" smooth="yes"/>
      <point x="278.89564188743407" y="793.6326539718357"/>
      <point x="210.6" y="910.704347826087"/>
      <point x="210.6" y="1047.8" type="curve" smooth="yes"/>
      <point x="210.6" y="1211.9538461538461"/>
      <point x="333.755623100304" y="1336.8"/>
      <point x="511.6" y="1336.8" type="curve" smooth="yes"/>
      <point x="693.022754491018" y="1336.8"/>
      <point x="817.8" y="1233.0253012048192"/>
      <point x="817.8" y="1038.2" type="curve" smooth="yes"/>
      <point x="817.8" y="884.3076923076923"/>
      <point x="713.8738963859438" y="759.0806195003724"/>
      <point x="557.0" y="666.0" type="curve"/>
      <point x="579.6" y="632.4" type="line"/>
      <point x="807.9281270049408" y="706.4343083752966"/>
      <point x="945.0" y="853.8"/>
      <point x="945.0" y="1047.2" type="curve" smooth="yes"/>
      <point x="945.0" y="1243.6"/>
      <point x="802.6025974025973" y="1417.6"/>
      <point x="527.0" y="1417.6" type="curve" smooth="yes"/>
      <point x="257.0081632653061" y="1417.6"/>
      <point x="82.8" y="1247.8"/>
      <point x="82.8" y="1016.4" type="curve" smooth="yes"/>
      <point x="82.8" y="828.6"/>
      <point x="192.57227736576914" y="711.8853959878365"/>
      <point x="473.6" y="611.8" type="curve" smooth="yes"/>
      <point x="724.8908441793272" y="521.6250468907499"/>
      <point x="794.0" y="440.25906418422346"/>
      <point x="794.0" y="308.4" type="curve" smooth="yes"/>
      <point x="794.0" y="154.14999999999998"/>
      <point x="684.6861736334406" y="63.8"/>
      <point x="514.0" y="63.8" type="curve" smooth="yes"/>
      <point x="338.44229607250753" y="63.8"/>
      <point x="224.2" y="156.9606557377049"/>
      <point x="224.2" y="322.6" type="curve" smooth="yes"/>
      <point x="224.2" y="432.83263311326414"/>
      <point x="294.4053358966379" y="558.4824729764416"/>
      <point x="450.6" y="631.2" type="curve"/>
      <point x="436.0" y="666.2" type="line"/>
      <point x="221.99979714129947" y="615.1999982205377"/>
      <point x="94.4" y="464.39108280254777"/>
      <point x="94.4" y="299.4" type="curve"/>
      <point x="94.4" y="107.6"/>
      <point x="233.2" y="-19.2"/>
    </contour>
  </outline>
</glyph>
<glyph name="nine" format="2">
  <advance width="1029.8"/>
  <unicode hex="0039"/>
  <outline>
    <contour>
      <point x="454.6" y="-18.4" type="curve" smooth="yes"/>
      <point x="757.6" y="-18.4"/>
      <point x="941.2" y="230.6"/>
      <point x="951.6" y="744.2" type="curve" smooth="yes"/>
      <point x="959.6" y="1176.4"/>
      <point x="788.0" y="1418.4"/>
      <point x="493.2" y="1418.4" type="curve" smooth="yes"/>
      <point x="240.8" y="1418.4"/>
      <point x="66.4" y="1249.0"/>
      <point x="66.4" y="976.8" type="curve" smooth="yes"/>
      <point x="66.4" y="723.9029702970297"/>
      <point x="208.0" y="550.8"/>
      <point x="449.8" y="550.8" type="curve" smooth="yes"/>
      <point x="675.4" y="550.8"/>
      <point x="853.0" y="740.6"/>
      <point x="858.4" y="966.6" type="curve"/>
      <point x="813.2" y="997.2" type="line"/>
      <point x="809.0" y="813.0"/>
      <point x="664.0" y="643.8"/>
      <point x="492.0" y="643.8" type="curve" smooth="yes"/>
      <point x="314.0" y="643.8"/>
      <point x="197.2" y="764.7456221198156"/>
      <point x="197.2" y="993.8" type="curve" smooth="yes"/>
      <point x="197.2" y="1203.9209302325582"/>
      <point x="315.4" y="1334.2"/>
      <point x="484.8" y="1334.2" type="curve" smooth="yes"/>
      <point x="686.8" y="1334.2"/>
      <point x="822.4" y="1176.8"/>
      <point x="815.6" y="729.8" type="curve" smooth="yes"/>
      <point x="807.2" y="234.4"/>
      <point x="651.6" y="64.19999999999999"/>
      <point x="468.8" y="64.19999999999999" type="curve" smooth="yes"/>
      <point x="338.2" y="64.19999999999999"/>
      <point x="255.6" y="129.2"/>
      <point x="255.6" y="229.8" type="curve" smooth="yes"/>
      <point x="255.6" y="273.2" type="line" smooth="yes"/>
      <point x="255.6" y="334.0"/>
      <point x="230.79999999999998" y="369.79999999999995"/>
      <point x="179.39999999999998" y="369.79999999999995" type="curve" smooth="yes"/>
      <point x="126.4" y="369.79999999999995"/>
      <point x="97.0" y="329.23849765258217"/>
      <point x="97.0" y="255.8" type="curve" smooth="yes"/>
      <point x="97.0" y="93.76168831168832"/>
      <point x="240.4" y="-18.4"/>
    </contour>
  </outline>
</glyph>
<glyph name="less" format="2">
  <advance width="868.6"/>
  <unicode hex="003C"/>
  <outline>
    <contour>
      <point x="144.0" y="691.0" type="line"/>
      <point x="727.2" y="334.8" type="line" smooth="yes"/>
      <point x="756.6" y="316.0"/>
      <point x="771.8" y="294.0"/>
      <point x="771.8" y="274.8" type="curve" smooth="yes"/>
      <point x="772.0" y="251.6"/>
      <point x="761.2" y="235.0"/>
      <point x="735.2" y="235.0" type="curve" smooth="yes"/>
      <point x="714.0" y="235.0"/>
      <point x="693.8" y="245.4"/>
      <point x="663.8" y="264.4" type="curve" smooth="yes"/>
      <point x="94.0" y="607.6" type="line" smooth="yes"/>
      <point x="58.4" y="629.8"/>
      <point x="42.8" y="653.8"/>
      <point x="42.8" y="684.0" type="curve" smooth="yes"/>
      <point x="42.8" y="715.8"/>
      <point x="59.2" y="739.0"/>
      <point x="94.0" y="760.4" type="curve" smooth="yes"/>
      <point x="663.8" y="1103.6" type="line" smooth="yes"/>
      <point x="693.8" y="1122.6"/>
      <point x="714.0" y="1133.0"/>
      <point x="735.2" y="1133.0" type="curve" smooth="yes"/>
      <point x="761.2" y="1133.0"/>
      <point x="772.0" y="1116.4"/>
      <point x="771.8" y="1093.2" type="curve" smooth="yes"/>
      <point x="771.8" y="1074.0"/>
      <point x="756.6" y="1052.0"/>
      <point x="727.2" y="1033.2" type="curve" smooth="yes"/>
      <point x="144.0" y="677.0" type="line"/>
    </contour>
  </outline>
</glyph>
<glyph name="question" format="2">
  <advance width="864.8"/>
  <unicode hex="003F"/>
  <outline>
    <contour>
      <point x="321.4" y="605.4" type="line" smooth="yes"/>
      <point x="317.4" y="641.8"/>
      <point x="331.4" y="668.2"/>
      <point x="363.2" y="687.6" type="curve" smooth="yes"/>
      <point x="428.2" y="726.8" type="line" smooth="yes"/>
      <point x="572.688892730352" y="812.7233853206527"/>
      <point x="654.2" y="933.932970027248"/>
      <point x="654.2" y="1101.8" type="curve" smooth="yes"/>
      <point x="654.2" y="1279.375"/>
      <point x="560.7175097276265" y="1371.0"/>
      <point x="439.0" y="1371.0" type="curve" smooth="yes"/>
      <point x="300.2" y="1371.0"/>
      <point x="234.6" y="1298.8845814977972"/>
      <point x="234.6" y="1190.6" type="curve" smooth="yes"/>
      <point x="234.6" y="1140.8" type="line" smooth="yes"/>
      <point x="234.6" y="1083.3648854961832"/>
      <point x="209.0" y="1051.6"/>
      <point x="160.8" y="1050.8" type="curve" smooth="yes"/>
      <point x="115.4" y="1050.0"/>
      <point x="85.0" y="1084.773469387755"/>
      <point x="85.0" y="1140.8" type="curve" smooth="yes"/>
      <point x="85.0" y="1297.7402597402597"/>
      <point x="231.2" y="1440.6"/>
      <point x="447.2" y="1440.6" type="curve" smooth="yes"/>
      <point x="655.9418848714748" y="1440.6"/>
      <point x="796.5999999999999" y="1313.7891820648222"/>
      <point x="796.5999999999999" y="1094.0" type="curve" smooth="yes"/>
      <point x="796.5999999999999" y="892.0072471865273"/>
      <point x="687.9636611083739" y="767.2960552377523"/>
      <point x="496.2" y="669.6" type="curve" smooth="yes"/>
      <point x="452.8" y="645.4" type="line" smooth="yes"/>
      <point x="433.6083125750659" y="635.8739867537979"/>
      <point x="422.4" y="622.0"/>
      <point x="418.59999999999997" y="594.4" type="curve" smooth="yes"/>
      <point x="407.6" y="379.0" type="line" smooth="yes"/>
      <point x="400.58832229614586" y="352.43633635910123"/>
      <point x="388.4722222222222" y="342.6"/>
      <point x="367.4" y="342.6" type="curve" smooth="yes"/>
      <point x="346.737037037037" y="342.6"/>
      <point x="331.8" y="354.6"/>
      <point x="329.2" y="379.2" type="curve" smooth="yes"/>
    </contour>
    <component base="period" xOffset="208.2"/>
  </outline>
</glyph>
<glyph name="at" format="2">
  <advance width="1529.2"/>
  <unicode hex="0040"/>
  <outline>
    <contour>
      <point x="951.6" y="486.6" type="curve"/>
      <point x="960.0" y="540.6" type="line"/>
      <point x="906.4" y="560.6"/>
      <point x="840.8" y="574.2"/>
      <point x="773.0" y="574.2" type="curve" smooth="yes"/>
      <point x="578.2" y="574.2"/>
      <point x="460.2" y="472.6"/>
      <point x="460.2" y="342.0" type="curve" smooth="yes"/>
      <point x="460.2" y="209.4"/>
      <point x="561.6" y="139.0"/>
      <point x="702.8" y="139.0" type="curve" smooth="yes"/>
      <point x="809.4" y="139.0"/>
      <point x="894.8" y="181.2"/>
      <point x="975.2" y="271.0" type="curve"/>
      <point x="955.0" y="312.2" type="line"/>
      <point x="882.6" y="240.39999999999998"/>
      <point x="819.4" y="213.8"/>
      <point x="736.8" y="213.8" type="curve" smooth="yes"/>
      <point x="646.8" y="213.8"/>
      <point x="577.0" y="263.2"/>
      <point x="577.0" y="358.8" type="curve" smooth="yes"/>
      <point x="577.0" y="459.4"/>
      <point x="657.0" y="518.6"/>
      <point x="780.8" y="518.6" type="curve" smooth="yes"/>
      <point x="845.2" y="518.6"/>
      <point x="899.6" y="504.4"/>
    </contour>
    <contour>
      <point x="1147.8" y="215.39999999999998" type="curve" smooth="yes"/>
      <point x="1082.0" y="215.39999999999998"/>
      <point x="1050.2" y="244.2"/>
      <point x="1050.2" y="305.6" type="curve" smooth="yes"/>
      <point x="1050.2" y="776.6" type="line" smooth="yes"/>
      <point x="1050.2" y="914.8"/>
      <point x="959.2" y="1000.8"/>
      <point x="802.2" y="1000.8" type="curve" smooth="yes"/>
      <point x="614.0" y="1000.8"/>
      <point x="499.6" y="901.0"/>
      <point x="499.6" y="785.0" type="curve" smooth="yes"/>
      <point x="499.6" y="747.2"/>
      <point x="528.0" y="722.8"/>
      <point x="561.4" y="722.8" type="curve" smooth="yes"/>
      <point x="599.4" y="722.8"/>
      <point x="630.0" y="743.6"/>
      <point x="630.0" y="781.8" type="curve" smooth="yes"/>
      <point x="630.0" y="821.6" type="line" smooth="yes"/>
      <point x="630.0" y="884.8"/>
      <point x="679.6" y="936.2"/>
      <point x="777.6" y="936.2" type="curve" smooth="yes"/>
      <point x="877.4" y="936.2"/>
      <point x="935.2" y="878.4"/>
      <point x="935.2" y="774.4" type="curve" smooth="yes"/>
      <point x="935.2" y="280.2" type="line"/>
      <point x="939.8" y="276.2" type="line"/>
      <point x="940.6" y="192.6"/>
      <point x="1020.6" y="139.0"/>
      <point x="1127.6" y="139.0" type="curve" smooth="yes"/>
      <point x="1329.4" y="139.0"/>
      <point x="1458.0" y="346.2"/>
      <point x="1458.0" y="629.0" type="curve" smooth="yes"/>
      <point x="1458.0" y="1079.6"/>
      <point x="1162.6" y="1342.2"/>
      <point x="788.0" y="1342.2" type="curve" smooth="yes"/>
      <point x="328.8" y="1342.2"/>
      <point x="56.0" y="1002.4"/>
      <point x="56.0" y="553.2" type="curve" smooth="yes"/>
      <point x="56.0" y="76.0"/>
      <point x="369.2" y="-218.2"/>
      <point x="789.0" y="-218.2" type="curve" smooth="yes"/>
      <point x="1056.8" y="-218.2"/>
      <point x="1294.8" y="-124.0"/>
      <point x="1423.8" y="45.60000000000001" type="curve" smooth="yes"/>
      <point x="1443.6" y="69.8"/>
      <point x="1449.4" y="90.0"/>
      <point x="1432.6" y="107.0" type="curve" smooth="yes"/>
      <point x="1417.0" y="123.6"/>
      <point x="1393.0" y="113.8"/>
      <point x="1374.8" y="94.6" type="curve" smooth="yes"/>
      <point x="1239.6" y="-61.8"/>
      <point x="1037.6" y="-150.2"/>
      <point x="791.8" y="-150.2" type="curve" smooth="yes"/>
      <point x="404.0" y="-150.2"/>
      <point x="134.0" y="130.8"/>
      <point x="134.0" y="553.2" type="curve" smooth="yes"/>
      <point x="134.0" y="978.0"/>
      <point x="385.2" y="1276.2"/>
      <point x="785.2" y="1276.2" type="curve" smooth="yes"/>
      <point x="1120.2" y="1276.2"/>
      <point x="1377.6" y="1025.6"/>
      <point x="1377.6" y="627.8" type="curve" smooth="yes"/>
      <point x="1377.6" y="361.4"/>
      <point x="1284.2" y="215.39999999999998"/>
    </contour>
  </outline>
</glyph>
<glyph name="A" format="2">
  <advance width="1206.6"/>
  <unicode hex="0041"/>
  <anchor x="588.8" y="1465.8" name="center"/>
  <outline>
    <contour>
      <point x="285.6" y="554.2" type="line"/>
      <point x="279.2" y="477.8" type="line"/>
      <point x="867.4" y="477.8" type="line"/>
      <point x="858.6" y="554.2" type="line"/>
    </contour>
    <contour>
      <point x="375.8" y="36.4" type="curve" smooth="yes"/>
      <point x="375.8" y="56.8"/>
      <point x="363.0" y="69.8"/>
      <point x="336.4" y="75.39999999999999" type="curve" smooth="yes"/>
      <point x="252.0" y="86.6" type="line" smooth="yes"/>
      <point x="208.79999999999998" y="93.79999999999998"/>
      <point x="200.0" y="118.79999999999998"/>
      <point x="220.0" y="182.0" type="curve" smooth="yes"/>
      <point x="589.8" y="1332.2" type="line" smooth="yes"/>
      <point x="564.6" y="1327.2" type="line"/>
      <point x="937.4" y="166.39999999999998" type="line" smooth="yes"/>
      <point x="954.4" y="111.4"/>
      <point x="950.4" y="90.19999999999999"/>
      <point x="921.4" y="86.6" type="curve" smooth="yes"/>
      <point x="839.0" y="75.8" type="line" smooth="yes"/>
      <point x="813.4" y="70.39999999999999"/>
      <point x="798.8" y="57.599999999999994"/>
      <point x="798.8" y="36.4" type="curve" smooth="yes"/>
      <point x="798.8" y="13.0"/>
      <point x="813.2" y="0.0"/>
      <point x="842.6" y="0.0" type="curve" smooth="yes"/>
      <point x="1164.4" y="0.0" type="line" smooth="yes"/>
      <point x="1194.0" y="0.0"/>
      <point x="1209.0" y="13.599999999999998"/>
      <point x="1209.0" y="36.4" type="curve" smooth="yes"/>
      <point x="1209.0" y="56.39999999999999"/>
      <point x="1197.6" y="67.6"/>
      <point x="1163.2" y="77.6" type="curve" smooth="yes"/>
      <point x="1116.6" y="91.19999999999999"/>
      <point x="1092.6" y="107.79999999999998"/>
      <point x="1077.0" y="158.2" type="curve" smooth="yes"/>
      <point x="717.8" y="1270.6" type="line" smooth="yes"/>
      <point x="706.4" y="1307.2"/>
      <point x="715.4" y="1314.0"/>
      <point x="747.5999999999999" y="1323.2" type="curve" smooth="yes"/>
      <point x="784.2" y="1333.4"/>
      <point x="803.0" y="1342.6"/>
      <point x="803.0" y="1363.6" type="curve" smooth="yes"/>
      <point x="803.0" y="1385.8"/>
      <point x="786.8" y="1400.0"/>
      <point x="758.4" y="1400.0" type="curve" smooth="yes"/>
      <point x="437.6" y="1400.0" type="line" smooth="yes"/>
      <point x="409.2" y="1400.0"/>
      <point x="393.8" y="1387.4"/>
      <point x="393.8" y="1363.6" type="curve" smooth="yes"/>
      <point x="393.8" y="1341.8"/>
      <point x="413.4" y="1333.4"/>
      <point x="450.0" y="1323.2" type="curve" smooth="yes"/>
      <point x="487.8" y="1312.4"/>
      <point x="496.8" y="1304.0"/>
      <point x="483.0" y="1262.6" type="curve" smooth="yes"/>
      <point x="134.4" y="173.6" type="line" smooth="yes"/>
      <point x="116.6" y="114.79999999999998"/>
      <point x="109.8" y="95.19999999999999"/>
      <point x="75.0" y="86.19999999999999" type="curve" smooth="yes"/>
      <point x="34.8" y="75.6" type="line" smooth="yes"/>
      <point x="10.399999999999999" y="66.39999999999999"/>
      <point x="-3.200000000000003" y="56.39999999999999"/>
      <point x="-3.200000000000003" y="36.4" type="curve" smooth="yes"/>
      <point x="-3.200000000000003" y="13.0"/>
      <point x="11.599999999999994" y="0.0"/>
      <point x="39.8" y="0.0" type="curve" smooth="yes"/>
      <point x="332.0" y="0.0" type="line" smooth="yes"/>
      <point x="361.2" y="0.0"/>
      <point x="375.8" y="13.0"/>
    </contour>
  </outline>
</glyph>
<glyph name="B" format="2">
  <advance width="1147.6"/>
  <unicode hex="0042"/>
  <outline>
    <contour>
      <point x="1094.2" y="337.6" type="curve" smooth="yes"/>
      <point x="1094.2" y="538.6"/>
      <point x="933.2" y="682.8"/>
      <point x="644.0" y="682.8" type="curve"/>
      <point x="569.2" y="652.6" type="line"/>
      <point x="883.4" y="652.6"/>
      <point x="1022.5999999999999" y="800.2"/>
      <point x="1022.5999999999999" y="999.6" type="curve" smooth="yes"/>
      <point x="1022.5999999999999" y="1235.2"/>
      <point x="845.2" y="1400.0"/>
      <point x="518.8" y="1400.0" type="curve" smooth="yes"/>
      <point x="109.8" y="1400.0" type="line" smooth="yes"/>
      <point x="81.4" y="1400.0"/>
      <point x="66.0" y="1387.4"/>
      <point x="66.0" y="1363.6" type="curve" smooth="yes"/>
      <point x="66.0" y="1342.6"/>
      <point x="79.6" y="1328.8"/>
      <point x="104.8" y="1322.6" type="curve" smooth="yes"/>
      <point x="174.0" y="1312.0" type="line" smooth="yes"/>
      <point x="207.0" y="1304.6"/>
      <point x="222.0" y="1284.4"/>
      <point x="222.0" y="1248.4" type="curve" smooth="yes"/>
      <point x="222.0" y="151.6" type="line" smooth="yes"/>
      <point x="222.0" y="115.6"/>
      <point x="203.8" y="96.19999999999999"/>
      <point x="166.0" y="88.0" type="curve" smooth="yes"/>
      <point x="104.8" y="77.39999999999999" type="line" smooth="yes"/>
      <point x="79.6" y="70.39999999999999"/>
      <point x="66.0" y="57.39999999999999"/>
      <point x="66.0" y="36.4" type="curve" smooth="yes"/>
      <point x="66.0" y="12.599999999999998"/>
      <point x="81.4" y="0.0"/>
      <point x="109.8" y="0.0" type="curve" smooth="yes"/>
      <point x="639.4" y="0.0" type="line" smooth="yes"/>
      <point x="937.4" y="0.0"/>
      <point x="1094.2" y="143.8"/>
    </contour>
    <contour>
      <point x="574.6" y="628.2" type="line" smooth="yes"/>
      <point x="835.4" y="628.2"/>
      <point x="961.4" y="510.6462311557789"/>
      <point x="961.4" y="341.6" type="curve" smooth="yes"/>
      <point x="961.4" y="187.22"/>
      <point x="850.2" y="78.8"/>
      <point x="615.4" y="78.8" type="curve" smooth="yes"/>
      <point x="452.0" y="78.8" type="line" smooth="yes"/>
      <point x="386.0" y="78.8"/>
      <point x="356.2" y="105.4"/>
      <point x="356.2" y="157.79999999999998" type="curve" smooth="yes"/>
      <point x="356.2" y="1324.4" type="line"/>
      <point x="505.4" y="1324.4" type="line" smooth="yes"/>
      <point x="766.4" y="1324.4"/>
      <point x="892.2" y="1189.6939759036145"/>
      <point x="892.2" y="998.6" type="curve" smooth="yes"/>
      <point x="892.2" y="814.6952380952381"/>
      <point x="769.4" y="703.0"/>
      <point x="566.2" y="703.0" type="curve" smooth="yes"/>
      <point x="307.79999999999995" y="703.0" type="line"/>
      <point x="307.79999999999995" y="628.2" type="line"/>
    </contour>
  </outline>
</glyph>
<glyph name="C" format="2">
  <advance width="1209.6"/>
  <unicode hex="0043"/>
  <anchor x="705.4" y="1535.0" name="center"/>
  <outline>
    <contour>
      <point x="1180.4" y="313.4" type="curve" smooth="yes"/>
      <point x="1186.0" y="335.2"/>
      <point x="1176.6" y="350.2"/>
      <point x="1160.2" y="351.8" type="curve" smooth="yes"/>
      <point x="1145.2" y="353.79999999999995"/>
      <point x="1132.0" y="347.4"/>
      <point x="1116.8" y="324.8" type="curve" smooth="yes"/>
      <point x="1027.6604848519496" y="147.22191361171926"/>
      <point x="880.2" y="75.19999999999999"/>
      <point x="717.2" y="75.19999999999999" type="curve" smooth="yes"/>
      <point x="429.2" y="75.19999999999999"/>
      <point x="200.59999999999997" y="319.20210770615256"/>
      <point x="200.59999999999997" y="716.6" type="curve" smooth="yes"/>
      <point x="200.59999999999997" y="1080.2766188483763"/>
      <point x="411.4" y="1341.0"/>
      <point x="691.2" y="1341.0" type="curve" smooth="yes"/>
      <point x="894.6" y="1341.0"/>
      <point x="1016.3217616123535" y="1258.6480181206364"/>
      <point x="1099.2" y="1015.6" type="curve" smooth="yes"/>
      <point x="1109.6" y="988.4"/>
      <point x="1126.6" y="977.0"/>
      <point x="1149.4" y="980.6" type="curve" smooth="yes"/>
      <point x="1176.8288668068337" y="985.204330021025"/>
      <point x="1188.4199528526055" y="1009.1287956125991"/>
      <point x="1180.6" y="1035.4" type="curve" smooth="yes"/>
      <point x="1074.6" y="1376.0" type="line" smooth="yes"/>
      <point x="1065.2" y="1408.8"/>
      <point x="1053.6" y="1417.6"/>
      <point x="1037.6" y="1417.6" type="curve" smooth="yes"/>
      <point x="984.2" y="1417.6"/>
      <point x="1009.6" y="1339.0"/>
      <point x="988.8" y="1339.0" type="curve" smooth="yes"/>
      <point x="967.0" y="1339.0"/>
      <point x="876.8" y="1418.4"/>
      <point x="680.8" y="1418.4" type="curve" smooth="yes"/>
      <point x="340.2" y="1418.4"/>
      <point x="63.8" y="1105.8597544338336"/>
      <point x="63.8" y="696.4" type="curve" smooth="yes"/>
      <point x="63.8" y="279.60905349794234"/>
      <point x="299.4" y="-23.2"/>
      <point x="685.2" y="-23.2" type="curve" smooth="yes"/>
      <point x="950.0" y="-23.2"/>
      <point x="1115.7562464499554" y="114.46678331494881"/>
    </contour>
  </outline>
</glyph>
<glyph name="D" format="2">
  <advance width="1351.4"/>
  <unicode hex="0044"/>
  <anchor x="675.6" y="1555.0" name="center"/>
  <outline>
    <contour>
      <point x="66.0" y="36.4" type="curve" smooth="yes"/>
      <point x="66.0" y="12.599999999999998"/>
      <point x="81.4" y="0.0"/>
      <point x="109.8" y="0.0" type="curve" smooth="yes"/>
      <point x="588.4" y="0.0" type="line" smooth="yes"/>
      <point x="1045.0" y="0.0"/>
      <point x="1283.8" y="291.0"/>
      <point x="1283.8" y="669.8" type="curve" smooth="yes"/>
      <point x="1283.8" y="1089.2"/>
      <point x="976.8750323415265" y="1400.0"/>
      <point x="514.4" y="1400.0" type="curve" smooth="yes"/>
      <point x="109.8" y="1400.0" type="line" smooth="yes"/>
      <point x="81.4" y="1400.0"/>
      <point x="66.0" y="1387.4"/>
      <point x="66.0" y="1363.6" type="curve" smooth="yes"/>
      <point x="66.0" y="1342.6"/>
      <point x="79.6" y="1328.8"/>
      <point x="104.8" y="1322.6" type="curve" smooth="yes"/>
      <point x="174.0" y="1312.0" type="line" smooth="yes"/>
      <point x="207.02306450904737" y="1304.880916701501"/>
      <point x="222.0" y="1284.6181818181817"/>
      <point x="222.0" y="1248.4" type="curve" smooth="yes"/>
      <point x="222.0" y="151.6" type="line" smooth="yes"/>
      <point x="222.0" y="115.6"/>
      <point x="207.02306450904737" y="95.11908329849908"/>
      <point x="174.0" y="88.0" type="curve" smooth="yes"/>
      <point x="104.8" y="77.39999999999999" type="line" smooth="yes"/>
      <point x="79.6" y="71.19999999999999"/>
      <point x="66.0" y="57.39999999999999"/>
    </contour>
    <contour>
      <point x="586.6" y="75.6" type="curve" smooth="yes"/>
      <point x="445.0" y="75.6" type="line" smooth="yes"/>
      <point x="381.4" y="75.6"/>
      <point x="352.2" y="102.4724832214765"/>
      <point x="352.2" y="159.79999999999998" type="curve" smooth="yes"/>
      <point x="352.2" y="1325.2" type="line"/>
      <point x="505.6" y="1325.2" type="line" smooth="yes"/>
      <point x="883.8014104372355" y="1325.2"/>
      <point x="1148.0" y="1046.7546468401488"/>
      <point x="1148.0" y="676.0" type="curve" smooth="yes"/>
      <point x="1148.0" y="317.51674130114316"/>
      <point x="947.0" y="75.6"/>
    </contour>
  </outline>
</glyph>
<glyph name="E" format="2">
  <advance width="1106.2"/>
  <unicode hex="0045"/>
  <anchor x="587.6" y="1524.4" name="center"/>
  <outline>
    <contour>
      <point x="294.6" y="728.4" type="line"/>
      <point x="294.6" y="653.6" type="line"/>
      <point x="709.2" y="653.6" type="line" smooth="yes"/>
      <point x="770.0" y="653.6"/>
      <point x="796.0" y="633.2"/>
      <point x="823.2" y="551.8" type="curve" smooth="yes"/>
      <point x="833.0" y="528.6"/>
      <point x="849.4" y="517.2"/>
      <point x="869.8" y="522.6" type="curve" smooth="yes"/>
      <point x="889.6" y="528.0"/>
      <point x="896.2" y="546.4"/>
      <point x="889.2" y="575.0" type="curve" smooth="yes"/>
      <point x="826.0" y="841.8" type="line" smooth="yes"/>
      <point x="819.6" y="868.2"/>
      <point x="807.4" y="879.4"/>
      <point x="787.8" y="877.0" type="curve" smooth="yes"/>
      <point x="770.4" y="874.6"/>
      <point x="760.4" y="857.4"/>
      <point x="758.8" y="827.4" type="curve" smooth="yes"/>
      <point x="764.2" y="748.6"/>
      <point x="740.6" y="728.4"/>
      <point x="698.0" y="728.4" type="curve" smooth="yes"/>
    </contour>
    <contour>
      <point x="66.0" y="1363.6" type="curve" smooth="yes"/>
      <point x="66.0" y="1342.6"/>
      <point x="79.6" y="1328.8"/>
      <point x="104.8" y="1322.6" type="curve" smooth="yes"/>
      <point x="174.0" y="1312.0" type="line" smooth="yes"/>
      <point x="207.0" y="1304.6"/>
      <point x="222.0" y="1284.4"/>
      <point x="222.0" y="1248.4" type="curve" smooth="yes"/>
      <point x="222.0" y="151.6" type="line" smooth="yes"/>
      <point x="222.0" y="115.6"/>
      <point x="207.0" y="95.4"/>
      <point x="174.0" y="88.0" type="curve" smooth="yes"/>
      <point x="104.8" y="77.39999999999999" type="line" smooth="yes"/>
      <point x="79.6" y="71.19999999999999"/>
      <point x="66.0" y="57.39999999999999"/>
      <point x="66.0" y="36.4" type="curve" smooth="yes"/>
      <point x="66.0" y="12.599999999999998"/>
      <point x="81.4" y="0.0"/>
      <point x="109.8" y="0.0" type="curve" smooth="yes"/>
      <point x="849.4" y="0.0" type="line" smooth="yes"/>
      <point x="883.0" y="0.0"/>
      <point x="906.4" y="-29.6"/>
      <point x="936.0" y="-29.6" type="curve" smooth="yes"/>
      <point x="963.6" y="-29.6"/>
      <point x="977.2" y="-14.400000000000002"/>
      <point x="985.8" y="18.799999999999997" type="curve" smooth="yes"/>
      <point x="1061.8" y="323.8" type="line" smooth="yes"/>
      <point x="1069.4" y="354.6"/>
      <point x="1060.6" y="373.8"/>
      <point x="1038.2" y="378.0" type="curve" smooth="yes"/>
      <point x="1018.4" y="382.2"/>
      <point x="1002.6" y="373.0"/>
      <point x="993.8" y="346.4" type="curve" smooth="yes"/>
      <point x="922.4" y="113.6"/>
      <point x="876.4" y="75.6"/>
      <point x="779.2" y="75.6" type="curve" smooth="yes"/>
      <point x="431.2" y="75.6" type="line" smooth="yes"/>
      <point x="376.4" y="75.6"/>
      <point x="351.4" y="105.19999999999999"/>
      <point x="351.4" y="161.0" type="curve" smooth="yes"/>
      <point x="351.4" y="1324.4" type="line"/>
      <point x="750.6" y="1324.4" type="line" smooth="yes"/>
      <point x="849.0" y="1324.4"/>
      <point x="889.4" y="1289.6"/>
      <point x="945.6" y="1116.0" type="curve" smooth="yes"/>
      <point x="956.8" y="1085.2"/>
      <point x="976.0" y="1075.0"/>
      <point x="999.8" y="1079.4" type="curve" smooth="yes"/>
      <point x="1023.4" y="1083.6"/>
      <point x="1035.4" y="1102.2"/>
      <point x="1027.4" y="1132.8" type="curve" smooth="yes"/>
      <point x="958.4" y="1388.6" type="line" smooth="yes"/>
      <point x="949.6" y="1421.4"/>
      <point x="936.0" y="1437.0"/>
      <point x="909.4" y="1437.0" type="curve" smooth="yes"/>
      <point x="871.6" y="1437.0"/>
      <point x="865.2" y="1400.0"/>
      <point x="822.0" y="1400.0" type="curve" smooth="yes"/>
      <point x="109.8" y="1400.0" type="line" smooth="yes"/>
      <point x="81.4" y="1400.0"/>
      <point x="66.0" y="1387.4"/>
    </contour>
  </outline>
</glyph>
<glyph name="F" format="2">
  <advance width="1002.8"/>
  <unicode hex="0046"/>
  <outline>
    <contour>
      <point x="762.8" y="1400.0" type="curve" smooth="yes"/>
      <point x="109.8" y="1400.0" type="line" smooth="yes"/>
      <point x="81.4" y="1400.0"/>
      <point x="66.0" y="1387.4"/>
      <point x="66.0" y="1363.6" type="curve" smooth="yes"/>
      <point x="66.0" y="1342.6"/>
      <point x="79.6" y="1328.8"/>
      <point x="104.8" y="1322.6" type="curve" smooth="yes"/>
      <point x="174.0" y="1312.0" type="line" smooth="yes"/>
      <point x="207.0" y="1304.6"/>
      <point x="222.0" y="1284.4"/>
      <point x="222.0" y="1248.4" type="curve" smooth="yes"/>
      <point x="222.0" y="151.6" type="line" smooth="yes"/>
      <point x="222.0" y="115.38181818181818"/>
      <point x="207.02306450904737" y="95.11908329849908"/>
      <point x="174.0" y="88.0" type="curve" smooth="yes"/>
      <point x="104.8" y="77.39999999999999" type="line" smooth="yes"/>
      <point x="79.6" y="71.19999999999999"/>
      <point x="66.0" y="57.39999999999999"/>
      <point x="66.0" y="36.4" type="curve" smooth="yes"/>
      <point x="66.0" y="12.599999999999998"/>
      <point x="81.4" y="0.0"/>
      <point x="109.8" y="0.0" type="curve" smooth="yes"/>
      <point x="496.79999999999995" y="0.0" type="line" smooth="yes"/>
      <point x="526.0" y="0.0"/>
      <point x="541.4" y="12.599999999999998"/>
      <point x="541.4" y="36.4" type="curve" smooth="yes"/>
      <point x="541.4" y="59.8"/>
      <point x="527.0" y="71.39999999999999"/>
      <point x="501.79999999999995" y="76.19999999999999" type="curve" smooth="yes"/>
      <point x="403.4" y="88.0" type="line" smooth="yes"/>
      <point x="372.2" y="92.4"/>
      <point x="356.2" y="114.38181818181818"/>
      <point x="356.2" y="151.6" type="curve" smooth="yes"/>
      <point x="356.2" y="1325.2" type="line"/>
      <point x="715.4" y="1325.2" type="line" smooth="yes"/>
      <point x="799.6" y="1325.2"/>
      <point x="838.5054711772881" y="1289.4213363348795"/>
      <point x="891.4" y="1113.2" type="curve" smooth="yes"/>
      <point x="901.8" y="1082.4"/>
      <point x="921.2" y="1072.2"/>
      <point x="939.6" y="1076.0" type="curve" smooth="yes"/>
      <point x="961.2" y="1079.6"/>
      <point x="974.2" y="1097.2"/>
      <point x="966.4" y="1126.6" type="curve" smooth="yes"/>
      <point x="901.6" y="1388.6" type="line" smooth="yes"/>
      <point x="892.8" y="1421.2"/>
      <point x="879.2" y="1437.0"/>
      <point x="852.6" y="1437.0" type="curve" smooth="yes"/>
      <point x="821.2" y="1437.0"/>
      <point x="798.2" y="1400.0"/>
    </contour>
    <contour>
      <point x="279.79999999999995" y="695.4" type="line"/>
      <point x="279.79999999999995" y="620.6" type="line"/>
      <point x="697.6" y="620.6" type="line" smooth="yes"/>
      <point x="755.4" y="620.6"/>
      <point x="777.7062016246163" y="591.3482639850138"/>
      <point x="803.8" y="517.2" type="curve" smooth="yes"/>
      <point x="814.0" y="493.6"/>
      <point x="831.2" y="482.0"/>
      <point x="849.8" y="487.0" type="curve" smooth="yes"/>
      <point x="869.6" y="493.4"/>
      <point x="875.8" y="511.8"/>
      <point x="869.6" y="540.4" type="curve" smooth="yes"/>
      <point x="805.8" y="807.2" type="line" smooth="yes"/>
      <point x="800.4" y="833.6"/>
      <point x="787.8" y="844.8"/>
      <point x="767.8" y="842.4" type="curve" smooth="yes"/>
      <point x="749.8" y="840.0"/>
      <point x="738.4" y="822.0"/>
      <point x="739.0" y="793.6" type="curve" smooth="yes"/>
      <point x="747.0" y="722.0"/>
      <point x="731.8" y="695.4"/>
      <point x="678.2" y="695.4" type="curve" smooth="yes"/>
    </contour>
  </outline>
</glyph>
<glyph name="G" format="2">
  <advance width="1321.8"/>
  <unicode hex="0047"/>
  <anchor x="727.2" y="1530.0" name="center"/>
  <outline>
    <contour>
      <point x="1152.6" y="35.4" type="curve" smooth="yes"/>
      <point x="1152.6" y="457.4" type="line" smooth="yes"/>
      <point x="1152.6" y="494.8"/>
      <point x="1169.6737640169165" y="514.0842205021146"/>
      <point x="1199.8" y="520.0" type="curve" smooth="yes"/>
      <point x="1267.2" y="529.8" type="line" smooth="yes"/>
      <point x="1292.6" y="536.4"/>
      <point x="1307.2" y="547.4"/>
      <point x="1307.2" y="568.6" type="curve" smooth="yes"/>
      <point x="1307.2" y="591.8"/>
      <point x="1292.8" y="604.0"/>
      <point x="1262.6" y="604.0" type="curve" smooth="yes"/>
      <point x="902.4" y="604.0" type="line" smooth="yes"/>
      <point x="873.4" y="604.0"/>
      <point x="858.6" y="591.2"/>
      <point x="858.6" y="568.6" type="curve" smooth="yes"/>
      <point x="858.6" y="547.2"/>
      <point x="874.8" y="535.0"/>
      <point x="901.0" y="528.8" type="curve" smooth="yes"/>
      <point x="983.0" y="517.8" type="line" smooth="yes"/>
      <point x="1013.4" y="512.4"/>
      <point x="1030.2" y="493.4"/>
      <point x="1030.2" y="457.4" type="curve" smooth="yes"/>
      <point x="1030.2" y="231.6" type="line" smooth="yes"/>
      <point x="1030.2" y="129.39999999999998"/>
      <point x="939.4991404011462" y="66.79999999999998"/>
      <point x="728.2" y="66.79999999999998" type="curve" smooth="yes"/>
      <point x="432.2" y="66.79999999999998"/>
      <point x="196.59999999999997" y="313.3169340463458"/>
      <point x="196.59999999999997" y="712.6" type="curve" smooth="yes"/>
      <point x="196.59999999999997" y="1084.7152838427949"/>
      <point x="419.24587155963303" y="1341.0"/>
      <point x="710.6" y="1341.0" type="curve" smooth="yes"/>
      <point x="927.2893617021276" y="1341.0"/>
      <point x="1050.896588702824" y="1262.9204610881777"/>
      <point x="1139.8" y="1015.0" type="curve" smooth="yes"/>
      <point x="1148.6" y="992.4"/>
      <point x="1169.746193347512" y="979.3453806652489"/>
      <point x="1192.6" y="981.0" type="curve" smooth="yes"/>
      <point x="1216.0" y="983.6"/>
      <point x="1227.0" y="1006.6"/>
      <point x="1219.4" y="1031.4" type="curve" smooth="yes"/>
      <point x="1116.8" y="1368.0" type="line" smooth="yes"/>
      <point x="1105.4081830987054" y="1406.757098722817"/>
      <point x="1091.8" y="1416.8"/>
      <point x="1071.8" y="1416.8" type="curve" smooth="yes"/>
      <point x="1030.0" y="1416.8"/>
      <point x="1044.9058823529413" y="1339.8"/>
      <point x="1026.6" y="1339.8" type="curve" smooth="yes"/>
      <point x="998.771098265896" y="1339.8"/>
      <point x="929.9468208092485" y="1418.4"/>
      <point x="701.8" y="1418.4" type="curve" smooth="yes"/>
      <point x="339.33944353518825" y="1418.4"/>
      <point x="59.8" y="1111.865335235378"/>
      <point x="59.8" y="693.4" type="curve" smooth="yes"/>
      <point x="59.8" y="278.0303112313938"/>
      <point x="299.8" y="-20.0"/>
      <point x="694.4" y="-20.0" type="curve" smooth="yes"/>
      <point x="952.1988405797102" y="-20.0"/>
      <point x="1020.1680911680911" y="73.0"/>
      <point x="1043.4" y="73.0" type="curve" smooth="yes"/>
      <point x="1063.7176470588236" y="73.0"/>
      <point x="1063.44" y="-31.4"/>
      <point x="1103.2" y="-31.4" type="curve" smooth="yes"/>
      <point x="1136.0" y="-31.4"/>
      <point x="1152.6" y="-10.200000000000003"/>
    </contour>
  </outline>
</glyph>
<glyph name="H" format="2">
  <advance width="1414.0"/>
  <unicode hex="0048"/>
  <outline>
    <contour>
      <point x="274.6" y="701.2" type="line"/>
      <point x="274.6" y="623.0" type="line"/>
      <point x="1110.0" y="623.0" type="line"/>
      <point x="1110.0" y="701.2" type="line"/>
    </contour>
    <contour>
      <point x="352.2" y="152.39999999999998" type="curve" smooth="yes"/>
      <point x="352.2" y="1250.0" type="line" smooth="yes"/>
      <point x="352.2" y="1284.4"/>
      <point x="367.2" y="1303.0"/>
      <point x="399.4" y="1310.4" type="curve" smooth="yes"/>
      <point x="469.4" y="1322.6" type="line" smooth="yes"/>
      <point x="495.4" y="1329.6"/>
      <point x="509.0" y="1342.6"/>
      <point x="509.0" y="1363.6" type="curve" smooth="yes"/>
      <point x="509.0" y="1387.4"/>
      <point x="493.6" y="1400.0"/>
      <point x="465.2" y="1400.0" type="curve" smooth="yes"/>
      <point x="109.8" y="1400.0" type="line" smooth="yes"/>
      <point x="81.4" y="1400.0"/>
      <point x="66.0" y="1387.4"/>
      <point x="66.0" y="1363.6" type="curve" smooth="yes"/>
      <point x="66.0" y="1342.6"/>
      <point x="78.8" y="1329.6"/>
      <point x="104.8" y="1322.6" type="curve" smooth="yes"/>
      <point x="174.0" y="1310.4" type="line" smooth="yes"/>
      <point x="206.2" y="1303.0"/>
      <point x="222.0" y="1284.4"/>
      <point x="222.0" y="1250.0" type="curve" smooth="yes"/>
      <point x="222.0" y="152.39999999999998" type="line" smooth="yes"/>
      <point x="222.0" y="116.4"/>
      <point x="203.8" y="97.0"/>
      <point x="166.0" y="88.79999999999998" type="curve" smooth="yes"/>
      <point x="104.8" y="77.39999999999999" type="line" smooth="yes"/>
      <point x="79.6" y="70.39999999999999"/>
      <point x="66.0" y="57.39999999999999"/>
      <point x="66.0" y="36.4" type="curve" smooth="yes"/>
      <point x="66.0" y="12.599999999999998"/>
      <point x="81.4" y="0.0"/>
      <point x="109.8" y="0.0" type="curve" smooth="yes"/>
      <point x="465.2" y="0.0" type="line" smooth="yes"/>
      <point x="493.6" y="0.0"/>
      <point x="509.0" y="12.599999999999998"/>
      <point x="509.0" y="36.4" type="curve" smooth="yes"/>
      <point x="509.0" y="57.39999999999999"/>
      <point x="494.6" y="70.39999999999999"/>
      <point x="469.4" y="77.39999999999999" type="curve" smooth="yes"/>
      <point x="407.4" y="88.79999999999998" type="line" smooth="yes"/>
      <point x="370.4" y="97.0"/>
      <point x="352.2" y="116.4"/>
    </contour>
    <contour>
      <point x="1190.4" y="152.39999999999998" type="curve" smooth="yes"/>
      <point x="1190.4" y="1250.0" type="line" smooth="yes"/>
      <point x="1190.4" y="1284.4"/>
      <point x="1205.4" y="1303.0"/>
      <point x="1237.6" y="1310.4" type="curve" smooth="yes"/>
      <point x="1307.6" y="1322.6" type="line" smooth="yes"/>
      <point x="1333.6" y="1329.6"/>
      <point x="1347.2" y="1342.6"/>
      <point x="1347.2" y="1363.6" type="curve" smooth="yes"/>
      <point x="1347.2" y="1387.4"/>
      <point x="1331.8" y="1400.0"/>
      <point x="1303.4" y="1400.0" type="curve" smooth="yes"/>
      <point x="948.0" y="1400.0" type="line" smooth="yes"/>
      <point x="919.6" y="1400.0"/>
      <point x="904.2" y="1387.4"/>
      <point x="904.2" y="1363.6" type="curve" smooth="yes"/>
      <point x="904.2" y="1342.6"/>
      <point x="917.0" y="1329.6"/>
      <point x="943.0" y="1322.6" type="curve" smooth="yes"/>
      <point x="1012.2" y="1310.4" type="line" smooth="yes"/>
      <point x="1044.4" y="1303.0"/>
      <point x="1060.2" y="1284.4"/>
      <point x="1060.2" y="1250.0" type="curve" smooth="yes"/>
      <point x="1060.2" y="152.39999999999998" type="line" smooth="yes"/>
      <point x="1060.2" y="116.4"/>
      <point x="1042.0" y="97.0"/>
      <point x="1004.2" y="88.79999999999998" type="curve" smooth="yes"/>
      <point x="943.0" y="77.39999999999999" type="line" smooth="yes"/>
      <point x="917.8" y="70.39999999999999"/>
      <point x="904.2" y="57.39999999999999"/>
      <point x="904.2" y="36.4" type="curve" smooth="yes"/>
      <point x="904.2" y="12.599999999999998"/>
      <point x="919.6" y="0.0"/>
      <point x="948.0" y="0.0" type="curve" smooth="yes"/>
      <point x="1303.4" y="0.0" type="line" smooth="yes"/>
      <point x="1331.8" y="0.0"/>
      <point x="1347.2" y="12.599999999999998"/>
      <point x="1347.2" y="36.4" type="curve" smooth="yes"/>
      <point x="1347.2" y="57.39999999999999"/>
      <point x="1332.8" y="70.39999999999999"/>
      <point x="1307.6" y="77.39999999999999" type="curve" smooth="yes"/>
      <point x="1245.6" y="88.79999999999998" type="line" smooth="yes"/>
      <point x="1208.6" y="97.0"/>
      <point x="1190.4" y="116.4"/>
    </contour>
  </outline>
</glyph>
<glyph name="I" format="2">
  <advance width="560.6"/>
  <unicode hex="0049"/>
  <outline>
    <contour>
      <point x="345.0" y="152.39999999999998" type="curve" smooth="yes"/>
      <point x="345.0" y="1250.0" type="line" smooth="yes"/>
      <point x="345.0" y="1284.4"/>
      <point x="360.0" y="1303.0"/>
      <point x="392.2" y="1310.4" type="curve" smooth="yes"/>
      <point x="462.2" y="1322.6" type="line" smooth="yes"/>
      <point x="488.2" y="1329.6"/>
      <point x="501.8" y="1342.6"/>
      <point x="501.8" y="1363.6" type="curve" smooth="yes"/>
      <point x="501.8" y="1387.4"/>
      <point x="486.4" y="1400.0"/>
      <point x="458.0" y="1400.0" type="curve" smooth="yes"/>
      <point x="102.6" y="1400.0" type="line" smooth="yes"/>
      <point x="74.2" y="1400.0"/>
      <point x="58.8" y="1387.4"/>
      <point x="58.8" y="1363.6" type="curve" smooth="yes"/>
      <point x="58.8" y="1342.6"/>
      <point x="71.6" y="1329.6"/>
      <point x="97.6" y="1322.6" type="curve" smooth="yes"/>
      <point x="166.8" y="1310.4" type="line" smooth="yes"/>
      <point x="199.0" y="1303.0"/>
      <point x="214.8" y="1284.4"/>
      <point x="214.8" y="1250.0" type="curve" smooth="yes"/>
      <point x="214.8" y="152.39999999999998" type="line" smooth="yes"/>
      <point x="214.8" y="116.4"/>
      <point x="196.6" y="97.0"/>
      <point x="158.8" y="88.79999999999998" type="curve" smooth="yes"/>
      <point x="97.6" y="77.39999999999999" type="line" smooth="yes"/>
      <point x="72.4" y="70.39999999999999"/>
      <point x="58.8" y="57.39999999999999"/>
      <point x="58.8" y="36.4" type="curve" smooth="yes"/>
      <point x="58.8" y="12.599999999999998"/>
      <point x="74.2" y="0.0"/>
      <point x="102.6" y="0.0" type="curve" smooth="yes"/>
      <point x="458.0" y="0.0" type="line" smooth="yes"/>
      <point x="486.4" y="0.0"/>
      <point x="501.8" y="12.599999999999998"/>
      <point x="501.8" y="36.4" type="curve" smooth="yes"/>
      <point x="501.8" y="57.39999999999999"/>
      <point x="487.4" y="70.39999999999999"/>
      <point x="462.2" y="77.39999999999999" type="curve" smooth="yes"/>
      <point x="400.2" y="88.79999999999998" type="line" smooth="yes"/>
      <point x="363.2" y="97.0"/>
      <point x="345.0" y="116.4"/>
    </contour>
  </outline>
</glyph>
<glyph name="J" format="2">
  <advance width="710.0"/>
  <unicode hex="004A"/>
  <anchor x="403.4" y="1464.4" name="center"/>
  <outline>
    <contour>
      <point x="590.2" y="213.6" type="curve" smooth="yes"/>
      <point x="590.2" y="358.0"/>
      <point x="490.2" y="397.61481481481485"/>
      <point x="490.2" y="596.2" type="curve" smooth="yes"/>
      <point x="490.2" y="1245.2" type="line" smooth="yes"/>
      <point x="490.2" y="1281.2775757575757"/>
      <point x="505.1383858977981" y="1301.3530684135023"/>
      <point x="541.4" y="1308.8" type="curve" smooth="yes"/>
      <point x="611.4" y="1319.4" type="line" smooth="yes"/>
      <point x="636.5999999999999" y="1325.6"/>
      <point x="651.0" y="1339.4"/>
      <point x="651.0" y="1360.4" type="curve" smooth="yes"/>
      <point x="651.0" y="1384.2"/>
      <point x="635.5999999999999" y="1396.8"/>
      <point x="607.2" y="1396.8" type="curve" smooth="yes"/>
      <point x="244.2" y="1396.8" type="line" smooth="yes"/>
      <point x="215.8" y="1396.8"/>
      <point x="200.39999999999998" y="1384.2"/>
      <point x="200.39999999999998" y="1360.4" type="curve" smooth="yes"/>
      <point x="200.39999999999998" y="1337.8"/>
      <point x="214.8" y="1326.4"/>
      <point x="240.0" y="1320.6" type="curve" smooth="yes"/>
      <point x="312.8" y="1308.2" type="line" smooth="yes"/>
      <point x="344.9696511757149" y="1301.7188864028021"/>
      <point x="360.0" y="1281.6"/>
      <point x="360.0" y="1244.6" type="curve" smooth="yes"/>
      <point x="360.0" y="580.0" type="line" smooth="yes"/>
      <point x="360.0" y="368.2"/>
      <point x="469.8" y="332.8"/>
      <point x="469.8" y="196.6" type="curve" smooth="yes"/>
      <point x="469.8" y="93.6"/>
      <point x="409.44444444444446" y="43.39999999999999"/>
      <point x="325.4" y="43.39999999999999" type="curve" smooth="yes"/>
      <point x="230.25714285714284" y="43.39999999999999"/>
      <point x="199.2" y="90.8"/>
      <point x="199.2" y="166.8" type="curve" smooth="yes"/>
      <point x="199.2" y="219.39999999999998" type="line" smooth="yes"/>
      <point x="199.2" y="265.2"/>
      <point x="173.79999999999998" y="293.0"/>
      <point x="136.6" y="293.0" type="curve" smooth="yes"/>
      <point x="89.4" y="293.0"/>
      <point x="60.8" y="253.7"/>
      <point x="60.8" y="193.2" type="curve" smooth="yes"/>
      <point x="60.8" y="67.0"/>
      <point x="150.93333333333334" y="-24.8"/>
      <point x="318.79999999999995" y="-24.8" type="curve" smooth="yes"/>
      <point x="471.59999999999997" y="-24.8"/>
      <point x="590.2" y="66.19999999999999"/>
    </contour>
  </outline>
</glyph>
<glyph name="K" format="2">
  <advance width="1268.6"/>
  <unicode hex="004B"/>
  <anchor x="680.2" y="1464.0" name="center"/>
  <outline>
    <contour>
      <point x="288.79999999999995" y="531.6" type="line"/>
      <point x="308.0" y="451.8" type="line"/>
      <point x="1035.4" y="1229.2" type="line" smooth="yes"/>
      <point x="1092.293899261605" y="1288.4591907924846"/>
      <point x="1110.9173950464012" y="1306.7794693613039"/>
      <point x="1163.6" y="1320.0" type="curve" smooth="yes"/>
      <point x="1209.4" y="1332.8"/>
      <point x="1223.2" y="1342.2"/>
      <point x="1223.2" y="1363.6" type="curve" smooth="yes"/>
      <point x="1223.2" y="1387.0"/>
      <point x="1208.4" y="1400.0"/>
      <point x="1178.6" y="1400.0" type="curve" smooth="yes"/>
      <point x="873.2" y="1400.0" type="line" smooth="yes"/>
      <point x="844.2" y="1400.0"/>
      <point x="829.4" y="1387.0"/>
      <point x="829.4" y="1363.6" type="curve" smooth="yes"/>
      <point x="829.4" y="1342.6"/>
      <point x="844.0" y="1329.4"/>
      <point x="869.0" y="1323.0" type="curve" smooth="yes"/>
      <point x="944.4" y="1314.0" type="line" smooth="yes"/>
      <point x="979.3474022157778" y="1307.2157262585006"/>
      <point x="983.7626352507784" y="1281.6056434422162"/>
      <point x="960.4" y="1257.2" type="curve" smooth="yes"/>
    </contour>
    <contour>
      <point x="567.0" y="787.4" type="line"/>
      <point x="961.6" y="145.6" type="line" smooth="yes"/>
      <point x="984.4" y="108.4"/>
      <point x="981.1223883965953" y="89.99835308938123"/>
      <point x="949.2" y="84.19999999999999" type="curve" smooth="yes"/>
      <point x="876.4" y="76.19999999999999" type="line" smooth="yes"/>
      <point x="852.4" y="69.8"/>
      <point x="839.0" y="57.19999999999999"/>
      <point x="839.0" y="36.4" type="curve" smooth="yes"/>
      <point x="839.0" y="13.0"/>
      <point x="852.8" y="0.0"/>
      <point x="881.8" y="0.0" type="curve" smooth="yes"/>
      <point x="1234.4" y="0.0" type="line" smooth="yes"/>
      <point x="1263.4" y="0.0"/>
      <point x="1278.2" y="13.0"/>
      <point x="1278.2" y="36.4" type="curve" smooth="yes"/>
      <point x="1278.2" y="62.599999999999994"/>
      <point x="1264.2" y="69.8"/>
      <point x="1208.6" y="84.0" type="curve" smooth="yes"/>
      <point x="1173.166552577081" y="93.6325020354706"/>
      <point x="1138.0287716564276" y="110.19942613982496"/>
      <point x="1115.4" y="146.79999999999998" type="curve" smooth="yes"/>
      <point x="664.0" y="875.2" type="line"/>
    </contour>
    <contour>
      <point x="352.2" y="159.6" type="curve" smooth="yes"/>
      <point x="352.2" y="1248.4" type="line" smooth="yes"/>
      <point x="352.2" y="1284.4"/>
      <point x="368.0" y="1304.6"/>
      <point x="400.2" y="1312.0" type="curve" smooth="yes"/>
      <point x="468.6" y="1322.6" type="line" smooth="yes"/>
      <point x="495.4" y="1329.6"/>
      <point x="509.0" y="1342.6"/>
      <point x="509.0" y="1363.6" type="curve" smooth="yes"/>
      <point x="509.0" y="1385.8"/>
      <point x="493.6" y="1400.0"/>
      <point x="465.2" y="1400.0" type="curve" smooth="yes"/>
      <point x="109.8" y="1400.0" type="line" smooth="yes"/>
      <point x="81.4" y="1400.0"/>
      <point x="66.0" y="1387.4"/>
      <point x="66.0" y="1363.6" type="curve" smooth="yes"/>
      <point x="66.0" y="1342.6"/>
      <point x="79.6" y="1328.8"/>
      <point x="104.8" y="1322.6" type="curve" smooth="yes"/>
      <point x="174.0" y="1312.0" type="line" smooth="yes"/>
      <point x="207.02306450904737" y="1304.880916701501"/>
      <point x="222.0" y="1284.4"/>
      <point x="222.0" y="1248.4" type="curve" smooth="yes"/>
      <point x="222.0" y="159.6" type="line" smooth="yes"/>
      <point x="222.0" y="118.79999999999998"/>
      <point x="207.04995307519124" y="95.12214655286988"/>
      <point x="174.0" y="88.0" type="curve" smooth="yes"/>
      <point x="104.8" y="77.39999999999999" type="line" smooth="yes"/>
      <point x="79.6" y="71.19999999999999"/>
      <point x="66.0" y="57.39999999999999"/>
      <point x="66.0" y="36.4" type="curve" smooth="yes"/>
      <point x="66.0" y="12.599999999999998"/>
      <point x="81.4" y="0.0"/>
      <point x="109.8" y="0.0" type="curve" smooth="yes"/>
      <point x="466.0" y="0.0" type="line" smooth="yes"/>
      <point x="495.2" y="0.0"/>
      <point x="510.6" y="14.2"/>
      <point x="510.6" y="36.4" type="curve" smooth="yes"/>
      <point x="510.6" y="58.19999999999999"/>
      <point x="496.2" y="70.39999999999999"/>
      <point x="470.2" y="77.39999999999999" type="curve" smooth="yes"/>
      <point x="400.2" y="88.79999999999998" type="line" smooth="yes"/>
      <point x="368.0" y="96.19999999999999"/>
      <point x="352.2" y="119.6"/>
    </contour>
  </outline>
</glyph>
<glyph name="L" format="2">
  <advance width="1032.4"/>
  <unicode hex="004C"/>
  <anchor x="851.4" y="1428.0" name="right"/>
  <anchor x="290.4" y="1471.8" name="center"/>
  <outline>
    <contour>
      <point x="468.6" y="1322.6" type="line" smooth="yes"/>
      <point x="495.4" y="1329.6"/>
      <point x="509.0" y="1342.6"/>
      <point x="509.0" y="1363.6" type="curve" smooth="yes"/>
      <point x="509.0" y="1387.4"/>
      <point x="493.6" y="1400.0"/>
      <point x="465.2" y="1400.0" type="curve" smooth="yes"/>
      <point x="109.8" y="1400.0" type="line" smooth="yes"/>
      <point x="81.4" y="1400.0"/>
      <point x="66.0" y="1387.4"/>
      <point x="66.0" y="1363.6" type="curve" smooth="yes"/>
      <point x="66.0" y="1342.6"/>
      <point x="79.6" y="1328.8"/>
      <point x="104.8" y="1322.6" type="curve" smooth="yes"/>
      <point x="174.0" y="1312.0" type="line" smooth="yes"/>
      <point x="207.02306450904734" y="1304.880916701501"/>
      <point x="222.0" y="1284.4"/>
      <point x="222.0" y="1248.4" type="curve" smooth="yes"/>
      <point x="222.0" y="151.6" type="line" smooth="yes"/>
      <point x="222.0" y="115.6"/>
      <point x="206.88194873200354" y="95.10300681757002"/>
      <point x="174.0" y="88.0" type="curve" smooth="yes"/>
      <point x="104.8" y="77.39999999999999" type="line" smooth="yes"/>
      <point x="79.6" y="71.19999999999999"/>
      <point x="66.0" y="57.39999999999999"/>
      <point x="66.0" y="36.4" type="curve" smooth="yes"/>
      <point x="66.0" y="12.599999999999998"/>
      <point x="81.4" y="0.0"/>
      <point x="109.8" y="0.0" type="curve" smooth="yes"/>
      <point x="795.2" y="0.0" type="line" smooth="yes"/>
      <point x="829.6" y="0.0"/>
      <point x="852.8" y="-31.2"/>
      <point x="884.8" y="-31.2" type="curve" smooth="yes"/>
      <point x="910.0" y="-31.2"/>
      <point x="925.0" y="-16.200000000000003"/>
      <point x="933.2" y="17.19999999999999" type="curve" smooth="yes"/>
      <point x="1011.6" y="324.6" type="line" smooth="yes"/>
      <point x="1019.2" y="355.4"/>
      <point x="1010.6" y="373.8"/>
      <point x="986.6" y="378.8" type="curve" smooth="yes"/>
      <point x="966.8" y="382.0"/>
      <point x="950.0" y="372.2"/>
      <point x="938.8" y="340.8" type="curve" smooth="yes"/>
      <point x="897.8" y="218.8" type="line" smooth="yes"/>
      <point x="859.4" y="106.0"/>
      <point x="825.4" y="76.39999999999999"/>
      <point x="759.4" y="76.39999999999999" type="curve" smooth="yes"/>
      <point x="429.4" y="76.39999999999999" type="line" smooth="yes"/>
      <point x="375.8" y="76.39999999999999"/>
      <point x="352.2" y="100.6"/>
      <point x="352.2" y="150.0" type="curve" smooth="yes"/>
      <point x="352.2" y="1248.4" type="line" smooth="yes"/>
      <point x="352.2" y="1284.4"/>
      <point x="368.0" y="1304.6"/>
      <point x="400.2" y="1312.0" type="curve" smooth="yes"/>
    </contour>
  </outline>
</glyph>
<glyph name="M" format="2">
  <advance width="1559.2"/>
  <unicode hex="004D"/>
  <anchor x="763.6" y="1481.4" name="center"/>
  <outline>
    <contour>
      <point x="814.6" y="247.6" type="line"/>
      <point x="393.0" y="1346.4" type="line" smooth="yes"/>
      <point x="378.2" y="1387.6"/>
      <point x="358.8" y="1400.0"/>
      <point x="320.79999999999995" y="1400.0" type="curve" smooth="yes"/>
      <point x="149.4" y="1400.0" type="line" smooth="yes"/>
      <point x="120.6" y="1400.0"/>
      <point x="105.6" y="1387.2"/>
      <point x="105.6" y="1363.6" type="curve" smooth="yes"/>
      <point x="105.6" y="1342.6"/>
      <point x="118.0" y="1330.6"/>
      <point x="145.2" y="1322.6" type="curve" smooth="yes"/>
      <point x="222.2" y="1309.6" type="line" smooth="yes"/>
      <point x="248.6" y="1302.0"/>
      <point x="256.6" y="1274.8"/>
      <point x="254.4" y="1238.0" type="curve" smooth="yes"/>
      <point x="180.2" y="160.4" type="line" smooth="yes"/>
      <point x="177.0" y="116.4"/>
      <point x="165.41711645341874" y="94.37713955667735"/>
      <point x="133.0" y="88.0" type="curve" smooth="yes"/>
      <point x="64.8" y="77.6" type="line" smooth="yes"/>
      <point x="37.6" y="69.6"/>
      <point x="23.6" y="58.0"/>
      <point x="23.6" y="36.4" type="curve" smooth="yes"/>
      <point x="23.6" y="13.0"/>
      <point x="38.2" y="0.0"/>
      <point x="67.39999999999999" y="0.0" type="curve" smooth="yes"/>
      <point x="368.6" y="0.0" type="line" smooth="yes"/>
      <point x="397.8" y="0.0"/>
      <point x="412.4" y="13.399999999999999"/>
      <point x="412.4" y="37.2" type="curve" smooth="yes"/>
      <point x="412.4" y="57.8"/>
      <point x="398.6" y="69.0"/>
      <point x="376.0" y="75.0" type="curve" smooth="yes"/>
      <point x="309.4" y="87.19999999999999" type="line" smooth="yes"/>
      <point x="270.2" y="98.19999999999999"/>
      <point x="258.8" y="119.0"/>
      <point x="261.8" y="161.79999999999998" type="curve" smooth="yes"/>
      <point x="335.4" y="1239.8" type="line"/>
      <point x="304.6" y="1219.4" type="line"/>
      <point x="701.2" y="187.6" type="line" smooth="yes"/>
      <point x="723.0005711931846" y="129.6702764912261"/>
      <point x="740.5" y="119.2"/>
      <point x="764.6" y="119.2" type="curve" smooth="yes"/>
      <point x="788.0" y="119.2"/>
      <point x="805.2966429239784" y="130.38471926529192"/>
      <point x="824.8" y="182.4" type="curve" smooth="yes"/>
      <point x="1218.6" y="1204.6" type="line"/>
      <point x="1186.8" y="1202.6" type="line"/>
      <point x="1266.6" y="154.0" type="line" smooth="yes"/>
      <point x="1269.62631025973" y="114.5506745628027"/>
      <point x="1251.0437187098892" y="94.79991835486251"/>
      <point x="1216.2" y="88.0" type="curve" smooth="yes"/>
      <point x="1146.2" y="77.39999999999999" type="line" smooth="yes"/>
      <point x="1120.8" y="71.0"/>
      <point x="1107.6" y="57.8"/>
      <point x="1107.6" y="36.4" type="curve" smooth="yes"/>
      <point x="1107.6" y="13.0"/>
      <point x="1122.2" y="0.0"/>
      <point x="1151.4" y="0.0" type="curve" smooth="yes"/>
      <point x="1507.0" y="0.0" type="line" smooth="yes"/>
      <point x="1536.0" y="0.0"/>
      <point x="1550.8" y="14.0"/>
      <point x="1550.8" y="37.599999999999994" type="curve" smooth="yes"/>
      <point x="1550.8" y="58.8"/>
      <point x="1536.2" y="72.19999999999999"/>
      <point x="1512.6" y="77.39999999999999" type="curve" smooth="yes"/>
      <point x="1442.8" y="88.0" type="line" smooth="yes"/>
      <point x="1411.8686431108317" y="94.00477765003143"/>
      <point x="1398.4" y="111.6"/>
      <point x="1395.2" y="154.79999999999998" type="curve" smooth="yes"/>
      <point x="1320.4" y="1200.6" type="line" smooth="yes"/>
      <point x="1314.962393847439" y="1276.5528448826585"/>
      <point x="1328.0" y="1301.2"/>
      <point x="1379.8" y="1312.0" type="curve" smooth="yes"/>
      <point x="1433.0" y="1322.6" type="line" smooth="yes"/>
      <point x="1459.4" y="1330.0"/>
      <point x="1473.0" y="1343.0"/>
      <point x="1473.0" y="1363.6" type="curve" smooth="yes"/>
      <point x="1473.0" y="1387.0"/>
      <point x="1457.6" y="1400.0"/>
      <point x="1428.4" y="1400.0" type="curve" smooth="yes"/>
      <point x="1281.4" y="1400.0" type="line" smooth="yes"/>
      <point x="1227.8" y="1400.0"/>
      <point x="1202.0" y="1382.0"/>
      <point x="1181.0" y="1323.2" type="curve" smooth="yes"/>
      <point x="759.2" y="223.0" type="line"/>
    </contour>
  </outline>
</glyph>
<glyph name="N" format="2">
  <advance width="1374.4"/>
  <unicode hex="004E"/>
  <anchor x="681.6" y="1487.4" name="center"/>
  <outline>
    <contour>
      <point x="462.6" y="36.4" type="curve" smooth="yes"/>
      <point x="462.6" y="57.599999999999994"/>
      <point x="448.2" y="69.39999999999999"/>
      <point x="421.2" y="77.6" type="curve" smooth="yes"/>
      <point x="353.2" y="88.0" type="line" smooth="yes"/>
      <point x="320.2" y="95.4"/>
      <point x="303.4" y="114.6"/>
      <point x="303.4" y="153.0" type="curve" smooth="yes"/>
      <point x="303.4" y="1175.4" type="line"/>
      <point x="259.4" y="1140.8" type="line"/>
      <point x="1019.4" y="113.0" type="line" smooth="yes"/>
      <point x="1047.2" y="75.0"/>
      <point x="1049.6" y="61.2"/>
      <point x="1049.6" y="30.0" type="curve" smooth="yes"/>
      <point x="1049.6" y="10.6"/>
      <point x="1060.0" y="0.0"/>
      <point x="1081.0" y="0.0" type="curve" smooth="yes"/>
      <point x="1196.2" y="0.0" type="line" smooth="yes"/>
      <point x="1221.0" y="0.0"/>
      <point x="1232.0" y="13.2"/>
      <point x="1232.0" y="29.799999999999997" type="curve" smooth="yes"/>
      <point x="1232.0" y="40.8"/>
      <point x="1224.6" y="53.8"/>
      <point x="1211.6" y="73.4" type="curve" smooth="yes"/>
      <point x="1169.0" y="131.4" type="line" smooth="yes"/>
      <point x="1156.0773829793127" y="150.41137304888593"/>
      <point x="1152.4" y="171.79999999999998"/>
      <point x="1152.4" y="199.6" type="curve" smooth="yes"/>
      <point x="1152.4" y="1247.0" type="line" smooth="yes"/>
      <point x="1152.4" y="1285.4"/>
      <point x="1168.0" y="1304.4"/>
      <point x="1200.4" y="1312.0" type="curve" smooth="yes"/>
      <point x="1267.8" y="1322.4" type="line" smooth="yes"/>
      <point x="1295.6" y="1330.6"/>
      <point x="1309.0" y="1342.4"/>
      <point x="1309.0" y="1363.6" type="curve" smooth="yes"/>
      <point x="1309.0" y="1387.0"/>
      <point x="1294.4" y="1400.0"/>
      <point x="1265.2" y="1400.0" type="curve" smooth="yes"/>
      <point x="955.6" y="1400.0" type="line" smooth="yes"/>
      <point x="926.6" y="1400.0"/>
      <point x="911.8" y="1387.0"/>
      <point x="911.8" y="1363.6" type="curve" smooth="yes"/>
      <point x="911.8" y="1342.4"/>
      <point x="926.4" y="1330.8"/>
      <point x="953.2" y="1322.4" type="curve" smooth="yes"/>
      <point x="1021.2" y="1312.0" type="line" smooth="yes"/>
      <point x="1055.4" y="1304.2"/>
      <point x="1071.0" y="1285.0"/>
      <point x="1071.0" y="1247.0" type="curve" smooth="yes"/>
      <point x="1071.0" y="167.39999999999998" type="line"/>
      <point x="1099.8" y="222.39999999999998" type="line"/>
      <point x="252.39999999999998" y="1366.8" type="line" smooth="yes"/>
      <point x="234.2" y="1391.6"/>
      <point x="217.59999999999997" y="1400.0"/>
      <point x="188.2" y="1400.0" type="curve" smooth="yes"/>
      <point x="117.6" y="1400.0" type="line" smooth="yes"/>
      <point x="97.6" y="1400.0"/>
      <point x="84.2" y="1388.4"/>
      <point x="84.2" y="1369.8" type="curve" smooth="yes"/>
      <point x="84.2" y="1354.2"/>
      <point x="90.80000000000001" y="1341.6"/>
      <point x="105.2" y="1324.0" type="curve" smooth="yes"/>
      <point x="202.8" y="1198.6" type="line" smooth="yes"/>
      <point x="217.4" y="1180.2"/>
      <point x="222.0" y="1159.0"/>
      <point x="222.0" y="1112.8" type="curve" smooth="yes"/>
      <point x="222.0" y="153.0" type="line" smooth="yes"/>
      <point x="222.0" y="114.79999999999998"/>
      <point x="205.6" y="95.0"/>
      <point x="174.0" y="88.0" type="curve" smooth="yes"/>
      <point x="105.8" y="77.6" type="line" smooth="yes"/>
      <point x="78.8" y="69.39999999999999"/>
      <point x="65.4" y="57.599999999999994"/>
      <point x="65.4" y="36.4" type="curve" smooth="yes"/>
      <point x="65.4" y="13.0"/>
      <point x="80.0" y="0.0"/>
      <point x="109.19999999999999" y="0.0" type="curve" smooth="yes"/>
      <point x="418.8" y="0.0" type="line" smooth="yes"/>
      <point x="447.0" y="0.0"/>
      <point x="462.6" y="13.0"/>
    </contour>
  </outline>
</glyph>
<glyph name="O" format="2">
  <advance width="1409.6"/>
  <unicode hex="004F"/>
  <outline>
    <contour>
      <point x="700.4" y="1418.4" type="curve" smooth="yes"/>
      <point x="325.6" y="1418.4"/>
      <point x="59.2" y="1116.8"/>
      <point x="59.2" y="685.6" type="curve" smooth="yes"/>
      <point x="59.2" y="271.2"/>
      <point x="328.0" y="-23.2"/>
      <point x="703.4" y="-23.2" type="curve" smooth="yes"/>
      <point x="1081.6" y="-23.2"/>
      <point x="1346.4" y="274.8"/>
      <point x="1346.4" y="706.0" type="curve" smooth="yes"/>
      <point x="1346.4" y="1121.2"/>
      <point x="1080.8" y="1418.4"/>
    </contour>
    <contour>
      <point x="1207.0" y="654.8" type="curve" smooth="yes"/>
      <point x="1207.0" y="303.8"/>
      <point x="1007.2" y="60.79999999999998"/>
      <point x="720.4" y="60.79999999999998" type="curve" smooth="yes"/>
      <point x="406.2" y="60.79999999999998"/>
      <point x="198.59999999999997" y="360.0"/>
      <point x="198.59999999999997" y="733.2" type="curve" smooth="yes"/>
      <point x="198.59999999999997" y="1087.4"/>
      <point x="398.4" y="1334.4"/>
      <point x="686.8" y="1334.4" type="curve" smooth="yes"/>
      <point x="998.6" y="1334.4"/>
      <point x="1207.0" y="1031.2"/>
    </contour>
  </outline>
</glyph>
<glyph name="P" format="2">
  <advance width="1090.4"/>
  <unicode hex="0050"/>
  <outline>
    <contour>
      <point x="1067.6" y="912.0" type="curve" smooth="yes"/>
      <point x="1067.6" y="1185.0"/>
      <point x="852.8" y="1400.0"/>
      <point x="486.6" y="1400.0" type="curve" smooth="yes"/>
      <point x="109.8" y="1400.0" type="line" smooth="yes"/>
      <point x="81.4" y="1400.0"/>
      <point x="66.0" y="1387.4"/>
      <point x="66.0" y="1363.6" type="curve" smooth="yes"/>
      <point x="66.0" y="1342.6"/>
      <point x="79.6" y="1328.8"/>
      <point x="104.8" y="1322.6" type="curve" smooth="yes"/>
      <point x="174.0" y="1312.0" type="line" smooth="yes"/>
      <point x="207.02306450904737" y="1304.880916701501"/>
      <point x="222.0" y="1284.6181818181817"/>
      <point x="222.0" y="1248.4" type="curve" smooth="yes"/>
      <point x="222.0" y="151.6" type="line" smooth="yes"/>
      <point x="222.0" y="115.6"/>
      <point x="207.02306450904737" y="95.11908329849908"/>
      <point x="174.0" y="88.0" type="curve" smooth="yes"/>
      <point x="104.8" y="77.39999999999999" type="line" smooth="yes"/>
      <point x="79.6" y="71.19999999999999"/>
      <point x="66.0" y="57.39999999999999"/>
      <point x="66.0" y="36.4" type="curve" smooth="yes"/>
      <point x="66.0" y="12.599999999999998"/>
      <point x="81.4" y="0.0"/>
      <point x="109.8" y="0.0" type="curve" smooth="yes"/>
      <point x="493.6" y="0.0" type="line" smooth="yes"/>
      <point x="522.0" y="0.0"/>
      <point x="537.4" y="12.599999999999998"/>
      <point x="537.4" y="36.4" type="curve" smooth="yes"/>
      <point x="537.4" y="59.8"/>
      <point x="523.0" y="71.39999999999999"/>
      <point x="497.0" y="76.19999999999999" type="curve" smooth="yes"/>
      <point x="399.4" y="88.0" type="line" smooth="yes"/>
      <point x="368.4629498368451" y="92.79657431278872"/>
      <point x="352.2" y="114.6"/>
      <point x="352.2" y="151.6" type="curve" smooth="yes"/>
      <point x="352.2" y="1325.2" type="line"/>
      <point x="483.6" y="1325.2" type="line" smooth="yes"/>
      <point x="766.8" y="1325.2"/>
      <point x="931.8" y="1152.249597483113"/>
      <point x="931.8" y="915.2" type="curve" smooth="yes"/>
      <point x="931.8" y="686.145054945055"/>
      <point x="788.8021164021164" y="560.6"/>
      <point x="577.8" y="560.6" type="curve" smooth="yes"/>
      <point x="509.6" y="560.6"/>
      <point x="387.4" y="572.0"/>
      <point x="297.6" y="633.0" type="curve"/>
      <point x="283.4" y="556.2" type="line"/>
      <point x="368.4" y="504.4"/>
      <point x="494.6" y="481.0"/>
      <point x="602.0" y="481.0" type="curve" smooth="yes"/>
      <point x="875.6278026905829" y="481.0"/>
      <point x="1067.6" y="647.4786026200874"/>
    </contour>
  </outline>
</glyph>
<glyph name="Q" format="2">
  <advance width="1404.8"/>
  <unicode hex="0051"/>
  <outline>
    <contour>
      <point x="700.4" y="1418.4" type="curve" smooth="yes"/>
      <point x="324.8" y="1418.4"/>
      <point x="57.6" y="1116.8"/>
      <point x="57.6" y="685.6" type="curve" smooth="yes"/>
      <point x="57.6" y="271.2"/>
      <point x="327.2" y="-23.2"/>
      <point x="703.4" y="-23.2" type="curve" smooth="yes"/>
      <point x="1081.6" y="-23.2"/>
      <point x="1346.4" y="274.8"/>
      <point x="1346.4" y="706.0" type="curve" smooth="yes"/>
      <point x="1346.4" y="1121.2"/>
      <point x="1080.8" y="1418.4"/>
    </contour>
    <contour>
      <point x="1207.0" y="654.8" type="curve" smooth="yes"/>
      <point x="1207.0" y="303.8"/>
      <point x="1007.2" y="60.79999999999998"/>
      <point x="720.4" y="60.79999999999998" type="curve" smooth="yes"/>
      <point x="406.2" y="60.79999999999998"/>
      <point x="198.59999999999997" y="360.0"/>
      <point x="198.59999999999997" y="734.0" type="curve" smooth="yes"/>
      <point x="198.59999999999997" y="1087.4"/>
      <point x="398.4" y="1334.4"/>
      <point x="686.8" y="1334.4" type="curve" smooth="yes"/>
      <point x="998.6" y="1334.4"/>
      <point x="1207.0" y="1031.2"/>
    </contour>
    <contour>
      <point x="742.4" y="339.2" type="curve" smooth="yes"/>
      <point x="908.9447136945693" y="-152.89966031053302"/>
      <point x="1053.6" y="-263.2"/>
      <point x="1239.4" y="-263.2" type="curve" smooth="yes"/>
      <point x="1296.2" y="-263.2"/>
      <point x="1326.2" y="-249.39999999999998"/>
      <point x="1346.0" y="-216.8" type="curve" smooth="yes"/>
      <point x="1366.2" y="-183.2" type="line" smooth="yes"/>
      <point x="1379.2" y="-162.6"/>
      <point x="1384.0" y="-150.0"/>
      <point x="1384.0" y="-136.2" type="curve" smooth="yes"/>
      <point x="1384.0" y="-119.80000000000001"/>
      <point x="1372.6" y="-111.0"/>
      <point x="1357.8" y="-111.0" type="curve" smooth="yes"/>
      <point x="1333.4" y="-111.0"/>
      <point x="1317.2" y="-151.0"/>
      <point x="1242.6" y="-151.0" type="curve" smooth="yes"/>
      <point x="1088.6" y="-151.0"/>
      <point x="967.1484202266056" y="-59.81814982634235"/>
      <point x="813.8" y="351.2" type="curve" smooth="yes"/>
      <point x="799.0" y="392.4"/>
      <point x="785.8" y="405.0"/>
      <point x="765.8" y="401.8" type="curve" smooth="yes"/>
      <point x="741.4" y="398.8"/>
      <point x="730.6" y="375.4"/>
    </contour>
  </outline>
</glyph>
<glyph name="R" format="2">
  <advance width="1196.0"/>
  <unicode hex="0052"/>
  <anchor x="610.0" y="1476.0" name="center"/>
  <outline>
    <contour>
      <point x="1068.6" y="931.2" type="curve" smooth="yes"/>
      <point x="1068.6" y="1193.5017821782178"/>
      <point x="855.5999999999999" y="1400.0"/>
      <point x="490.79999999999995" y="1400.0" type="curve" smooth="yes"/>
      <point x="109.8" y="1400.0" type="line" smooth="yes"/>
      <point x="81.4" y="1400.0"/>
      <point x="66.0" y="1387.4"/>
      <point x="66.0" y="1363.6" type="curve" smooth="yes"/>
      <point x="66.0" y="1342.6"/>
      <point x="79.6" y="1329.6"/>
      <point x="104.8" y="1322.6" type="curve" smooth="yes"/>
      <point x="166.0" y="1312.0" type="line" smooth="yes"/>
      <point x="203.8" y="1303.8"/>
      <point x="222.0" y="1284.4"/>
      <point x="222.0" y="1248.4" type="curve" smooth="yes"/>
      <point x="222.0" y="151.6" type="line" smooth="yes"/>
      <point x="222.0" y="115.6"/>
      <point x="203.8" y="96.19999999999999"/>
      <point x="166.0" y="88.0" type="curve" smooth="yes"/>
      <point x="104.8" y="77.39999999999999" type="line" smooth="yes"/>
      <point x="79.6" y="70.39999999999999"/>
      <point x="66.0" y="57.39999999999999"/>
      <point x="66.0" y="36.4" type="curve" smooth="yes"/>
      <point x="66.0" y="12.599999999999998"/>
      <point x="81.4" y="0.0"/>
      <point x="109.8" y="0.0" type="curve" smooth="yes"/>
      <point x="466.0" y="0.0" type="line" smooth="yes"/>
      <point x="493.6" y="0.0"/>
      <point x="509.79999999999995" y="12.599999999999998"/>
      <point x="509.79999999999995" y="36.4" type="curve" smooth="yes"/>
      <point x="509.79999999999995" y="58.19999999999999"/>
      <point x="495.4" y="70.39999999999999"/>
      <point x="468.6" y="77.39999999999999" type="curve" smooth="yes"/>
      <point x="400.2" y="88.79999999999998" type="line" smooth="yes"/>
      <point x="368.0" y="96.19999999999999"/>
      <point x="352.2" y="116.4"/>
      <point x="352.2" y="151.6" type="curve" smooth="yes"/>
      <point x="352.2" y="1322.0" type="line"/>
      <point x="486.6" y="1322.0" type="line" smooth="yes"/>
      <point x="768.8" y="1322.0"/>
      <point x="933.2" y="1156.4925081433225"/>
      <point x="933.2" y="932.0" type="curve" smooth="yes"/>
      <point x="933.2" y="727.8990654205608"/>
      <point x="801.2" y="602.6"/>
      <point x="578.8" y="602.6" type="curve" smooth="yes"/>
      <point x="512.0" y="602.6"/>
      <point x="389.6" y="611.2"/>
      <point x="306.0" y="667.0" type="curve"/>
      <point x="295.6" y="594.2" type="line"/>
      <point x="373.79999999999995" y="546.6"/>
      <point x="495.79999999999995" y="523.4"/>
      <point x="596.8" y="523.4" type="curve" smooth="yes"/>
      <point x="662.5999999999999" y="523.4"/>
      <point x="700.8144959650499" y="534.2372265724466"/>
      <point x="755.2" y="544.8" type="curve" smooth="yes"/>
      <point x="943.8477764547117" y="587.4090092743171"/>
      <point x="1068.6" y="734.1476056338029"/>
    </contour>
    <contour>
      <point x="647.6" y="567.0" type="line"/>
      <point x="891.6" y="132.8" type="line" smooth="yes"/>
      <point x="909.6" y="99.8"/>
      <point x="905.8" y="84.0"/>
      <point x="882.2" y="80.39999999999999" type="curve" smooth="yes"/>
      <point x="819.2" y="72.19999999999999" type="line" smooth="yes"/>
      <point x="796.2" y="67.39999999999999"/>
      <point x="783.4" y="55.39999999999999"/>
      <point x="783.4" y="36.4" type="curve" smooth="yes"/>
      <point x="783.4" y="12.399999999999999"/>
      <point x="798.4" y="0.0"/>
      <point x="827.2" y="0.0" type="curve" smooth="yes"/>
      <point x="1144.4" y="0.0" type="line" smooth="yes"/>
      <point x="1173.4" y="0.0"/>
      <point x="1188.2" y="13.0"/>
      <point x="1188.2" y="36.4" type="curve" smooth="yes"/>
      <point x="1188.2" y="60.8"/>
      <point x="1173.6" y="72.39999999999999"/>
      <point x="1118.4" y="82.19999999999999" type="curve" smooth="yes"/>
      <point x="1076.0" y="90.6"/>
      <point x="1062.0" y="99.79999999999998"/>
      <point x="1043.2" y="132.6" type="curve" smooth="yes"/>
      <point x="776.2" y="587.6" type="line"/>
    </contour>
  </outline>
</glyph>
<glyph name="S" format="2">
  <advance width="983.8"/>
  <unicode hex="0053"/>
  <anchor x="554.4" y="1607.0" name="center"/>
  <outline>
    <contour>
      <point x="532.0" y="-30.4" type="curve" smooth="yes"/>
      <point x="760.8" y="-30.4"/>
      <point x="910.6" y="108.39999999999999"/>
      <point x="911.4" y="308.4" type="curve" smooth="yes"/>
      <point x="912.2" y="502.6"/>
      <point x="817.9170855439941" y="617.1783919097168"/>
      <point x="526.6" y="738.0" type="curve" smooth="yes"/>
      <point x="259.1257200887918" y="846.5075221001256"/>
      <point x="195.0" y="951.6"/>
      <point x="195.0" y="1090.6" type="curve" smooth="yes"/>
      <point x="195.0" y="1242.0"/>
      <point x="307.7714285714286" y="1344.4"/>
      <point x="462.0" y="1344.4" type="curve" smooth="yes"/>
      <point x="645.7919191919192" y="1344.4"/>
      <point x="778.6445402649823" y="1254.254044977827"/>
      <point x="848.2" y="1048.4" type="curve" smooth="yes"/>
      <point x="858.2" y="1022.0"/>
      <point x="879.2" y="1013.2"/>
      <point x="900.4" y="1021.0" type="curve" smooth="yes"/>
      <point x="922.8" y="1029.0"/>
      <point x="929.0" y="1048.0"/>
      <point x="920.2" y="1076.8" type="curve" smooth="yes"/>
      <point x="832.4" y="1371.0" type="line" smooth="yes"/>
      <point x="821.6585637797656" y="1406.7679304278977"/>
      <point x="812.2" y="1419.6"/>
      <point x="788.0" y="1419.6" type="curve" smooth="yes"/>
      <point x="740.0" y="1419.6"/>
      <point x="763.0" y="1344.4"/>
      <point x="735.8" y="1344.4" type="curve" smooth="yes"/>
      <point x="708.0" y="1344.4"/>
      <point x="631.0" y="1426.4"/>
      <point x="455.6" y="1425.6" type="curve" smooth="yes"/>
      <point x="230.6" y="1424.8"/>
      <point x="72.0" y="1269.0"/>
      <point x="72.0" y="1060.2" type="curve" smooth="yes"/>
      <point x="72.0" y="870.4"/>
      <point x="173.00086021683467" y="731.3180490315315"/>
      <point x="434.0" y="631.2" type="curve" smooth="yes"/>
      <point x="731.7836876750428" y="515.9973895262162"/>
      <point x="791.6" y="418.4"/>
      <point x="790.0" y="284.4" type="curve" smooth="yes"/>
      <point x="788.4000034048871" y="140.400274093414"/>
      <point x="678.0" y="50.0"/>
      <point x="530.6" y="50.0" type="curve" smooth="yes"/>
      <point x="340.68661417322835" y="50.0"/>
      <point x="223.23859277894988" y="144.26932620460826"/>
      <point x="160.6" y="327.0" type="curve" smooth="yes"/>
      <point x="147.6" y="356.6"/>
      <point x="134.2" y="365.2"/>
      <point x="111.8" y="359.8" type="curve" smooth="yes"/>
      <point x="90.2" y="355.0"/>
      <point x="80.6" y="335.2"/>
      <point x="86.6" y="309.6" type="curve" smooth="yes"/>
      <point x="155.8" y="22.799999999999997" type="line" smooth="yes"/>
      <point x="161.8" y="-5.600000000000001"/>
      <point x="177.6" y="-21.2"/>
      <point x="201.2" y="-21.2" type="curve" smooth="yes"/>
      <point x="245.6" y="-21.2"/>
      <point x="212.24" y="65.0"/>
      <point x="239.2" y="65.0" type="curve" smooth="yes"/>
      <point x="261.72131147540983" y="65.0"/>
      <point x="341.2" y="-30.4"/>
    </contour>
  </outline>
</glyph>
<glyph name="T" format="2">
  <advance width="1144.2"/>
  <unicode hex="0054"/>
  <outline>
    <contour>
      <point x="241.2" y="1400.0" type="line" smooth="yes"/>
      <point x="199.6" y="1400.0"/>
      <point x="185.8" y="1440.2"/>
      <point x="150.6" y="1440.2" type="curve" smooth="yes"/>
      <point x="123.0" y="1440.2"/>
      <point x="108.8" y="1424.6"/>
      <point x="100.8" y="1391.8" type="curve" smooth="yes"/>
      <point x="37.6" y="1117.4" type="line" smooth="yes"/>
      <point x="30.200000000000003" y="1085.6"/>
      <point x="41.0" y="1066.4"/>
      <point x="63.0" y="1062.4" type="curve" smooth="yes"/>
      <point x="84.2" y="1057.8"/>
      <point x="101.6" y="1069.2"/>
      <point x="112.0" y="1099.6" type="curve" smooth="yes"/>
      <point x="166.63819281601974" y="1292.1406673544354"/>
      <point x="189.6" y="1323.2"/>
      <point x="277.79999999999995" y="1323.2" type="curve" smooth="yes"/>
      <point x="505.8" y="1323.2" type="line"/>
      <point x="505.8" y="151.6" type="line" smooth="yes"/>
      <point x="505.8" y="115.6"/>
      <point x="490.8" y="93.79999999999998"/>
      <point x="458.6" y="88.0" type="curve" smooth="yes"/>
      <point x="358.2" y="77.39999999999999" type="line" smooth="yes"/>
      <point x="333.0" y="71.19999999999999"/>
      <point x="318.6" y="57.39999999999999"/>
      <point x="318.6" y="36.4" type="curve" smooth="yes"/>
      <point x="318.6" y="12.599999999999998"/>
      <point x="334.0" y="0.0"/>
      <point x="362.4" y="0.0" type="curve" smooth="yes"/>
      <point x="786.6" y="0.0" type="line" smooth="yes"/>
      <point x="815.8" y="0.0"/>
      <point x="830.4" y="12.599999999999998"/>
      <point x="830.4" y="36.4" type="curve" smooth="yes"/>
      <point x="830.4" y="57.39999999999999"/>
      <point x="816.8" y="71.19999999999999"/>
      <point x="790.8" y="77.39999999999999" type="curve" smooth="yes"/>
      <point x="690.4" y="88.0" type="line" smooth="yes"/>
      <point x="655.8" y="94.6"/>
      <point x="637.5999999999999" y="115.6"/>
      <point x="637.5999999999999" y="151.6" type="curve" smooth="yes"/>
      <point x="637.5999999999999" y="1323.2" type="line"/>
      <point x="853.6" y="1323.2" type="line" smooth="yes"/>
      <point x="944.4" y="1323.2"/>
      <point x="977.7557406108899" y="1289.9459562797504"/>
      <point x="1032.4" y="1099.6" type="curve" smooth="yes"/>
      <point x="1042.8" y="1069.2"/>
      <point x="1061.8" y="1057.8"/>
      <point x="1082.2" y="1062.4" type="curve" smooth="yes"/>
      <point x="1104.0" y="1066.4"/>
      <point x="1114.8" y="1085.6"/>
      <point x="1107.4" y="1117.4" type="curve" smooth="yes"/>
      <point x="1042.6" y="1390.2" type="line" smooth="yes"/>
      <point x="1034.6" y="1423.0"/>
      <point x="1020.4" y="1438.6"/>
      <point x="992.8" y="1438.6" type="curve" smooth="yes"/>
      <point x="961.6" y="1438.6"/>
      <point x="945.6" y="1400.0"/>
      <point x="913.6" y="1400.0" type="curve" smooth="yes"/>
    </contour>
  </outline>
</glyph>
<glyph name="U" format="2">
  <advance width="1288.4"/>
  <unicode hex="0055"/>
  <anchor x="685.8" y="1459.8" name="center"/>
  <outline>
    <contour>
      <point x="1031.4" y="575.0" type="line" smooth="yes"/>
      <point x="1034.0" y="524.8"/>
      <point x="1035.4" y="478.4"/>
      <point x="1038.6" y="395.2" type="curve" smooth="yes"/>
      <point x="1048.2" y="184.0"/>
      <point x="913.8" y="61.599999999999994"/>
      <point x="672.0" y="61.599999999999994" type="curve" smooth="yes"/>
      <point x="437.2" y="61.599999999999994"/>
      <point x="294.2" y="181.6"/>
      <point x="301.4" y="401.6" type="curve" smooth="yes"/>
      <point x="305.4" y="473.2"/>
      <point x="306.59999999999997" y="551.8"/>
      <point x="312.2" y="654.2" type="curve" smooth="yes"/>
      <point x="346.2" y="1253.2" type="line" smooth="yes"/>
      <point x="348.4" y="1287.6"/>
      <point x="359.8" y="1306.2"/>
      <point x="392.59999999999997" y="1312.0" type="curve" smooth="yes"/>
      <point x="456.6" y="1322.0" type="line" smooth="yes"/>
      <point x="485.4" y="1327.8"/>
      <point x="500.8" y="1340.0"/>
      <point x="500.8" y="1363.2" type="curve" smooth="yes"/>
      <point x="500.8" y="1386.4"/>
      <point x="486.4" y="1400.0"/>
      <point x="458.4" y="1400.0" type="curve" smooth="yes"/>
      <point x="90.2" y="1400.0" type="line" smooth="yes"/>
      <point x="63.0" y="1400.0"/>
      <point x="46.800000000000004" y="1386.4"/>
      <point x="46.800000000000004" y="1363.2" type="curve" smooth="yes"/>
      <point x="46.800000000000004" y="1340.0"/>
      <point x="62.8" y="1327.2"/>
      <point x="92.0" y="1321.6" type="curve" smooth="yes"/>
      <point x="167.6" y="1312.0" type="line" smooth="yes"/>
      <point x="202.0" y="1306.2"/>
      <point x="217.0" y="1285.6"/>
      <point x="214.8" y="1248.0" type="curve" smooth="yes"/>
      <point x="181.4" y="648.2" type="line" smooth="yes"/>
      <point x="176.8" y="570.6"/>
      <point x="169.6" y="444.0"/>
      <point x="168.0" y="381.0" type="curve" smooth="yes"/>
      <point x="160.8" y="131.6"/>
      <point x="324.0" y="-28.0"/>
      <point x="642.2" y="-28.0" type="curve" smooth="yes"/>
      <point x="958.2" y="-28.0"/>
      <point x="1132.2" y="140.6"/>
      <point x="1121.8" y="382.4" type="curve" smooth="yes"/>
      <point x="1118.6" y="449.6"/>
      <point x="1115.6" y="510.2"/>
      <point x="1112.8" y="575.4" type="curve" smooth="yes"/>
      <point x="1086.6" y="1255.2" type="line" smooth="yes"/>
      <point x="1084.8" y="1287.8"/>
      <point x="1100.8" y="1306.0"/>
      <point x="1136.0" y="1312.0" type="curve" smooth="yes"/>
      <point x="1203.6" y="1322.0" type="line" smooth="yes"/>
      <point x="1231.8" y="1328.2"/>
      <point x="1247.8" y="1340.2"/>
      <point x="1247.8" y="1363.2" type="curve" smooth="yes"/>
      <point x="1247.8" y="1386.4"/>
      <point x="1232.6" y="1400.0"/>
      <point x="1205.4" y="1400.0" type="curve" smooth="yes"/>
      <point x="873.6" y="1400.0" type="line" smooth="yes"/>
      <point x="847.2" y="1400.0"/>
      <point x="831.2" y="1386.4"/>
      <point x="831.2" y="1363.2" type="curve" smooth="yes"/>
      <point x="831.2" y="1340.2"/>
      <point x="846.8" y="1327.2"/>
      <point x="875.4" y="1321.8" type="curve" smooth="yes"/>
      <point x="946.2" y="1312.0" type="line" smooth="yes"/>
      <point x="977.8" y="1307.0"/>
      <point x="992.4" y="1293.8"/>
      <point x="994.2" y="1258.2" type="curve" smooth="yes"/>
    </contour>
  </outline>
</glyph>
<glyph name="V" format="2">
  <advance width="1206.2"/>
  <unicode hex="0056"/>
  <outline>
    <contour>
      <point x="826.8" y="1363.6" type="curve" smooth="yes"/>
      <point x="826.8" y="1342.6"/>
      <point x="842.0" y="1330.2"/>
      <point x="866.2" y="1324.6" type="curve" smooth="yes"/>
      <point x="950.6" y="1313.4" type="line" smooth="yes"/>
      <point x="993.2" y="1305.8"/>
      <point x="1003.2" y="1287.6"/>
      <point x="986.2" y="1236.6" type="curve" smooth="yes"/>
      <point x="599.4" y="74.2" type="line"/>
      <point x="644.6" y="114.6" type="line"/>
      <point x="263.59999999999997" y="1251.4" type="line" smooth="yes"/>
      <point x="249.2" y="1293.6"/>
      <point x="256.4" y="1306.4"/>
      <point x="290.0" y="1313.2" type="curve" smooth="yes"/>
      <point x="373.59999999999997" y="1324.4" type="line" smooth="yes"/>
      <point x="399.4" y="1330.4"/>
      <point x="413.79999999999995" y="1342.4"/>
      <point x="413.79999999999995" y="1363.6" type="curve" smooth="yes"/>
      <point x="413.79999999999995" y="1387.0"/>
      <point x="398.59999999999997" y="1400.0"/>
      <point x="369.2" y="1400.0" type="curve" smooth="yes"/>
      <point x="39.39999999999999" y="1400.0" type="line" smooth="yes"/>
      <point x="10.399999999999999" y="1400.0"/>
      <point x="-4.400000000000002" y="1387.0"/>
      <point x="-4.400000000000002" y="1363.6" type="curve" smooth="yes"/>
      <point x="-4.400000000000002" y="1342.6"/>
      <point x="8.0" y="1330.6"/>
      <point x="32.8" y="1324.0" type="curve" smooth="yes"/>
      <point x="74.2" y="1316.0" type="line" smooth="yes"/>
      <point x="99.19194792109175" y="1309.1344069438544"/>
      <point x="111.34195899453084" y="1292.3798949282068"/>
      <point x="123.8" y="1255.8" type="curve" smooth="yes"/>
      <point x="497.4" y="144.6" type="line" smooth="yes"/>
      <point x="505.7043620925451" y="119.5687802544209"/>
      <point x="513.4" y="98.71111111111111"/>
      <point x="513.4" y="75.8" type="curve" smooth="yes"/>
      <point x="513.4" y="52.199999999999996" type="line" smooth="yes"/>
      <point x="513.4" y="18.2"/>
      <point x="527.2" y="0.0"/>
      <point x="552.6" y="0.0" type="curve" smooth="yes"/>
      <point x="652.0" y="0.0" type="line" smooth="yes"/>
      <point x="675.0" y="0.0"/>
      <point x="689.4" y="18.4"/>
      <point x="689.4" y="51.599999999999994" type="curve" smooth="yes"/>
      <point x="689.4" y="75.0" type="line" smooth="yes"/>
      <point x="689.4" y="98.56923076923077"/>
      <point x="697.5236675078668" y="122.85205690813184"/>
      <point x="706.4" y="149.0" type="curve" smooth="yes"/>
      <point x="1071.2" y="1243.2" type="line" smooth="yes"/>
      <point x="1087.2" y="1290.6"/>
      <point x="1105.6" y="1309.8"/>
      <point x="1130.4" y="1316.6" type="curve" smooth="yes"/>
      <point x="1172.4" y="1324.6" type="line" smooth="yes"/>
      <point x="1197.8" y="1331.8"/>
      <point x="1211.8" y="1342.6"/>
      <point x="1211.8" y="1363.6" type="curve" smooth="yes"/>
      <point x="1211.8" y="1385.2"/>
      <point x="1197.2" y="1400.0"/>
      <point x="1167.2" y="1400.0" type="curve" smooth="yes"/>
      <point x="870.6" y="1400.0" type="line" smooth="yes"/>
      <point x="841.4" y="1400.0"/>
      <point x="826.8" y="1387.0"/>
    </contour>
  </outline>
</glyph>
<glyph name="W" format="2">
  <advance width="1821.0"/>
  <unicode hex="0057"/>
  <anchor x="875.8" y="1530.4" name="center"/>
  <outline>
    <contour>
      <point x="893.6" y="1164.4" type="line"/>
      <point x="559.8" y="77.19999999999999" type="line"/>
      <point x="604.0" y="116.6" type="line"/>
      <point x="270.2" y="1231.4" type="line" smooth="yes"/>
      <point x="251.0" y="1294.8"/>
      <point x="256.4" y="1309.0"/>
      <point x="290.4" y="1315.2" type="curve" smooth="yes"/>
      <point x="372.4" y="1325.2" type="line" smooth="yes"/>
      <point x="397.2" y="1330.6"/>
      <point x="411.2" y="1343.0"/>
      <point x="411.2" y="1363.6" type="curve" smooth="yes"/>
      <point x="411.2" y="1387.0"/>
      <point x="396.0" y="1400.0"/>
      <point x="367.59999999999997" y="1400.0" type="curve" smooth="yes"/>
      <point x="40.19999999999999" y="1400.0" type="line" smooth="yes"/>
      <point x="11.199999999999996" y="1400.0"/>
      <point x="-2.8000000000000007" y="1387.0"/>
      <point x="-2.8000000000000007" y="1363.6" type="curve" smooth="yes"/>
      <point x="-2.8000000000000007" y="1342.2"/>
      <point x="9.599999999999998" y="1331.6"/>
      <point x="34.599999999999994" y="1324.0" type="curve" smooth="yes"/>
      <point x="76.0" y="1313.6" type="line" smooth="yes"/>
      <point x="100.8" y="1305.6"/>
      <point x="114.4" y="1291.2"/>
      <point x="125.4" y="1255.8" type="curve" smooth="yes"/>
      <point x="459.0" y="150.6" type="line" smooth="yes"/>
      <point x="467.2" y="123.6"/>
      <point x="473.2" y="98.19999999999999"/>
      <point x="473.2" y="75.19999999999999" type="curve" smooth="yes"/>
      <point x="473.2" y="48.199999999999996" type="line" smooth="yes"/>
      <point x="473.2" y="16.6"/>
      <point x="486.6" y="0.0"/>
      <point x="512.4" y="0.0" type="curve" smooth="yes"/>
      <point x="614.0" y="0.0" type="line" smooth="yes"/>
      <point x="636.4" y="0.0"/>
      <point x="650.8" y="16.6"/>
      <point x="650.8" y="48.199999999999996" type="curve" smooth="yes"/>
      <point x="650.8" y="76.6" type="line" smooth="yes"/>
      <point x="650.8" y="100.8"/>
      <point x="655.2" y="123.39999999999999"/>
      <point x="667.5999999999999" y="163.2" type="curve" smooth="yes"/>
      <point x="960.8" y="1119.4" type="line"/>
    </contour>
    <contour>
      <point x="1453.2" y="1363.6" type="curve" smooth="yes"/>
      <point x="1453.2" y="1343.2"/>
      <point x="1466.8" y="1330.2"/>
      <point x="1491.0" y="1326.0" type="curve" smooth="yes"/>
      <point x="1573.4" y="1315.2" type="line" smooth="yes"/>
      <point x="1621.8" y="1306.8"/>
      <point x="1627.4" y="1289.4"/>
      <point x="1609.0" y="1227.8" type="curve" smooth="yes"/>
      <point x="1267.6" y="74.0" type="line"/>
      <point x="1309.6" y="113.39999999999998" type="line"/>
      <point x="989.4" y="1231.4" type="line" smooth="yes"/>
      <point x="970.8" y="1296.2"/>
      <point x="974.5999999999999" y="1308.4"/>
      <point x="1008.4" y="1314.2" type="curve" smooth="yes"/>
      <point x="1091.0" y="1324.4" type="line" smooth="yes"/>
      <point x="1116.6" y="1330.6"/>
      <point x="1130.4" y="1342.6"/>
      <point x="1130.4" y="1363.6" type="curve" smooth="yes"/>
      <point x="1130.4" y="1387.0"/>
      <point x="1115.8" y="1400.0"/>
      <point x="1086.6" y="1400.0" type="curve" smooth="yes"/>
      <point x="764.8" y="1400.0" type="line" smooth="yes"/>
      <point x="736.8" y="1400.0"/>
      <point x="721.0" y="1387.0"/>
      <point x="721.0" y="1363.6" type="curve" smooth="yes"/>
      <point x="721.0" y="1343.0"/>
      <point x="733.0" y="1333.6"/>
      <point x="758.4" y="1326.4" type="curve" smooth="yes"/>
      <point x="797.0" y="1317.2" type="line" smooth="yes"/>
      <point x="819.8" y="1311.0"/>
      <point x="835.8" y="1295.6"/>
      <point x="847.0" y="1255.8" type="curve" smooth="yes"/>
      <point x="1162.6" y="155.4" type="line" smooth="yes"/>
      <point x="1173.8" y="116.19999999999999"/>
      <point x="1178.4" y="102.8"/>
      <point x="1178.4" y="77.0" type="curve" smooth="yes"/>
      <point x="1178.4" y="52.199999999999996" type="line" smooth="yes"/>
      <point x="1178.4" y="18.2"/>
      <point x="1192.0" y="0.0"/>
      <point x="1216.8" y="0.0" type="curve" smooth="yes"/>
      <point x="1322.4" y="0.0" type="line" smooth="yes"/>
      <point x="1345.0" y="0.0"/>
      <point x="1357.6" y="18.2"/>
      <point x="1357.6" y="52.199999999999996" type="curve" smooth="yes"/>
      <point x="1357.6" y="78.19999999999999" type="line" smooth="yes"/>
      <point x="1357.6" y="103.2"/>
      <point x="1364.8" y="126.6"/>
      <point x="1376.0" y="164.0" type="curve" smooth="yes"/>
      <point x="1689.8" y="1224.8" type="line" smooth="yes"/>
      <point x="1707.6" y="1284.2"/>
      <point x="1723.0" y="1306.0"/>
      <point x="1753.2" y="1314.2" type="curve" smooth="yes"/>
      <point x="1795.0" y="1324.6" type="line" smooth="yes"/>
      <point x="1820.8" y="1332.8"/>
      <point x="1833.8" y="1343.0"/>
      <point x="1833.8" y="1363.6" type="curve" smooth="yes"/>
      <point x="1833.8" y="1385.2"/>
      <point x="1819.0" y="1400.0"/>
      <point x="1790.0" y="1400.0" type="curve" smooth="yes"/>
      <point x="1497.0" y="1400.0" type="line" smooth="yes"/>
      <point x="1467.2" y="1400.0"/>
      <point x="1453.2" y="1387.0"/>
    </contour>
  </outline>
</glyph>
<glyph name="X" format="2">
  <advance width="1267.2"/>
  <unicode hex="0058"/>
  <outline>
    <contour>
      <point x="1058.8" y="177.0" type="curve" smooth="yes"/>
      <point x="366.59999999999997" y="1221.2" type="line" smooth="yes"/>
      <point x="332.39235410002726" y="1272.6462312711124"/>
      <point x="341.80222839750246" y="1304.2252785496878"/>
      <point x="395.2" y="1314.2" type="curve" smooth="yes"/>
      <point x="462.2" y="1324.0" type="line" smooth="yes"/>
      <point x="487.59999999999997" y="1331.0"/>
      <point x="499.59999999999997" y="1343.0"/>
      <point x="499.59999999999997" y="1363.6" type="curve" smooth="yes"/>
      <point x="499.59999999999997" y="1386.8"/>
      <point x="485.2" y="1400.0"/>
      <point x="455.79999999999995" y="1400.0" type="curve" smooth="yes"/>
      <point x="78.8" y="1400.0" type="line" smooth="yes"/>
      <point x="48.8" y="1400.0"/>
      <point x="34.2" y="1387.0"/>
      <point x="34.2" y="1363.6" type="curve" smooth="yes"/>
      <point x="34.2" y="1345.6"/>
      <point x="41.6" y="1335.8"/>
      <point x="87.2" y="1322.2" type="curve" smooth="yes"/>
      <point x="149.692952311479" y="1309.1483025332684"/>
      <point x="169.0" y="1286.8"/>
      <point x="225.8" y="1200.8" type="curve" smooth="yes"/>
      <point x="920.4" y="149.0" type="line" smooth="yes"/>
      <point x="948.8" y="106.0"/>
      <point x="942.0" y="94.0"/>
      <point x="859.4" y="81.8" type="curve" smooth="yes"/>
      <point x="798.4" y="72.0"/>
      <point x="784.2" y="58.05"/>
      <point x="784.2" y="36.4" type="curve" smooth="yes"/>
      <point x="784.2" y="13.0"/>
      <point x="798.2" y="0.0"/>
      <point x="828.0" y="0.0" type="curve" smooth="yes"/>
      <point x="1205.0" y="0.0" type="line" smooth="yes"/>
      <point x="1233.2" y="0.0"/>
      <point x="1248.8" y="13.0"/>
      <point x="1248.8" y="36.4" type="curve" smooth="yes"/>
      <point x="1248.8" y="59.599999999999994"/>
      <point x="1232.4" y="71.0"/>
      <point x="1203.2" y="78.19999999999999" type="curve" smooth="yes"/>
      <point x="1127.6455247480326" y="90.29939948390953"/>
      <point x="1108.4415518235512" y="102.2791808834512"/>
    </contour>
    <contour>
      <point x="675.2" y="688.8" type="line"/>
      <point x="1008.6" y="1176.0" type="line" smooth="yes"/>
      <point x="1077.6082156424993" y="1276.5866762360538"/>
      <point x="1096.0997395599024" y="1303.5499565933171"/>
      <point x="1144.6" y="1314.0" type="curve" smooth="yes"/>
      <point x="1207.8" y="1330.8"/>
      <point x="1220.8" y="1344.0"/>
      <point x="1220.8" y="1364.2" type="curve" smooth="yes"/>
      <point x="1220.8" y="1387.4"/>
      <point x="1206.2" y="1400.0"/>
      <point x="1176.2" y="1400.0" type="curve" smooth="yes"/>
      <point x="848.4" y="1400.0" type="line" smooth="yes"/>
      <point x="819.8" y="1400.0"/>
      <point x="805.6" y="1387.0"/>
      <point x="805.6" y="1363.6" type="curve" smooth="yes"/>
      <point x="805.6" y="1342.4"/>
      <point x="818.0" y="1331.4"/>
      <point x="844.6" y="1323.2" type="curve" smooth="yes"/>
      <point x="935.4" y="1312.2" type="line" smooth="yes"/>
      <point x="978.6" y="1304.8"/>
      <point x="984.6" y="1274.8"/>
      <point x="955.2" y="1232.2" type="curve" smooth="yes"/>
      <point x="622.8" y="746.0" type="line"/>
    </contour>
    <contour>
      <point x="574.2" y="740.4" type="line"/>
      <point x="195.6" y="177.79999999999998" type="line" smooth="yes"/>
      <point x="158.96640072320665" y="123.94960108480998"/>
      <point x="116.27445357220566" y="94.82492994515457"/>
      <point x="76.8" y="84.0" type="curve" smooth="yes"/>
      <point x="30.8" y="72.19999999999999"/>
      <point x="20.0" y="55.599999999999994"/>
      <point x="20.0" y="37.199999999999996" type="curve" smooth="yes"/>
      <point x="20.0" y="13.0"/>
      <point x="35.4" y="0.0"/>
      <point x="63.8" y="0.0" type="curve" smooth="yes"/>
      <point x="384.0" y="0.0" type="line" smooth="yes"/>
      <point x="411.4" y="0.0"/>
      <point x="426.6" y="13.2"/>
      <point x="426.6" y="36.4" type="curve" smooth="yes"/>
      <point x="426.6" y="57.599999999999994"/>
      <point x="414.2" y="68.8"/>
      <point x="387.8" y="75.39999999999999" type="curve" smooth="yes"/>
      <point x="330.4" y="82.39999999999999" type="line" smooth="yes"/>
      <point x="243.46603744307313" y="93.25417011447084"/>
      <point x="238.79375898924604" y="107.37780613269085"/>
      <point x="273.4" y="159.0" type="curve" smooth="yes"/>
      <point x="630.8" y="692.4" type="line"/>
    </contour>
  </outline>
</glyph>
<glyph name="Y" format="2">
  <advance width="1199.0"/>
  <unicode hex="0059"/>
  <anchor x="638.0" y="1424.6" name="center"/>
  <outline>
    <contour>
      <point x="639.0" y="431.4" type="line"/>
      <point x="1038.2" y="1236.8" type="line" smooth="yes"/>
      <point x="1069.2" y="1298.8"/>
      <point x="1079.4" y="1311.4"/>
      <point x="1121.6" y="1319.4" type="curve" smooth="yes"/>
      <point x="1141.0" y="1322.8" type="line" smooth="yes"/>
      <point x="1180.0" y="1330.8"/>
      <point x="1185.2" y="1347.0"/>
      <point x="1185.2" y="1363.6" type="curve" smooth="yes"/>
      <point x="1185.2" y="1385.2"/>
      <point x="1170.6" y="1400.0"/>
      <point x="1141.4" y="1400.0" type="curve" smooth="yes"/>
      <point x="853.0" y="1400.0" type="line" smooth="yes"/>
      <point x="823.8" y="1400.0"/>
      <point x="809.2" y="1387.0"/>
      <point x="809.2" y="1363.6" type="curve" smooth="yes"/>
      <point x="809.2" y="1342.6"/>
      <point x="823.2" y="1330.0"/>
      <point x="846.4" y="1324.0" type="curve" smooth="yes"/>
      <point x="914.2" y="1313.4" type="line" smooth="yes"/>
      <point x="966.2" y="1303.2"/>
      <point x="975.2" y="1283.0"/>
      <point x="954.6" y="1241.4" type="curve" smooth="yes"/>
      <point x="585.6" y="494.0" type="line"/>
      <point x="663.0" y="512.4" type="line"/>
      <point x="300.4" y="1249.8" type="line" smooth="yes"/>
      <point x="277.4" y="1297.0"/>
      <point x="283.0" y="1303.2"/>
      <point x="334.4" y="1313.2" type="curve" smooth="yes"/>
      <point x="398.8" y="1321.2" type="line" smooth="yes"/>
      <point x="434.8" y="1329.4"/>
      <point x="450.2" y="1342.2"/>
      <point x="450.2" y="1363.6" type="curve" smooth="yes"/>
      <point x="450.2" y="1387.0"/>
      <point x="432.2" y="1400.0"/>
      <point x="401.6" y="1400.0" type="curve" smooth="yes"/>
      <point x="59.199999999999996" y="1400.0" type="line" smooth="yes"/>
      <point x="29.2" y="1400.0"/>
      <point x="14.6" y="1387.0"/>
      <point x="14.6" y="1363.6" type="curve" smooth="yes"/>
      <point x="14.6" y="1345.2"/>
      <point x="22.4" y="1330.6"/>
      <point x="59.0" y="1322.4" type="curve" smooth="yes"/>
      <point x="93.2" y="1315.2" type="line" smooth="yes"/>
      <point x="121.0" y="1308.8"/>
      <point x="134.4" y="1298.0"/>
      <point x="155.4" y="1255.8" type="curve" smooth="yes"/>
      <point x="567.4" y="422.8" type="line"/>
    </contour>
    <contour>
      <point x="536.2" y="522.2" type="line"/>
      <point x="536.2" y="151.6" type="line" smooth="yes"/>
      <point x="536.2" y="115.6"/>
      <point x="520.4" y="95.4"/>
      <point x="488.2" y="88.0" type="curve" smooth="yes"/>
      <point x="419.0" y="77.39999999999999" type="line" smooth="yes"/>
      <point x="393.8" y="71.19999999999999"/>
      <point x="379.4" y="57.39999999999999"/>
      <point x="379.4" y="36.4" type="curve" smooth="yes"/>
      <point x="379.4" y="12.599999999999998"/>
      <point x="394.8" y="0.0"/>
      <point x="423.2" y="0.0" type="curve" smooth="yes"/>
      <point x="779.4" y="0.0" type="line" smooth="yes"/>
      <point x="807.8" y="0.0"/>
      <point x="823.2" y="12.599999999999998"/>
      <point x="823.2" y="36.4" type="curve" smooth="yes"/>
      <point x="823.2" y="57.39999999999999"/>
      <point x="808.8" y="70.39999999999999"/>
      <point x="782.8" y="77.39999999999999" type="curve" smooth="yes"/>
      <point x="713.6" y="88.0" type="line" smooth="yes"/>
      <point x="682.2" y="94.6"/>
      <point x="666.4" y="115.6"/>
      <point x="666.4" y="151.6" type="curve" smooth="yes"/>
      <point x="666.4" y="522.2" type="line"/>
    </contour>
  </outline>
</glyph>
<glyph name="Z" format="2">
  <advance width="1099.2"/>
  <unicode hex="005A"/>
  <anchor x="598.4" y="1510.0" name="center"/>
  <outline>
    <contour>
      <point x="989.4" y="1299.2" type="line" smooth="yes"/>
      <point x="1004.6772132261439" y="1323.6322242637275"/>
      <point x="1012.2" y="1340.52"/>
      <point x="1012.2" y="1361.6" type="curve" smooth="yes"/>
      <point x="1012.2" y="1383.5411764705882"/>
      <point x="996.2" y="1400.0"/>
      <point x="964.2" y="1400.0" type="curve" smooth="yes"/>
      <point x="303.0" y="1400.0" type="line" smooth="yes"/>
      <point x="262.2" y="1400.0"/>
      <point x="254.8" y="1437.0"/>
      <point x="216.0" y="1437.0" type="curve" smooth="yes"/>
      <point x="190.6" y="1437.0"/>
      <point x="175.4" y="1421.2"/>
      <point x="168.2" y="1388.6" type="curve" smooth="yes"/>
      <point x="104.4" y="1108.2" type="line" smooth="yes"/>
      <point x="97.4" y="1075.6"/>
      <point x="106.4" y="1057.6"/>
      <point x="127.6" y="1053.4" type="curve" smooth="yes"/>
      <point x="151.8" y="1049.0"/>
      <point x="171.2" y="1062.0"/>
      <point x="183.4" y="1096.6" type="curve" smooth="yes"/>
      <point x="221.8" y="1217.2" type="line" smooth="yes"/>
      <point x="245.95084265903995" y="1288.4257821239767"/>
      <point x="275.04727272727274" y="1324.4"/>
      <point x="332.8" y="1324.4" type="curve" smooth="yes"/>
      <point x="905.8" y="1324.4" type="line"/>
      <point x="875.4" y="1363.4" type="line"/>
      <point x="84.2" y="116.0" type="line" smooth="yes"/>
      <point x="70.49838982976902" y="93.8277787732283"/>
      <point x="58.400000000000006" y="74.32631578947368"/>
      <point x="58.400000000000006" y="48.0" type="curve" smooth="yes"/>
      <point x="58.400000000000006" y="20.351724137931033"/>
      <point x="73.6" y="0.0"/>
      <point x="104.6" y="0.0" type="curve" smooth="yes"/>
      <point x="850.4" y="0.0" type="line" smooth="yes"/>
      <point x="882.2588235294118" y="0.0"/>
      <point x="897.6" y="-27.2"/>
      <point x="930.4" y="-27.2" type="curve" smooth="yes"/>
      <point x="958.8" y="-27.2"/>
      <point x="972.4" y="-12.400000000000002"/>
      <point x="980.2" y="21.19999999999999" type="curve" smooth="yes"/>
      <point x="1050.6" y="348.6" type="line" smooth="yes"/>
      <point x="1057.6" y="379.2"/>
      <point x="1049.2" y="399.0"/>
      <point x="1029.2" y="402.6" type="curve" smooth="yes"/>
      <point x="1009.6" y="405.6"/>
      <point x="993.6" y="397.6"/>
      <point x="983.6" y="371.2" type="curve" smooth="yes"/>
      <point x="937.0" y="210.0" type="line" smooth="yes"/>
      <point x="904.6715775163576" y="103.82679161712922"/>
      <point x="857.0093023255814" y="74.8"/>
      <point x="782.6" y="74.8" type="curve" smooth="yes"/>
      <point x="112.19999999999999" y="74.8" type="line"/>
      <point x="194.2" y="45.599999999999994" type="line"/>
    </contour>
  </outline>
</glyph>
<glyph name="bracketleft" format="2">
  <advance width="527.6"/>
  <unicode hex="005B"/>
  <outline>
    <contour>
      <point x="268.0" y="1350.6" type="line" smooth="yes"/>
      <point x="268.0" y="1377.6"/>
      <point x="278.7514563106796" y="1389.2"/>
      <point x="303.0" y="1389.2" type="curve" smooth="yes"/>
      <point x="461.8" y="1389.2" type="line" smooth="yes"/>
      <point x="486.6" y="1389.2"/>
      <point x="500.79999999999995" y="1402.6"/>
      <point x="500.79999999999995" y="1427.4" type="curve" smooth="yes"/>
      <point x="500.79999999999995" y="1452.4"/>
      <point x="486.6" y="1465.6"/>
      <point x="461.8" y="1465.6" type="curve" smooth="yes"/>
      <point x="215.6" y="1465.6" type="line" smooth="yes"/>
      <point x="178.4" y="1465.6"/>
      <point x="162.4" y="1447.2"/>
      <point x="162.4" y="1408.4" type="curve" smooth="yes"/>
      <point x="162.4" y="-184.8" type="line" smooth="yes"/>
      <point x="162.4" y="-224.4"/>
      <point x="178.4" y="-243.6"/>
      <point x="215.6" y="-243.6" type="curve" smooth="yes"/>
      <point x="461.8" y="-243.6" type="line" smooth="yes"/>
      <point x="486.6" y="-243.6"/>
      <point x="500.79999999999995" y="-229.6"/>
      <point x="500.79999999999995" y="-205.4" type="curve" smooth="yes"/>
      <point x="500.79999999999995" y="-179.8"/>
      <point x="485.79999999999995" y="-167.2"/>
      <point x="461.8" y="-167.2" type="curve" smooth="yes"/>
      <point x="303.0" y="-167.2" type="line" smooth="yes"/>
      <point x="278.7514563106796" y="-167.2"/>
      <point x="268.0" y="-154.8"/>
      <point x="268.0" y="-127.6" type="curve" smooth="yes"/>
    </contour>
  </outline>
</glyph>
<glyph name="asciicircum" format="2">
  <advance width="678.6"/>
  <unicode hex="005E"/>
  <outline>
    <contour>
      <point x="366.79999999999995" y="1337.6" type="line"/>
      <point x="117.0" y="822.0" type="line" smooth="yes"/>
      <point x="94.19999999999999" y="783.2"/>
      <point x="69.2" y="777.0"/>
      <point x="48.0" y="790.6" type="curve" smooth="yes"/>
      <point x="27.799999999999997" y="802.8"/>
      <point x="24.799999999999997" y="829.8"/>
      <point x="40.8" y="863.4" type="curve" smooth="yes"/>
      <point x="271.8" y="1364.2" type="line" smooth="yes"/>
      <point x="299.0" y="1420.2"/>
      <point x="316.8" y="1431.0"/>
      <point x="344.8" y="1431.0" type="curve" smooth="yes"/>
      <point x="373.0" y="1431.0"/>
      <point x="390.79999999999995" y="1419.4"/>
      <point x="417.2" y="1364.2" type="curve" smooth="yes"/>
      <point x="638.6" y="863.4" type="line" smooth="yes"/>
      <point x="654.6" y="829.8"/>
      <point x="651.6" y="802.8"/>
      <point x="632.2" y="790.6" type="curve" smooth="yes"/>
      <point x="610.8" y="777.0"/>
      <point x="585.0" y="783.0"/>
      <point x="563.0" y="822.0" type="curve" smooth="yes"/>
      <point x="322.2" y="1337.6" type="line"/>
    </contour>
  </outline>
</glyph>
<glyph name="underscore" format="2">
  <advance width="669.2"/>
  <unicode hex="005F"/>
  <outline>
    <contour>
      <point x="7.200000000000001" y="-296.8" type="curve" smooth="yes"/>
      <point x="7.200000000000001" y="-323.0"/>
      <point x="16.8" y="-340.6"/>
      <point x="39.4" y="-340.6" type="curve" smooth="yes"/>
      <point x="628.8" y="-340.6" type="line" smooth="yes"/>
      <point x="653.0" y="-340.6"/>
      <point x="662.0" y="-323.0"/>
      <point x="662.0" y="-296.8" type="curve" smooth="yes"/>
      <point x="662.0" y="-269.6"/>
      <point x="653.0" y="-252.2"/>
      <point x="628.8" y="-252.2" type="curve" smooth="yes"/>
      <point x="39.4" y="-252.2" type="line" smooth="yes"/>
      <point x="16.8" y="-252.2"/>
      <point x="7.200000000000001" y="-269.6"/>
    </contour>
  </outline>
</glyph>
<glyph name="a" format="2">
  <advance width="856.2"/>
  <unicode hex="0061"/>
  <anchor x="409.6" y="951.2" name="center"/>
  <outline>
    <contour>
      <point x="595.2" y="100.8" type="line" smooth="yes"/>
      <point x="595.2" y="25.599999999999998"/>
      <point x="642.4" y="-20.0"/>
      <point x="720.8" y="-20.0" type="curve" smooth="yes"/>
      <point x="795.0" y="-20.0"/>
      <point x="839.8" y="24.799999999999997"/>
      <point x="839.8" y="73.39999999999999" type="curve" smooth="yes"/>
      <point x="839.8" y="92.0"/>
      <point x="831.8" y="103.4"/>
      <point x="817.8" y="103.4" type="curve" smooth="yes"/>
      <point x="808.4" y="103.4"/>
      <point x="802.8" y="96.19999999999999"/>
      <point x="797.4" y="88.19999999999999" type="curve" smooth="yes"/>
      <point x="787.8" y="72.0"/>
      <point x="775.8" y="64.6"/>
      <point x="755.8" y="64.6" type="curve" smooth="yes"/>
      <point x="721.4" y="64.6"/>
      <point x="707.2" y="87.6"/>
      <point x="707.2" y="124.6" type="curve" smooth="yes"/>
      <point x="707.2" y="626.0" type="line" smooth="yes"/>
      <point x="707.2" y="787.0"/>
      <point x="601.6" y="879.2"/>
      <point x="431.8" y="879.2" type="curve" smooth="yes"/>
      <point x="223.6" y="879.2"/>
      <point x="111.0" y="772.0"/>
      <point x="111.0" y="652.4" type="curve" smooth="yes"/>
      <point x="111.0" y="607.2"/>
      <point x="130.0" y="575.4"/>
      <point x="177.0" y="575.4" type="curve" smooth="yes"/>
      <point x="223.2" y="575.4"/>
      <point x="247.0" y="603.0"/>
      <point x="247.0" y="655.8" type="curve" smooth="yes"/>
      <point x="247.0" y="698.0" type="line" smooth="yes"/>
      <point x="247.0" y="767.0"/>
      <point x="302.79999999999995" y="815.6"/>
      <point x="408.8" y="815.6" type="curve" smooth="yes"/>
      <point x="518.6" y="815.6"/>
      <point x="588.2" y="749.0"/>
      <point x="588.2" y="624.8" type="curve" smooth="yes"/>
      <point x="588.2" y="134.0" type="line"/>
      <point x="595.2" y="125.6" type="line"/>
    </contour>
    <contour>
      <point x="70.6" y="195.0" type="curve" smooth="yes"/>
      <point x="70.6" y="61.4"/>
      <point x="167.2" y="-20.0"/>
      <point x="321.8" y="-20.0" type="curve" smooth="yes"/>
      <point x="456.4" y="-20.0"/>
      <point x="572.8" y="43.0"/>
      <point x="641.2" y="146.6" type="curve"/>
      <point x="620.0" y="196.6" type="line"/>
      <point x="556.6" y="109.19999999999999"/>
      <point x="465.8" y="58.19999999999999"/>
      <point x="364.4" y="58.19999999999999" type="curve" smooth="yes"/>
      <point x="265.2" y="58.19999999999999"/>
      <point x="192.0" y="108.37078651685393"/>
      <point x="192.0" y="212.2" type="curve" smooth="yes"/>
      <point x="192.0" y="321.59215686274507"/>
      <point x="278.6" y="384.4"/>
      <point x="416.6" y="384.4" type="curve" smooth="yes"/>
      <point x="487.0" y="384.4"/>
      <point x="549.2" y="370.6"/>
      <point x="605.4" y="349.4" type="curve"/>
      <point x="615.2" y="409.6" type="line"/>
      <point x="560.4" y="430.6"/>
      <point x="480.8" y="443.2"/>
      <point x="414.4" y="443.2" type="curve" smooth="yes"/>
      <point x="204.2" y="443.2"/>
      <point x="70.6" y="346.6616487455197"/>
    </contour>
  </outline>
</glyph>
<glyph name="b" format="2">
  <advance width="963.8"/>
  <unicode hex="0062"/>
  <outline>
    <contour>
      <point x="252.0" y="1413.4" type="line" smooth="yes"/>
      <point x="252.0" y="1441.6"/>
      <point x="236.6" y="1458.8"/>
      <point x="210.79999999999998" y="1458.8" type="curve"/>
      <point x="195.39999999999998" y="1458.8"/>
      <point x="180.0" y="1455.6"/>
      <point x="144.0" y="1443.6" type="curve" smooth="yes"/>
      <point x="32.199999999999996" y="1406.6" type="line" smooth="yes"/>
      <point x="3.0" y="1397.0"/>
      <point x="-5.6" y="1386.0"/>
      <point x="-5.6" y="1369.6" type="curve" smooth="yes"/>
      <point x="-5.6" y="1354.2"/>
      <point x="3.1999999999999993" y="1343.2"/>
      <point x="26.4" y="1339.0" type="curve" smooth="yes"/>
      <point x="96.2" y="1337.8" type="line" smooth="yes"/>
      <point x="123.2" y="1334.8"/>
      <point x="133.0" y="1323.0"/>
      <point x="133.0" y="1287.8" type="curve" smooth="yes"/>
      <point x="132.2" y="35.4" type="line" smooth="yes"/>
      <point x="132.2" y="7.4"/>
      <point x="142.8" y="-4.0"/>
      <point x="164.4" y="-4.0" type="curve" smooth="yes"/>
      <point x="180.2" y="-4.0"/>
      <point x="197.4" y="3.200000000000001"/>
      <point x="214.2" y="27.200000000000003" type="curve" smooth="yes"/>
      <point x="252.0" y="119.0" type="line"/>
    </contour>
    <contour>
      <point x="211.2" y="599.2" type="line"/>
      <point x="282.2" y="721.2"/>
      <point x="382.6" y="796.8"/>
      <point x="509.2" y="796.8" type="curve" smooth="yes"/>
      <point x="667.0" y="796.8"/>
      <point x="784.2" y="659.4"/>
      <point x="784.2" y="431.6" type="curve" smooth="yes"/>
      <point x="784.2" y="195.8"/>
      <point x="660.4" y="56.8"/>
      <point x="506.0" y="56.8" type="curve" smooth="yes"/>
      <point x="389.6" y="56.8"/>
      <point x="283.2" y="122.6"/>
      <point x="217.2" y="250.0" type="curve"/>
      <point x="186.39999999999998" y="184.4" type="line"/>
      <point x="249.0" y="62.8"/>
      <point x="370.2" y="-20.0"/>
      <point x="515.4" y="-20.0" type="curve" smooth="yes"/>
      <point x="732.4" y="-20.0"/>
      <point x="908.0" y="138.8"/>
      <point x="908.0" y="443.0" type="curve" smooth="yes"/>
      <point x="908.0" y="713.2"/>
      <point x="760.8" y="879.2"/>
      <point x="550.2" y="879.2" type="curve" smooth="yes"/>
      <point x="407.2" y="879.2"/>
      <point x="274.79999999999995" y="797.4"/>
      <point x="191.0" y="658.0" type="curve"/>
    </contour>
  </outline>
</glyph>
<glyph name="c" format="2">
  <advance width="815.6"/>
  <unicode hex="0063"/>
  <anchor x="439.8" y="974.4" name="center"/>
  <outline>
    <contour>
      <point x="769.2" y="653.0" type="curve" smooth="yes"/>
      <point x="769.2" y="768.2"/>
      <point x="652.7166666666667" y="879.2"/>
      <point x="464.4" y="879.2" type="curve" smooth="yes"/>
      <point x="215.0" y="879.2"/>
      <point x="55.6" y="683.6"/>
      <point x="55.6" y="423.8" type="curve" smooth="yes"/>
      <point x="55.6" y="160.52984054669705"/>
      <point x="209.40000000000003" y="-20.0"/>
      <point x="448.0" y="-20.0" type="curve" smooth="yes"/>
      <point x="640.0" y="-20.0"/>
      <point x="762.2" y="105.4"/>
      <point x="780.6" y="240.2" type="curve" smooth="yes"/>
      <point x="783.0" y="261.6"/>
      <point x="774.0" y="275.4"/>
      <point x="757.4" y="275.4" type="curve" smooth="yes"/>
      <point x="744.4" y="275.4"/>
      <point x="734.8" y="268.8"/>
      <point x="724.2" y="249.2" type="curve" smooth="yes"/>
      <point x="694.8" y="161.0"/>
      <point x="614.6" y="77.39999999999998"/>
      <point x="475.0" y="77.39999999999998" type="curve" smooth="yes"/>
      <point x="296.79999999999995" y="77.39999999999998"/>
      <point x="167.6" y="215.096"/>
      <point x="167.6" y="455.6" type="curve" smooth="yes"/>
      <point x="167.6" y="662.0"/>
      <point x="283.4" y="805.2"/>
      <point x="447.6" y="805.2" type="curve" smooth="yes"/>
      <point x="565.5211267605634" y="805.2"/>
      <point x="633.2" y="748.2"/>
      <point x="633.2" y="667.6" type="curve" smooth="yes"/>
      <point x="633.2" y="641.0" type="line" smooth="yes"/>
      <point x="633.2" y="591.2"/>
      <point x="655.3627906976744" y="562.2"/>
      <point x="698.8" y="562.2" type="curve" smooth="yes"/>
      <point x="740.4133333333333" y="562.2"/>
      <point x="769.2" y="594.6"/>
    </contour>
  </outline>
</glyph>
<glyph name="d" format="2">
  <advance width="978.0"/>
  <unicode hex="0064"/>
  <outline>
    <contour>
      <point x="715.4" y="154.2" type="line"/>
      <point x="715.4" y="79.0" type="line" smooth="yes"/>
      <point x="715.4" y="24.4"/>
      <point x="741.2" y="0.0"/>
      <point x="791.6" y="0.0" type="curve" smooth="yes"/>
      <point x="913.0" y="0.0" type="line" smooth="yes"/>
      <point x="939.2" y="0.0"/>
      <point x="952.0" y="10.799999999999997"/>
      <point x="952.0" y="30.599999999999994" type="curve" smooth="yes"/>
      <point x="952.0" y="47.8"/>
      <point x="941.6" y="59.19999999999999"/>
      <point x="921.0" y="66.39999999999999" type="curve" smooth="yes"/>
      <point x="876.6" y="74.6" type="line" smooth="yes"/>
      <point x="845.0" y="81.19999999999999"/>
      <point x="830.6" y="99.39999999999999"/>
      <point x="830.6" y="136.4" type="curve" smooth="yes"/>
      <point x="830.6" y="1413.4" type="line" smooth="yes"/>
      <point x="830.6" y="1441.6"/>
      <point x="815.2" y="1458.8"/>
      <point x="789.4" y="1458.8" type="curve"/>
      <point x="774.0" y="1458.8"/>
      <point x="758.6" y="1455.6"/>
      <point x="722.6" y="1443.6" type="curve" smooth="yes"/>
      <point x="610.8" y="1406.6" type="line" smooth="yes"/>
      <point x="581.6" y="1397.0"/>
      <point x="573.0" y="1386.0"/>
      <point x="573.0" y="1369.6" type="curve" smooth="yes"/>
      <point x="573.0" y="1354.2"/>
      <point x="581.8" y="1343.2"/>
      <point x="605.0" y="1339.0" type="curve" smooth="yes"/>
      <point x="674.8" y="1337.8" type="line" smooth="yes"/>
      <point x="701.8" y="1334.8"/>
      <point x="711.6" y="1323.0"/>
      <point x="711.6" y="1287.8" type="curve" smooth="yes"/>
      <point x="711.6" y="168.8" type="line"/>
    </contour>
    <contour>
      <point x="55.6" y="416.2" type="curve" smooth="yes"/>
      <point x="55.6" y="146.0"/>
      <point x="202.8" y="-20.0"/>
      <point x="413.4" y="-20.0" type="curve" smooth="yes"/>
      <point x="556.4" y="-20.0"/>
      <point x="688.8" y="61.8"/>
      <point x="772.6" y="201.2" type="curve"/>
      <point x="752.4" y="260.0" type="line"/>
      <point x="681.4" y="138.0"/>
      <point x="581.0" y="62.400000000000006"/>
      <point x="454.4" y="62.400000000000006" type="curve" smooth="yes"/>
      <point x="296.6" y="62.400000000000006"/>
      <point x="179.39999999999998" y="199.8"/>
      <point x="179.39999999999998" y="427.6" type="curve" smooth="yes"/>
      <point x="179.39999999999998" y="663.4"/>
      <point x="303.2" y="802.4"/>
      <point x="457.6" y="802.4" type="curve" smooth="yes"/>
      <point x="574.2" y="802.4"/>
      <point x="679.6" y="737.4"/>
      <point x="746.4" y="609.2" type="curve"/>
      <point x="777.2" y="674.8" type="line"/>
      <point x="714.6" y="796.4"/>
      <point x="593.4" y="879.2"/>
      <point x="448.2" y="879.2" type="curve" smooth="yes"/>
      <point x="231.2" y="879.2"/>
      <point x="55.6" y="720.4"/>
    </contour>
  </outline>
</glyph>
<glyph name="e" format="2">
  <advance width="837.6"/>
  <unicode hex="0065"/>
  <anchor x="429.0" y="975.0" name="center"/>
  <outline>
    <contour>
      <point x="783.0" y="550.4" type="curve" smooth="yes"/>
      <point x="783.0" y="745.6"/>
      <point x="644.2" y="879.2"/>
      <point x="454.4" y="879.2" type="curve" smooth="yes"/>
      <point x="203.8" y="879.2"/>
      <point x="50.0" y="684.6"/>
      <point x="50.0" y="423.8" type="curve" smooth="yes"/>
      <point x="50.0" y="161.4"/>
      <point x="202.0" y="-20.0"/>
      <point x="447.6" y="-20.0" type="curve" smooth="yes"/>
      <point x="644.8" y="-20.0"/>
      <point x="770.8" y="106.4"/>
      <point x="789.2" y="240.2" type="curve" smooth="yes"/>
      <point x="791.6" y="261.6"/>
      <point x="782.4" y="275.4"/>
      <point x="765.8" y="275.4" type="curve" smooth="yes"/>
      <point x="752.6" y="275.4"/>
      <point x="742.4" y="268.0"/>
      <point x="732.8" y="249.2" type="curve" smooth="yes"/>
      <point x="702.0" y="159.8"/>
      <point x="613.6" y="74.6"/>
      <point x="473.0" y="74.6" type="curve" smooth="yes"/>
      <point x="291.2" y="74.6"/>
      <point x="164.0" y="212.4"/>
      <point x="164.0" y="456.0" type="curve" smooth="yes"/>
      <point x="164.0" y="663.8"/>
      <point x="277.4" y="805.2"/>
      <point x="438.2" y="805.2" type="curve" smooth="yes"/>
      <point x="569.0" y="805.2"/>
      <point x="654.4" y="703.2"/>
      <point x="654.4" y="567.8" type="curve" smooth="yes"/>
      <point x="654.4" y="532.4"/>
      <point x="638.8" y="516.4"/>
      <point x="600.4" y="516.4" type="curve" smooth="yes"/>
      <point x="131.6" y="516.4" type="line"/>
      <point x="131.6" y="453.2" type="line"/>
      <point x="681.2" y="453.2" type="line" smooth="yes"/>
      <point x="749.2" y="453.2"/>
      <point x="783.0" y="485.8"/>
    </contour>
  </outline>
</glyph>
<glyph name="f" format="2">
  <advance width="516.0"/>
  <unicode hex="0066"/>
  <outline>
    <contour>
      <point x="293.6" y="136.4" type="curve" smooth="yes"/>
      <point x="293.6" y="783.8" type="line"/>
      <point x="439.6" y="783.8" type="line" smooth="yes"/>
      <point x="487.79999999999995" y="783.8"/>
      <point x="510.2" y="801.7241379310345"/>
      <point x="510.2" y="830.0" type="curve" smooth="yes"/>
      <point x="510.2" y="849.1333333333333"/>
      <point x="497.0" y="859.2"/>
      <point x="467.4" y="859.2" type="curve" smooth="yes"/>
      <point x="264.6" y="859.2" type="line"/>
      <point x="287.4" y="822.2" type="line"/>
      <point x="287.4" y="857.8" type="line" smooth="yes"/>
      <point x="287.4" y="980.2110408280621"/>
      <point x="178.2" y="1086.406354388096"/>
      <point x="178.2" y="1214.8" type="curve" smooth="yes"/>
      <point x="178.2" y="1314.4416666666666"/>
      <point x="227.03046357615895" y="1375.6"/>
      <point x="316.4" y="1375.6" type="curve" smooth="yes"/>
      <point x="381.17021276595744" y="1375.6"/>
      <point x="410.0" y="1339.4"/>
      <point x="410.0" y="1280.4" type="curve" smooth="yes"/>
      <point x="410.0" y="1252.6" type="line" smooth="yes"/>
      <point x="410.0" y="1202.5396825396824"/>
      <point x="432.6" y="1172.6"/>
      <point x="473.0" y="1172.6" type="curve" smooth="yes"/>
      <point x="511.2" y="1172.6"/>
      <point x="537.2" y="1202.2301369863012"/>
      <point x="537.2" y="1258.4" type="curve" smooth="yes"/>
      <point x="537.2" y="1351.6"/>
      <point x="462.29132947976876" y="1434.2"/>
      <point x="328.2" y="1434.2" type="curve" smooth="yes"/>
      <point x="168.8766355140187" y="1434.2"/>
      <point x="77.4" y="1338.7260504201681"/>
      <point x="77.4" y="1195.8" type="curve" smooth="yes"/>
      <point x="77.4" y="1057.1272005686528"/>
      <point x="175.2" y="964.9450735872374"/>
      <point x="175.2" y="843.2" type="curve" smooth="yes"/>
      <point x="175.2" y="806.8" type="line"/>
      <point x="212.4" y="859.2" type="line"/>
      <point x="65.4" y="859.2" type="line" smooth="yes"/>
      <point x="43.0" y="859.2"/>
      <point x="32.0" y="846.8"/>
      <point x="32.0" y="830.6" type="curve" smooth="yes"/>
      <point x="32.0" y="813.2"/>
      <point x="42.0" y="800.8"/>
      <point x="77.8" y="787.6" type="curve" smooth="yes"/>
      <point x="120.8" y="773.8" type="line" smooth="yes"/>
      <point x="163.6" y="759.4"/>
      <point x="174.6" y="748.0"/>
      <point x="174.6" y="708.2" type="curve" smooth="yes"/>
      <point x="174.6" y="137.2" type="line" smooth="yes"/>
      <point x="174.6" y="100.6"/>
      <point x="161.2" y="82.0"/>
      <point x="123.6" y="75.0" type="curve" smooth="yes"/>
      <point x="78.0" y="67.19999999999999" type="line" smooth="yes"/>
      <point x="54.6" y="61.19999999999999"/>
      <point x="43.4" y="49.19999999999999"/>
      <point x="43.4" y="30.599999999999994" type="curve" smooth="yes"/>
      <point x="43.4" y="10.799999999999997"/>
      <point x="56.2" y="0.0"/>
      <point x="82.4" y="0.0" type="curve" smooth="yes"/>
      <point x="428.0" y="0.0" type="line" smooth="yes"/>
      <point x="454.4" y="0.0"/>
      <point x="467.0" y="10.799999999999997"/>
      <point x="467.0" y="31.0" type="curve" smooth="yes"/>
      <point x="467.0" y="50.0"/>
      <point x="455.4" y="63.8"/>
      <point x="429.6" y="66.6" type="curve" smooth="yes"/>
      <point x="344.79999999999995" y="74.6" type="line" smooth="yes"/>
      <point x="304.2" y="78.6"/>
      <point x="293.6" y="99.8"/>
    </contour>
  </outline>
</glyph>
<glyph name="g" format="2">
  <advance width="880.6"/>
  <unicode hex="0067"/>
  <anchor x="440.4" y="985.8" name="center"/>
  <outline>
    <contour>
      <point x="524.8" y="26.19999999999999" type="curve" smooth="yes"/>
      <point x="752.2" y="-22.599999999999994"/>
      <point x="851.6" y="-91.2212765957447"/>
      <point x="851.6" y="-235.0" type="curve" smooth="yes"/>
      <point x="851.6" y="-381.60856031128407"/>
      <point x="705.2" y="-493.2"/>
      <point x="425.6" y="-493.2" type="curve" smooth="yes"/>
      <point x="146.4" y="-493.2"/>
      <point x="35.2" y="-389.6"/>
      <point x="35.2" y="-263.2" type="curve" smooth="yes"/>
      <point x="35.2" y="-153.8"/>
      <point x="126.6" y="-55.19999999999999"/>
      <point x="331.8" y="-9.399999999999991" type="curve"/>
      <point x="356.2" y="-41.8" type="line"/>
      <point x="191.6" y="-94.6"/>
      <point x="140.0" y="-161.4"/>
      <point x="140.0" y="-243.4" type="curve" smooth="yes"/>
      <point x="140.0" y="-337.4"/>
      <point x="220.6" y="-421.8"/>
      <point x="442.2" y="-421.8" type="curve" smooth="yes"/>
      <point x="629.2" y="-421.8"/>
      <point x="740.8" y="-352.7565217391304"/>
      <point x="740.8" y="-262.4" type="curve" smooth="yes"/>
      <point x="740.8" y="-167.66315789473686"/>
      <point x="672.2" y="-122.8"/>
      <point x="464.2" y="-77.39999999999999" type="curve" smooth="yes"/>
      <point x="217.37320389820917" y="-23.278825888652136"/>
      <point x="170.60000000000002" y="37.60000000000001"/>
      <point x="170.60000000000002" y="109.60000000000001" type="curve" smooth="yes"/>
      <point x="170.60000000000002" y="174.0"/>
      <point x="223.6" y="232.2"/>
      <point x="329.8" y="246.4" type="curve"/>
      <point x="348.0" y="220.8" type="line"/>
      <point x="302.4" y="200.4"/>
      <point x="285.0" y="177.6"/>
      <point x="285.0" y="150.0" type="curve" smooth="yes"/>
      <point x="285.0" y="101.39999999999999"/>
      <point x="327.0013060124925" y="70.33616484046397"/>
    </contour>
    <contour>
      <point x="589.2" y="809.4" type="line" smooth="yes"/>
      <point x="620.0" y="853.0" type="line" smooth="yes"/>
      <point x="671.4596778563849" y="930.6009370037771"/>
      <point x="728.3109489051095" y="966.0"/>
      <point x="794.0" y="966.0" type="curve" smooth="yes"/>
      <point x="855.239175257732" y="966.0"/>
      <point x="895.8" y="935.364705882353"/>
      <point x="895.8" y="886.2" type="curve" smooth="yes"/>
      <point x="895.8" y="843.1600000000001"/>
      <point x="870.4" y="815.4"/>
      <point x="831.2" y="815.4" type="curve" smooth="yes"/>
      <point x="782.6" y="815.4"/>
      <point x="772.0" y="872.4"/>
      <point x="729.8" y="872.4" type="curve" smooth="yes"/>
      <point x="705.4" y="872.4"/>
      <point x="679.9264348310513" y="847.6071498122792"/>
      <point x="632.0" y="783.8" type="curve"/>
    </contour>
    <contour>
      <point x="777.8" y="538.0" type="curve" smooth="yes"/>
      <point x="777.8" y="334.6"/>
      <point x="622.6" y="192.8"/>
      <point x="420.0" y="192.8" type="curve" smooth="yes"/>
      <point x="206.8" y="192.8"/>
      <point x="60.0" y="330.8"/>
      <point x="60.0" y="531.4" type="curve" smooth="yes"/>
      <point x="60.0" y="736.6"/>
      <point x="214.6" y="879.0"/>
      <point x="424.4" y="879.0" type="curve" smooth="yes"/>
      <point x="634.0" y="879.0"/>
      <point x="777.8" y="736.8"/>
    </contour>
    <contour>
      <point x="404.6" y="814.4" type="curve" smooth="yes"/>
      <point x="269.4" y="812.2"/>
      <point x="175.39999999999998" y="698.0"/>
      <point x="182.6" y="532.2" type="curve" smooth="yes"/>
      <point x="189.8" y="363.4"/>
      <point x="294.79999999999995" y="255.2"/>
      <point x="433.2" y="257.4" type="curve" smooth="yes"/>
      <point x="568.4" y="259.6"/>
      <point x="662.4" y="373.8"/>
      <point x="655.2" y="539.6" type="curve" smooth="yes"/>
      <point x="648.0" y="708.6"/>
      <point x="543.0" y="816.6"/>
    </contour>
  </outline>
</glyph>
<glyph name="h" format="2">
  <advance width="991.2"/>
  <unicode hex="0068"/>
  <anchor x="486.6" y="1095.8" name="center"/>
  <outline>
    <contour>
      <point x="286.79999999999995" y="1413.4" type="line" smooth="yes"/>
      <point x="286.79999999999995" y="1441.6"/>
      <point x="271.4" y="1458.8"/>
      <point x="245.6" y="1458.8" type="curve"/>
      <point x="230.2" y="1458.8"/>
      <point x="214.79999999999998" y="1455.6"/>
      <point x="178.8" y="1443.6" type="curve" smooth="yes"/>
      <point x="67.0" y="1406.6" type="line" smooth="yes"/>
      <point x="37.8" y="1397.0"/>
      <point x="29.2" y="1386.0"/>
      <point x="29.2" y="1369.6" type="curve" smooth="yes"/>
      <point x="29.2" y="1354.2"/>
      <point x="38.0" y="1343.2"/>
      <point x="61.2" y="1339.0" type="curve" smooth="yes"/>
      <point x="131.0" y="1337.8" type="line" smooth="yes"/>
      <point x="158.0" y="1334.8"/>
      <point x="167.8" y="1323.0"/>
      <point x="167.8" y="1287.8" type="curve" smooth="yes"/>
      <point x="167.8" y="136.4" type="line" smooth="yes"/>
      <point x="167.8" y="98.6"/>
      <point x="156.8" y="81.8"/>
      <point x="121.80000000000001" y="74.6" type="curve" smooth="yes"/>
      <point x="77.4" y="66.39999999999999" type="line" smooth="yes"/>
      <point x="56.6" y="59.39999999999999"/>
      <point x="46.4" y="47.8"/>
      <point x="46.4" y="30.599999999999994" type="curve" smooth="yes"/>
      <point x="46.4" y="10.799999999999997"/>
      <point x="59.2" y="0.0"/>
      <point x="85.4" y="0.0" type="curve" smooth="yes"/>
      <point x="368.8" y="0.0" type="line" smooth="yes"/>
      <point x="394.0" y="0.0"/>
      <point x="406.0" y="10.799999999999997"/>
      <point x="406.0" y="30.599999999999994" type="curve" smooth="yes"/>
      <point x="406.0" y="45.8"/>
      <point x="396.6" y="57.8"/>
      <point x="377.2" y="64.0" type="curve" smooth="yes"/>
      <point x="332.4" y="72.6" type="line" smooth="yes"/>
      <point x="297.2" y="80.19999999999999"/>
      <point x="286.79999999999995" y="97.6"/>
      <point x="286.79999999999995" y="136.4" type="curve" smooth="yes"/>
    </contour>
    <contour>
      <point x="266.0" y="643.4" type="line" smooth="yes"/>
      <point x="301.4" y="676.8" type="line" smooth="yes"/>
      <point x="388.88760421121435" y="759.3153012808784"/>
      <point x="456.56470588235294" y="787.8"/>
      <point x="515.6" y="787.8" type="curve" smooth="yes"/>
      <point x="612.6896551724137" y="787.8"/>
      <point x="659.37763586113" y="719.5700554196736"/>
      <point x="679.6" y="588.6" type="curve" smooth="yes"/>
      <point x="749.6" y="134.39999999999998" type="line" smooth="yes"/>
      <point x="755.0" y="97.39999999999999"/>
      <point x="739.2" y="80.19999999999999"/>
      <point x="704.0" y="72.6" type="curve" smooth="yes"/>
      <point x="659.2" y="64.0" type="line" smooth="yes"/>
      <point x="639.8" y="58.19999999999999"/>
      <point x="630.2" y="46.0"/>
      <point x="630.2" y="30.599999999999994" type="curve" smooth="yes"/>
      <point x="630.2" y="10.799999999999997"/>
      <point x="642.2" y="0.0"/>
      <point x="667.4" y="0.0" type="curve" smooth="yes"/>
      <point x="951.4" y="0.0" type="line" smooth="yes"/>
      <point x="977.6" y="0.0"/>
      <point x="990.4" y="10.799999999999997"/>
      <point x="990.4" y="30.599999999999994" type="curve" smooth="yes"/>
      <point x="990.4" y="47.8"/>
      <point x="979.8" y="59.19999999999999"/>
      <point x="959.2" y="66.39999999999999" type="curve" smooth="yes"/>
      <point x="914.8" y="74.6" type="line" smooth="yes"/>
      <point x="880.0" y="82.0"/>
      <point x="874.0" y="98.8"/>
      <point x="868.8" y="136.4" type="curve" smooth="yes"/>
      <point x="796.6" y="630.0" type="line" smooth="yes"/>
      <point x="773.5294075182485" y="789.3653215072969"/>
      <point x="705.290909090909" y="879.2"/>
      <point x="568.0" y="879.2" type="curve" smooth="yes"/>
      <point x="475.3365853658537" y="879.2"/>
      <point x="381.04272076925383" y="831.9073531135751"/>
      <point x="271.0" y="723.8" type="curve" smooth="yes"/>
      <point x="229.6" y="683.6" type="line"/>
    </contour>
  </outline>
</glyph>
<glyph name="i" format="2">
  <advance width="440.79999999999995"/>
  <unicode hex="0069"/>
  <outline>
    <contour>
      <point x="293.4" y="823.4" type="line" smooth="yes"/>
      <point x="293.4" y="851.6"/>
      <point x="278.0" y="868.8"/>
      <point x="252.2" y="868.8" type="curve"/>
      <point x="236.79999999999998" y="868.8"/>
      <point x="221.4" y="865.6"/>
      <point x="185.39999999999998" y="853.6" type="curve" smooth="yes"/>
      <point x="73.6" y="816.6" type="line" smooth="yes"/>
      <point x="44.4" y="807.0"/>
      <point x="35.8" y="796.0"/>
      <point x="35.8" y="779.6" type="curve" smooth="yes"/>
      <point x="35.8" y="764.2"/>
      <point x="44.6" y="753.2"/>
      <point x="67.8" y="749.0" type="curve" smooth="yes"/>
      <point x="137.6" y="747.8" type="line" smooth="yes"/>
      <point x="164.6" y="744.8"/>
      <point x="174.4" y="733.0"/>
      <point x="174.4" y="697.8" type="curve" smooth="yes"/>
      <point x="174.4" y="136.4" type="line" smooth="yes"/>
      <point x="174.4" y="98.8"/>
      <point x="163.2" y="82.0"/>
      <point x="128.4" y="74.6" type="curve" smooth="yes"/>
      <point x="84.0" y="66.39999999999999" type="line" smooth="yes"/>
      <point x="63.2" y="59.8"/>
      <point x="53.0" y="47.8"/>
      <point x="53.0" y="30.599999999999994" type="curve" smooth="yes"/>
      <point x="53.0" y="10.799999999999997"/>
      <point x="65.6" y="0.0"/>
      <point x="92.0" y="0.0" type="curve" smooth="yes"/>
      <point x="375.8" y="0.0" type="line" smooth="yes"/>
      <point x="402.0" y="0.0"/>
      <point x="414.79999999999995" y="10.799999999999997"/>
      <point x="414.79999999999995" y="30.599999999999994" type="curve" smooth="yes"/>
      <point x="414.79999999999995" y="47.8"/>
      <point x="404.4" y="59.8"/>
      <point x="383.79999999999995" y="66.39999999999999" type="curve" smooth="yes"/>
      <point x="339.4" y="74.6" type="line" smooth="yes"/>
      <point x="304.4" y="82.0"/>
      <point x="293.4" y="98.8"/>
      <point x="293.4" y="136.4" type="curve" smooth="yes"/>
    </contour>
    <contour>
      <point x="215.8" y="1073.0" type="curve" smooth="yes"/>
      <point x="276.79999999999995" y="1073.0"/>
      <point x="318.79999999999995" y="1114.0"/>
      <point x="318.79999999999995" y="1173.0" type="curve" smooth="yes"/>
      <point x="318.79999999999995" y="1231.2"/>
      <point x="276.79999999999995" y="1272.2"/>
      <point x="215.8" y="1272.2" type="curve" smooth="yes"/>
      <point x="154.8" y="1272.2"/>
      <point x="112.8" y="1231.2"/>
      <point x="112.8" y="1172.2" type="curve" smooth="yes"/>
      <point x="112.8" y="1114.0"/>
      <point x="154.8" y="1073.0"/>
    </contour>
  </outline>
</glyph>
<glyph name="j" format="2">
  <advance width="428.6"/>
  <unicode hex="006A"/>
  <outline>
    <contour>
      <point x="289.79999999999995" y="36.79999999999998" type="curve" smooth="yes"/>
      <point x="289.79999999999995" y="823.4" type="line" smooth="yes"/>
      <point x="289.79999999999995" y="851.6"/>
      <point x="274.4" y="868.8"/>
      <point x="248.6" y="868.8" type="curve" smooth="yes"/>
      <point x="233.2" y="868.8"/>
      <point x="217.8" y="865.6"/>
      <point x="181.8" y="853.6" type="curve" smooth="yes"/>
      <point x="70.0" y="816.6" type="line" smooth="yes"/>
      <point x="40.8" y="807.0"/>
      <point x="32.2" y="796.0"/>
      <point x="32.2" y="779.6" type="curve" smooth="yes"/>
      <point x="32.2" y="764.2"/>
      <point x="41.0" y="753.2"/>
      <point x="64.2" y="749.0" type="curve" smooth="yes"/>
      <point x="134.0" y="747.8" type="line" smooth="yes"/>
      <point x="161.0" y="744.8"/>
      <point x="170.8" y="733.0"/>
      <point x="170.8" y="697.8" type="curve" smooth="yes"/>
      <point x="170.8" y="5.0" type="line" smooth="yes"/>
      <point x="170.8" y="-119.60000000000001"/>
      <point x="269.2" y="-210.2"/>
      <point x="269.2" y="-310.2" type="curve" smooth="yes"/>
      <point x="269.2" y="-391.6"/>
      <point x="229.39999999999998" y="-433.8"/>
      <point x="160.6" y="-434.6" type="curve" smooth="yes"/>
      <point x="95.19999999999999" y="-434.6"/>
      <point x="64.79999999999998" y="-398.4"/>
      <point x="64.79999999999998" y="-339.8" type="curve" smooth="yes"/>
      <point x="64.79999999999998" y="-313.2" type="line" smooth="yes"/>
      <point x="64.79999999999998" y="-262.8"/>
      <point x="42.19999999999999" y="-231.60000000000002"/>
      <point x="3.1999999999999957" y="-231.60000000000002" type="curve" smooth="yes"/>
      <point x="-37.2" y="-231.60000000000002"/>
      <point x="-64.6" y="-261.8"/>
      <point x="-64.6" y="-319.2" type="curve" smooth="yes"/>
      <point x="-64.6" y="-411.0"/>
      <point x="11.0" y="-493.2"/>
      <point x="140.6" y="-493.2" type="curve" smooth="yes"/>
      <point x="274.0" y="-493.2"/>
      <point x="365.0" y="-409.2"/>
      <point x="365.0" y="-283.8" type="curve" smooth="yes"/>
      <point x="365.0" y="-181.20000000000002"/>
      <point x="289.79999999999995" y="-88.0"/>
    </contour>
    <contour>
      <point x="212.2" y="1073.0" type="curve" smooth="yes"/>
      <point x="273.2" y="1073.0"/>
      <point x="315.2" y="1114.0"/>
      <point x="315.2" y="1173.0" type="curve" smooth="yes"/>
      <point x="315.2" y="1231.2"/>
      <point x="273.2" y="1272.2"/>
      <point x="212.2" y="1272.2" type="curve" smooth="yes"/>
      <point x="151.2" y="1272.2"/>
      <point x="109.2" y="1231.2"/>
      <point x="109.2" y="1172.2" type="curve" smooth="yes"/>
      <point x="109.2" y="1114.0"/>
      <point x="151.2" y="1073.0"/>
    </contour>
  </outline>
</glyph>
<glyph name="k" format="2">
  <advance width="943.2"/>
  <unicode hex="006B"/>
  <outline>
    <contour>
      <point x="85.4" y="0.0" type="curve" smooth="yes"/>
      <point x="368.8" y="0.0" type="line" smooth="yes"/>
      <point x="394.0" y="0.0"/>
      <point x="406.0" y="10.799999999999997"/>
      <point x="406.0" y="30.599999999999994" type="curve" smooth="yes"/>
      <point x="406.0" y="45.8"/>
      <point x="396.6" y="57.8"/>
      <point x="377.2" y="64.0" type="curve" smooth="yes"/>
      <point x="332.4" y="72.6" type="line" smooth="yes"/>
      <point x="297.2" y="80.19999999999999"/>
      <point x="286.79999999999995" y="97.6"/>
      <point x="286.79999999999995" y="136.4" type="curve" smooth="yes"/>
      <point x="286.79999999999995" y="1413.4" type="line" smooth="yes"/>
      <point x="286.79999999999995" y="1441.6"/>
      <point x="271.4" y="1458.8"/>
      <point x="245.6" y="1458.8" type="curve"/>
      <point x="230.2" y="1458.8"/>
      <point x="214.79999999999998" y="1455.6"/>
      <point x="178.8" y="1443.6" type="curve" smooth="yes"/>
      <point x="67.0" y="1406.6" type="line" smooth="yes"/>
      <point x="37.8" y="1397.0"/>
      <point x="29.2" y="1386.0"/>
      <point x="29.2" y="1369.6" type="curve" smooth="yes"/>
      <point x="29.2" y="1354.2"/>
      <point x="38.0" y="1343.2"/>
      <point x="61.2" y="1339.0" type="curve" smooth="yes"/>
      <point x="131.0" y="1337.8" type="line" smooth="yes"/>
      <point x="158.0" y="1334.8"/>
      <point x="167.8" y="1323.0"/>
      <point x="167.8" y="1287.8" type="curve" smooth="yes"/>
      <point x="167.8" y="136.4" type="line" smooth="yes"/>
      <point x="167.8" y="98.6"/>
      <point x="156.8" y="81.8"/>
      <point x="121.80000000000001" y="74.6" type="curve" smooth="yes"/>
      <point x="77.4" y="66.39999999999999" type="line" smooth="yes"/>
      <point x="56.6" y="59.39999999999999"/>
      <point x="46.4" y="47.8"/>
      <point x="46.4" y="30.599999999999994" type="curve" smooth="yes"/>
      <point x="46.4" y="10.799999999999997"/>
      <point x="59.2" y="0.0"/>
    </contour>
    <contour>
      <point x="239.79999999999998" y="412.8" type="line"/>
      <point x="249.79999999999998" y="332.2" type="line"/>
      <point x="697.0" y="710.0" type="line" smooth="yes"/>
      <point x="762.2" y="764.6"/>
      <point x="785.6" y="776.2"/>
      <point x="829.8" y="784.6" type="curve" smooth="yes"/>
      <point x="885.4" y="794.0"/>
      <point x="895.2" y="809.4"/>
      <point x="895.2" y="828.6" type="curve" smooth="yes"/>
      <point x="895.2" y="848.2"/>
      <point x="882.4" y="859.2"/>
      <point x="856.2" y="859.2" type="curve" smooth="yes"/>
      <point x="568.2" y="859.2" type="line" smooth="yes"/>
      <point x="541.0" y="859.2"/>
      <point x="527.8" y="848.0"/>
      <point x="527.8" y="828.0" type="curve" smooth="yes"/>
      <point x="527.8" y="812.6"/>
      <point x="536.6" y="801.4"/>
      <point x="556.8" y="795.2" type="curve" smooth="yes"/>
      <point x="610.8" y="785.4" type="line" smooth="yes"/>
      <point x="643.6" y="778.4"/>
      <point x="647.6" y="756.4"/>
      <point x="615.8" y="730.0" type="curve" smooth="yes"/>
    </contour>
    <contour>
      <point x="485.0" y="581.4" type="line"/>
      <point x="390.2" y="517.6" type="line"/>
      <point x="656.0" y="160.8" type="line" smooth="yes"/>
      <point x="704.0" y="96.8"/>
      <point x="702.6" y="81.6"/>
      <point x="658.0" y="71.39999999999999" type="curve" smooth="yes"/>
      <point x="613.2" y="62.599999999999994" type="line" smooth="yes"/>
      <point x="594.2" y="56.39999999999999"/>
      <point x="585.6" y="45.8"/>
      <point x="585.6" y="30.599999999999994" type="curve" smooth="yes"/>
      <point x="585.6" y="11.0"/>
      <point x="598.2" y="0.0"/>
      <point x="622.8" y="0.0" type="curve" smooth="yes"/>
      <point x="904.6" y="0.0" type="line" smooth="yes"/>
      <point x="930.8" y="0.0"/>
      <point x="943.6" y="10.599999999999998"/>
      <point x="943.6" y="29.599999999999994" type="curve" smooth="yes"/>
      <point x="943.6" y="47.8"/>
      <point x="934.0" y="58.8"/>
      <point x="897.0" y="71.6" type="curve" smooth="yes"/>
      <point x="864.8" y="80.19999999999999"/>
      <point x="843.6" y="95.19999999999999"/>
      <point x="805.8" y="145.6" type="curve" smooth="yes"/>
    </contour>
  </outline>
</glyph>
<glyph name="l" format="2">
  <advance width="434.2"/>
  <unicode hex="006C"/>
  <anchor x="218.2" y="1554.6" name="center"/>
  <anchor x="421.2" y="721.6" name="right"/>
  <outline>
    <contour>
      <point x="286.79999999999995" y="1413.4" type="line" smooth="yes"/>
      <point x="286.79999999999995" y="1441.6"/>
      <point x="271.4" y="1458.8"/>
      <point x="245.6" y="1458.8" type="curve"/>
      <point x="230.2" y="1458.8"/>
      <point x="214.79999999999998" y="1455.6"/>
      <point x="178.8" y="1443.6" type="curve" smooth="yes"/>
      <point x="67.0" y="1406.6" type="line" smooth="yes"/>
      <point x="37.8" y="1397.0"/>
      <point x="29.2" y="1386.0"/>
      <point x="29.2" y="1369.6" type="curve" smooth="yes"/>
      <point x="29.2" y="1354.2"/>
      <point x="38.0" y="1343.2"/>
      <point x="61.2" y="1339.0" type="curve" smooth="yes"/>
      <point x="131.0" y="1337.8" type="line" smooth="yes"/>
      <point x="158.0" y="1334.8"/>
      <point x="167.8" y="1323.0"/>
      <point x="167.8" y="1287.8" type="curve" smooth="yes"/>
      <point x="167.8" y="136.4" type="line" smooth="yes"/>
      <point x="167.8" y="98.6"/>
      <point x="156.8" y="81.8"/>
      <point x="121.80000000000001" y="74.6" type="curve" smooth="yes"/>
      <point x="77.4" y="66.39999999999999" type="line" smooth="yes"/>
      <point x="56.6" y="59.39999999999999"/>
      <point x="46.4" y="47.8"/>
      <point x="46.4" y="30.599999999999994" type="curve" smooth="yes"/>
      <point x="46.4" y="10.799999999999997"/>
      <point x="59.2" y="0.0"/>
      <point x="85.4" y="0.0" type="curve" smooth="yes"/>
      <point x="369.2" y="0.0" type="line" smooth="yes"/>
      <point x="395.4" y="0.0"/>
      <point x="408.2" y="10.799999999999997"/>
      <point x="408.2" y="30.599999999999994" type="curve" smooth="yes"/>
      <point x="408.2" y="47.8"/>
      <point x="398.0" y="59.39999999999999"/>
      <point x="377.2" y="66.39999999999999" type="curve" smooth="yes"/>
      <point x="332.79999999999995" y="74.6" type="line" smooth="yes"/>
      <point x="297.79999999999995" y="81.8"/>
      <point x="286.79999999999995" y="98.6"/>
      <point x="286.79999999999995" y="136.4" type="curve" smooth="yes"/>
    </contour>
  </outline>
</glyph>
<glyph name="m" format="2">
  <advance width="1549.4"/>
  <unicode hex="006D"/>
  <outline>
    <contour>
      <point x="293.4" y="823.4" type="line" smooth="yes"/>
      <point x="293.4" y="851.6"/>
      <point x="278.0" y="868.8"/>
      <point x="252.2" y="868.8" type="curve"/>
      <point x="236.79999999999998" y="868.8"/>
      <point x="221.4" y="865.6"/>
      <point x="185.39999999999998" y="853.6" type="curve" smooth="yes"/>
      <point x="73.6" y="816.6" type="line" smooth="yes"/>
      <point x="44.4" y="807.0"/>
      <point x="35.8" y="796.0"/>
      <point x="35.8" y="779.6" type="curve" smooth="yes"/>
      <point x="35.8" y="764.2"/>
      <point x="44.6" y="753.2"/>
      <point x="67.8" y="749.0" type="curve" smooth="yes"/>
      <point x="137.6" y="747.8" type="line" smooth="yes"/>
      <point x="164.6" y="744.8"/>
      <point x="174.4" y="733.0"/>
      <point x="174.4" y="697.8" type="curve" smooth="yes"/>
      <point x="174.4" y="136.4" type="line" smooth="yes"/>
      <point x="174.4" y="98.6"/>
      <point x="163.4" y="81.8"/>
      <point x="128.4" y="74.6" type="curve" smooth="yes"/>
      <point x="84.0" y="66.39999999999999" type="line" smooth="yes"/>
      <point x="63.2" y="59.39999999999999"/>
      <point x="53.0" y="47.8"/>
      <point x="53.0" y="30.599999999999994" type="curve" smooth="yes"/>
      <point x="53.0" y="10.799999999999997"/>
      <point x="65.8" y="0.0"/>
      <point x="92.0" y="0.0" type="curve" smooth="yes"/>
      <point x="375.4" y="0.0" type="line" smooth="yes"/>
      <point x="400.6" y="0.0"/>
      <point x="412.6" y="10.799999999999997"/>
      <point x="412.6" y="30.599999999999994" type="curve" smooth="yes"/>
      <point x="412.6" y="45.8"/>
      <point x="403.2" y="57.8"/>
      <point x="383.79999999999995" y="64.0" type="curve" smooth="yes"/>
      <point x="339.0" y="72.6" type="line" smooth="yes"/>
      <point x="303.79999999999995" y="80.19999999999999"/>
      <point x="293.4" y="97.6"/>
      <point x="293.4" y="136.4" type="curve" smooth="yes"/>
    </contour>
    <contour>
      <point x="272.79999999999995" y="627.4" type="line" smooth="yes"/>
      <point x="308.0" y="660.8" type="line" smooth="yes"/>
      <point x="402.6" y="750.4"/>
      <point x="487.2" y="787.8"/>
      <point x="560.0" y="787.8" type="curve"/>
      <point x="659.6" y="787.8"/>
      <point x="728.0" y="719.0"/>
      <point x="728.0" y="588.8" type="curve" smooth="yes"/>
      <point x="728.0" y="136.4" type="line" smooth="yes"/>
      <point x="728.0" y="97.6"/>
      <point x="717.6" y="80.19999999999999"/>
      <point x="682.4" y="72.6" type="curve" smooth="yes"/>
      <point x="637.6" y="64.0" type="line" smooth="yes"/>
      <point x="618.2" y="57.8"/>
      <point x="608.8" y="45.8"/>
      <point x="608.8" y="30.599999999999994" type="curve" smooth="yes"/>
      <point x="608.8" y="10.799999999999997"/>
      <point x="620.8" y="0.0"/>
      <point x="646.0" y="0.0" type="curve" smooth="yes"/>
      <point x="929.0" y="0.0" type="line" smooth="yes"/>
      <point x="954.2" y="0.0"/>
      <point x="966.2" y="10.799999999999997"/>
      <point x="966.2" y="30.599999999999994" type="curve" smooth="yes"/>
      <point x="966.2" y="45.8"/>
      <point x="956.8" y="57.8"/>
      <point x="937.4" y="64.0" type="curve" smooth="yes"/>
      <point x="892.6" y="72.6" type="line" smooth="yes"/>
      <point x="857.4" y="80.19999999999999"/>
      <point x="847.0" y="97.6"/>
      <point x="847.0" y="136.4" type="curve" smooth="yes"/>
      <point x="847.0" y="620.0" type="line" smooth="yes"/>
      <point x="847.0" y="785.2"/>
      <point x="749.8" y="879.2"/>
      <point x="610.8" y="879.2" type="curve" smooth="yes"/>
      <point x="503.0" y="879.2"/>
      <point x="392.79999999999995" y="822.0"/>
      <point x="277.4" y="708.0" type="curve" smooth="yes"/>
      <point x="236.2" y="667.8" type="line"/>
    </contour>
    <contour>
      <point x="826.2" y="643.4" type="line" smooth="yes"/>
      <point x="861.6" y="676.8" type="line" smooth="yes"/>
      <point x="947.168579439513" y="757.6532735016845"/>
      <point x="1010.2590820943763" y="787.8"/>
      <point x="1066.8" y="787.8" type="curve" smooth="yes"/>
      <point x="1168.0279589934762" y="787.8"/>
      <point x="1217.6017701727524" y="719.7000839159057"/>
      <point x="1237.8" y="588.6" type="curve" smooth="yes"/>
      <point x="1307.8" y="134.39999999999998" type="line" smooth="yes"/>
      <point x="1313.2" y="97.39999999999999"/>
      <point x="1297.4" y="80.19999999999999"/>
      <point x="1262.2" y="72.6" type="curve" smooth="yes"/>
      <point x="1217.4" y="64.0" type="line" smooth="yes"/>
      <point x="1198.2" y="58.0"/>
      <point x="1188.4" y="46.0"/>
      <point x="1188.4" y="30.599999999999994" type="curve" smooth="yes"/>
      <point x="1188.4" y="10.799999999999997"/>
      <point x="1200.4" y="0.0"/>
      <point x="1225.6" y="0.0" type="curve" smooth="yes"/>
      <point x="1509.6" y="0.0" type="line" smooth="yes"/>
      <point x="1535.8" y="0.0"/>
      <point x="1548.6" y="10.799999999999997"/>
      <point x="1548.6" y="30.599999999999994" type="curve" smooth="yes"/>
      <point x="1548.6" y="47.8"/>
      <point x="1538.0" y="59.19999999999999"/>
      <point x="1517.4" y="66.39999999999999" type="curve" smooth="yes"/>
      <point x="1473.0" y="74.6" type="line" smooth="yes"/>
      <point x="1438.2" y="82.0"/>
      <point x="1432.4" y="98.8"/>
      <point x="1427.0" y="136.4" type="curve" smooth="yes"/>
      <point x="1354.6" y="631.4" type="line" smooth="yes"/>
      <point x="1331.547897160746" y="790.2191184146532"/>
      <point x="1260.4421955403088" y="879.2"/>
      <point x="1119.2" y="879.2" type="curve" smooth="yes"/>
      <point x="1029.370252959824" y="879.2"/>
      <point x="940.5473658191364" y="831.0641493112446"/>
      <point x="831.2" y="723.8" type="curve" smooth="yes"/>
      <point x="789.8" y="683.6" type="line"/>
    </contour>
  </outline>
</glyph>
